<?xml version="1.0" standalone="no"?><!DOCTYPE svg PUBLIC "-//W3C//DTD SVG 1.1//EN" "http://www.w3.org/Graphics/SVG/1.1/DTD/svg11.dtd"><svg t="1585452029150" class="icon" viewBox="0 0 1024 1024" version="1.1" xmlns="http://www.w3.org/2000/svg" p-id="36090" xmlns:xlink="http://www.w3.org/1999/xlink" width="128" height="128"><defs><style type="text/css"></style></defs><path d="M789.386076 889.093451h-554.773176c-46.928822 0-85.325317-38.396495-85.325317-85.325318v-513.228991c0-46.928822 38.396495-85.325317 85.325317-85.325317h554.773176c46.928822 0 85.325317 38.396495 85.325318 85.325317v513.228991c0.001023 46.928822-38.395472 85.325317-85.325318 85.325318z" fill="#CBE8F7" p-id="36091"></path><path d="M874.712417 281.909601c0-42.182728-34.513048-76.6968-76.6968-76.696799h-572.031234c-42.183751 0-76.6968 34.514071-76.6968 76.696799v108.654652h725.423811v-108.654652z" fill="#2196F3" p-id="36092"></path><path d="M397.722792 274.78125c1.091868 34.181497-26.843368 62.116733-61.025889 61.024865-30.955013-0.988514-56.166207-26.200732-57.153697-57.155744-1.090844-34.180474 26.843368-62.114686 61.023842-61.023842 30.955013 0.988514 56.167231 26.200732 57.155744 57.154721z" fill="#1568C3" p-id="36093"></path><path d="M338.634022 313.867454c-20.213367 0-36.751019-16.537651-36.751019-36.749996v-105.458867c0-20.212344 16.537651-36.751019 36.749996-36.751018 20.212344 0 36.749996 16.537651 36.749995 36.751018v105.458867c0.001023 20.212344-16.536628 36.749996-36.748972 36.749996z" fill="#B0BEC5" p-id="36094"></path><path d="M744.456794 274.78125c1.091868 34.181497-26.843368 62.116733-61.025888 61.024865-30.955013-0.988514-56.166207-26.200732-57.153698-57.155744-1.090844-34.180474 26.843368-62.114686 61.023842-61.023842 30.955013 0.988514 56.166207 26.200732 57.155744 57.154721z" fill="#1568C3" p-id="36095"></path><path d="M685.367001 313.867454c-20.213367 0-36.751019-16.537651-36.751019-36.749996v-105.458867c0-20.212344 16.537651-36.751019 36.749996-36.751018 20.212344 0 36.749996 16.537651 36.749995 36.751018v105.458867c0.001023 20.212344-16.536628 36.749996-36.748972 36.749996z" fill="#B0BEC5" p-id="36096"></path><path d="M500.077971 482.015082c6.556323-13.281491 17.280572-13.281491 23.836895 0l24.422225 49.498344c6.556323 13.281491 23.910573 25.889647 38.566364 28.0171l54.613852 7.936763c14.661931 2.127454 17.97335 12.332886 7.370875 22.665209l-39.522132 38.525432c-10.602476 10.333346-17.232476 30.737048-14.728446 45.330418l9.336645 54.398957c2.496867 14.594393-6.179746 20.894889-19.286251 14.008039l-48.844452-25.680892c-13.106506-6.885827-34.567283-6.885827-47.672766 0l-48.845475 25.680892c-13.106506 6.886851-21.783119 0.585331-19.286251-14.008039l9.336645-54.398957c2.496867-14.594393-4.125971-34.998095-14.729469-45.330418l-39.534412-38.525432c-10.602476-10.333346-7.291057-20.537755 7.370875-22.665209l54.613852-7.936763c14.654768-2.127454 32.009018-14.735609 38.566364-28.0171l24.415062-49.498344z" fill="#1776CC" p-id="36097"></path></svg>