<?xml version="1.0" standalone="no"?><!DOCTYPE svg PUBLIC "-//W3C//DTD SVG 1.1//EN" "http://www.w3.org/Graphics/SVG/1.1/DTD/svg11.dtd"><svg t="1584689949227" class="icon" viewBox="0 0 1024 1024" version="1.1" xmlns="http://www.w3.org/2000/svg" p-id="6323" xmlns:xlink="http://www.w3.org/1999/xlink" width="128" height="128"><defs><style type="text/css"></style></defs><path d="M512 512m-512 0a512 512 0 1 0 1024 0 512 512 0 1 0-1024 0Z" fill="#C0ECCE" p-id="6324"></path><path d="M226.1504 484.1152c2.3232 0 2.3232 0 0 0v4.6464c0 62.7456 53.4528 120.8448 118.528 120.8448H609.6c81.344 0 146.4128-69.7216 146.4128-148.736 0-32.5312-11.6224-65.0688-30.208-90.6304-25.568-16.2688-55.7824-27.8912-88.32-27.8912H630.528c-20.9152-67.392-83.6608-116.1984-155.7056-116.1984-90.6368 0-162.6752 74.368-162.6752 165.0048 0 6.976 0 13.9392 2.3232 20.9152-39.5072 11.616-69.7216 37.184-88.3136 72.0448" fill="#F7FFFA" p-id="6325"></path><path d="M472.4928 209.8816c-99.9296 0-178.944 81.344-178.944 183.5968v9.2928c-58.0992 20.9152-97.6064 79.0144-97.6064 144.0896 0 83.6608 67.392 153.3824 146.4064 153.3824h25.568c9.2928 0 16.2624-6.976 16.2624-16.2688 0-9.2992-6.9696-16.2688-16.2624-16.2688h-25.568c-62.7456 0-113.8752-55.776-113.8752-118.528 0-53.44 37.184-104.576 85.9904-116.192 6.976-2.3232 13.9392-9.2992 11.616-18.592 0-6.976-2.3232-13.9456-2.3232-18.592 0-83.6608 65.0752-148.736 146.4128-148.736 65.0688 0 120.8448 41.8304 139.4368 104.576 2.3232 6.976 9.2992 11.6224 16.2688 11.6224h6.976c81.3312 0 146.4064 69.7216 146.4064 153.3824 0 81.344-62.7456 148.736-141.76 153.3824-9.2992 0-16.2688 6.976-16.2688 16.2688 0 9.2992 6.9696 16.2688 16.2688 16.2688 95.2768-4.6464 171.968-88.3136 171.968-185.92 0-99.9296-79.0144-183.5904-176.6208-185.92-20.9152-74.368-85.984-120.8448-160.352-120.8448z" fill="#31BD61" p-id="6326"></path><path d="M521.2928 749.0432v-260.288c0-9.2928-6.9696-16.2624-16.2624-16.2624-9.2992 0-16.2688 6.976-16.2688 16.2688v260.288c0 9.2928 6.976 16.2624 16.2688 16.2624 9.2928 0 16.2624-4.6464 16.2624-16.2688z" fill="#31BD61" p-id="6327"></path><path d="M516.6464 779.2576l85.9904-85.9904c6.976-6.9696 6.976-18.592 0-25.5616-6.976-6.976-18.592-6.976-25.568 0l-85.984 85.9904c-6.976 6.9696-6.976 18.592 0 25.5616 6.976 6.976 18.592 6.976 25.5616 0z" fill="#31BD61" p-id="6328"></path><path d="M514.3232 753.696l-85.984-85.9904c-6.976-6.976-18.592-6.976-25.568 0-6.9696 6.976-6.9696 18.592 0 25.5616L488.768 779.264c6.976 6.976 18.592 6.976 25.5616 0 6.976-6.976 6.976-18.592 0-25.5616z" fill="#31BD61" p-id="6329"></path></svg>