<?xml version="1.0" standalone="no"?><!DOCTYPE svg PUBLIC "-//W3C//DTD SVG 1.1//EN" "http://www.w3.org/Graphics/SVG/1.1/DTD/svg11.dtd"><svg t="1584435247807" class="icon" viewBox="0 0 1024 1024" version="1.1" xmlns="http://www.w3.org/2000/svg" p-id="29639" width="32" height="32" xmlns:xlink="http://www.w3.org/1999/xlink"><defs><style type="text/css"></style></defs><path d="M636.870983 1024H460.78019s63.251088-74.602347 38.866359-96.98305C428.467134 861.630187 387.640634 784.687375 387.640634 715.936193V440.492627a23.609448 23.609448 0 0 1 23.711844-23.404658l27.997822-0.292558a379.535781 379.535781 0 0 0 119.46615-24.867449 543.880362 543.880362 0 0 0 104.89675-53.391875l17.173168-12.141167a24.267704 24.267704 0 0 1 28.275752 0l16.748958 11.482911a538.892244 538.892244 0 0 0 104.89675 53.596666 379.930735 379.930735 0 0 0 119.422266 24.867449l28.129473 0.438837a23.594821 23.594821 0 0 1 23.653333 23.404658v216.785642c0 68.897461-60.471784 184.604238-131.6512 249.991C807.461682 966.951147 693.919836 1024 636.870983 1024z" fill="#FFE8E1" p-id="29640"></path><path d="M468.89868 1024c-80.307232 0-189.241286-54.123271-284.278824-141.4519C81.229781 787.320399 21.942857 674.978042 21.942857 574.630572V173.094412a34.317079 34.317079 0 0 1 34.434103-34.112288l40.665593-0.526605A550.843248 550.843248 0 0 0 270.617346 102.134416a791.472385 791.472385 0 0 0 152.335066-77.761976L447.922256 6.643412a35.106987 35.106987 0 0 1 41.045918 0l24.326216 16.748958A778.76073 778.76073 0 0 0 665.570945 101.593183a550.901759 550.901759 0 0 0 173.457769 36.350359l40.855756 0.511977A34.287824 34.287824 0 0 1 914.245433 172.567808V574.191734c0 100.34747-59.286924 212.543548-162.676999 307.917528C660.114734 969.584171 551.765797 1024 468.89868 1024z" fill="#FF8159" p-id="29641"></path><path d="M468.650006 204.836979a51.972968 51.972968 0 0 0-50.70034 53.128573v350.192192a49.734898 49.734898 0 0 0 48.564665 50.90513h4.285978a49.734898 49.734898 0 0 0 48.535409-50.90513V257.936297A51.943712 51.943712 0 0 0 468.650006 204.836979z m2.150303 512.591261h-4.285978a48.272107 48.272107 0 0 0-42.947547 25.160007 53.143201 53.143201 0 0 0 0 51.636526 48.184339 48.184339 0 0 0 42.947547 25.013728h4.285978a51.022154 51.022154 0 0 0 0-101.810261z m0 0" fill="#FFFFFF" p-id="29642"></path></svg>