<?xml version="1.0" standalone="no"?><!DOCTYPE svg PUBLIC "-//W3C//DTD SVG 1.1//EN" "http://www.w3.org/Graphics/SVG/1.1/DTD/svg11.dtd"><svg t="1584436093240" class="icon" viewBox="0 0 1024 1024" version="1.1" xmlns="http://www.w3.org/2000/svg" p-id="37524" xmlns:xlink="http://www.w3.org/1999/xlink" width="32" height="32"><defs><style type="text/css"></style></defs><path d="M493.534968 784.85471m-51.37342 0a51.373419 51.373419 0 1 0 102.746839 0 51.373419 51.373419 0 1 0-102.746839 0Z" fill="#EC661A" p-id="37525"></path><path d="M291.831742 861.638194c-166.201806-166.201806-166.201806-435.678968 0-601.880775a423.46529 423.46529 0 0 1 213.677419-115.555096c-110.63329-1.337806-221.687742 40.117677-306.101677 124.531612-166.201806 166.201806-166.201806 435.678968 0 601.880775 105.43071 105.43071 252.391226 143.880258 388.203355 115.555096-107.189677-1.296516-213.991226-42.743742-295.779097-124.531612z" fill="#FBD9C8" p-id="37526"></path><path d="M493.534968 1020.482065c-252.88671 0-458.628129-205.741419-458.628129-458.62813S240.648258 103.225806 493.534968 103.225806s458.628129 205.741419 458.628129 458.628129-205.741419 458.628129-458.628129 458.62813z m0-851.183484c-216.460387 0-392.563613 176.103226-392.563613 392.563613s176.103226 392.563613 392.563613 392.563612 392.563613-176.103226 392.563613-392.563612-176.103226-392.563613-392.563613-392.563613z" fill="#EC661A" p-id="37527"></path><path d="M955.078194 290.370065a33.007484 33.007484 0 0 1-27.590194-14.814968C863.95871 179.480774 769.189161 106.28129 660.620387 69.458581a33.032258 33.032258 0 1 1 21.223226-62.563097c122.368 41.51329 229.177806 123.986581 300.750452 232.225032a33.032258 33.032258 0 0 1-27.515871 51.249549z" fill="#3C8492" p-id="37528"></path><path d="M955.078194 290.370065a33.007484 33.007484 0 0 1-27.590194-14.814968C863.95871 179.480774 769.189161 106.28129 660.620387 69.458581a33.032258 33.032258 0 1 1 21.223226-62.563097c122.368 41.51329 229.177806 123.986581 300.750452 232.225032a33.032258 33.032258 0 0 1-27.515871 51.249549z" fill="#3C8492" p-id="37529"></path><path d="M493.534968 693.437935c-39.308387 0-72.266323-30.72-75.032774-69.92929l-16.780388-238.129548a92.349935 92.349935 0 0 1 24.485162-69.219097 92.333419 92.333419 0 0 1 67.328-29.283097c25.443097 0 49.986065 10.669419 67.328 29.283097s26.268903 43.842065 24.485161 69.219097L568.567742 623.508645c-2.766452 39.20929-35.716129 69.92929-75.032774 69.92929z m0-340.504774c-7.283613 0-14.030452 2.931613-19.001807 8.266323s-7.424 12.263226-6.912 19.538581l16.780387 238.129548c0.338581 4.773161 4.343742 8.505806 9.125162 8.505806s8.794839-3.732645 9.125161-8.505806L519.432258 380.738065c0.512-7.258839-1.940645-14.203871-6.912-19.530323s-11.701677-8.274581-18.98529-8.274581z" fill="#EC661A" p-id="37530"></path></svg>