<?xml version="1.0" standalone="no"?><!DOCTYPE svg PUBLIC "-//W3C//DTD SVG 1.1//EN" "http://www.w3.org/Graphics/SVG/1.1/DTD/svg11.dtd"><svg t="1586005226023" class="icon" viewBox="0 0 1024 1024" version="1.1" xmlns="http://www.w3.org/2000/svg" p-id="85946" xmlns:xlink="http://www.w3.org/1999/xlink" width="128" height="128"><defs><style type="text/css"></style></defs><path d="M919.618 120.188m-63.968 0a63.968 63.968 0 1 0 127.936 0 63.968 63.968 0 1 0-127.936 0Z" fill="#94C1FF" p-id="85947"></path><path d="M871.64 120.188c0-32.586 24.458-59.19 55.972-63.166-2.654-0.336-5.264-0.804-7.996-0.804-35.326 0-63.968 28.642-63.968 63.97s28.642 63.97 63.968 63.97c2.732 0 5.342-0.468 7.996-0.804-31.514-3.976-55.972-30.58-55.972-63.166z" fill="#D7E9FF" p-id="85948"></path><path d="M967.594 120.188c0 32.586-24.458 59.19-55.972 63.166 2.654 0.336 5.264 0.804 7.996 0.804 35.326 0 63.968-28.642 63.968-63.97s-28.642-63.97-63.968-63.97c-2.732 0-5.342 0.468-7.996 0.804 31.514 3.976 55.972 30.58 55.972 63.166z" fill="#5C9EFF" p-id="85949"></path><path d="M951.602 136.18c0 8.838-10.728 15.992-23.988 15.992s-23.988-7.154-23.988-15.992 10.728-15.992 23.988-15.992 23.988 7.154 23.988 15.992zM967.594 767.814h-63.968c17.664 0 31.984-14.322 31.984-31.984 0-17.664-14.32-31.984-31.984-31.984h-63.968c17.662 0 31.984-14.322 31.984-31.984 0-17.664-14.322-31.986-31.984-31.986h-95.956c17.664 0 31.986-14.32 31.986-31.984 0-17.662-14.322-31.984-31.986-31.984h175.916c17.664 0 31.984-14.32 31.984-31.984s-14.32-31.984-31.984-31.984h-79.96c17.662 0 31.984-14.322 31.984-31.984 0-17.664-14.322-31.984-31.984-31.984h-31.984c17.662 0 31.984-14.322 31.984-31.984 0-17.664-14.322-31.986-31.984-31.986h159.922c17.664 0 31.984-14.322 31.984-31.984s-14.32-31.986-31.984-31.986h-63.968c17.664 0 31.984-14.32 31.984-31.984s-14.32-31.984-31.984-31.984H839.66c17.662 0 31.984-14.322 31.984-31.984 0-17.664-14.322-31.984-31.984-31.984h-47.98c17.662 0 31.984-14.322 31.984-31.984 0-17.664-14.322-31.986-31.984-31.986H311.91c-17.664 0-31.984 14.322-31.984 31.986 0 17.662 14.322 31.984 31.984 31.984H199.962c-17.664 0-31.984 14.32-31.984 31.984s14.322 31.984 31.984 31.984H167.978c-17.664 0-31.984 14.322-31.984 31.984 0 17.664 14.32 31.984 31.984 31.984h95.954c-17.662 0-31.984 14.322-31.984 31.986S246.27 384 263.932 384H88.016c-17.664 0-31.984 14.322-31.984 31.986 0 17.662 14.322 31.984 31.984 31.984h79.962c-17.664 0-31.984 14.32-31.984 31.984s14.32 31.984 31.984 31.984H88.016c-17.664 0-31.984 14.32-31.984 31.984s14.322 31.984 31.984 31.984H56.032c-17.664 0-31.986 14.322-31.986 31.984 0 17.664 14.322 31.984 31.986 31.984h79.962c-17.664 0-31.984 14.322-31.984 31.986 0 17.662 14.32 31.984 31.984 31.984H104.01c-17.664 0-31.986 14.32-31.986 31.984 0 17.662 14.322 31.984 31.986 31.984h159.922c-17.662 0-31.984 14.322-31.984 31.984 0 17.664 14.322 31.984 31.984 31.984H199.962c-17.664 0-31.984 14.322-31.984 31.986 0 17.662 14.322 31.984 31.984 31.984H743.7c17.664 0 31.986-14.322 31.986-31.984 0-17.664-14.322-31.986-31.986-31.986h223.892c17.664 0 31.984-14.32 31.984-31.984 0.002-17.66-14.318-31.982-31.982-31.982z" fill="#5C9EFF" p-id="85950"></path><path d="M215.956 887.79m-63.97 0a63.97 63.97 0 1 0 127.94 0 63.97 63.97 0 1 0-127.94 0Z" fill="#D7E9FF" p-id="85951"></path><path d="M167.978 887.79c0-32.578 24.458-59.192 55.972-63.158-2.654-0.344-5.262-0.812-7.996-0.812-35.326 0-63.968 28.642-63.968 63.97 0 35.326 28.642 63.968 63.968 63.968 2.734 0 5.342-0.468 7.996-0.812-31.514-3.968-55.972-30.578-55.972-63.156z" fill="#FFFFFF" p-id="85952"></path><path d="M263.338 887.79c0 32.578-24.458 59.19-55.974 63.156 2.656 0.344 5.264 0.812 7.996 0.812 35.328 0 63.97-28.642 63.97-63.968 0-35.328-28.642-63.97-63.97-63.97-2.732 0-5.34 0.468-7.996 0.812 31.518 3.966 55.974 30.578 55.974 63.158z" fill="#94C1FF" p-id="85953"></path><path d="M247.94 871.796a15.994 15.994 0 1 1-31.986-0.002 15.994 15.994 0 0 1 31.986 0.002zM807.672 511.938c0 163.39-132.454 295.858-295.86 295.858s-295.858-132.466-295.858-295.858c0-163.398 132.452-295.858 295.858-295.858s295.86 132.46 295.86 295.858z" fill="#94C1FF" p-id="85954"></path><path d="M665.176 436.294c-7.668 10.392 11.042 44.62 69.25 40.136 18.396-1.438-20.476 62.852-32.14 83.17-14.556 25.27-10.872 55.162-24.628 80.274-8.636 15.838-23.35 27.676-35.032 41.262-14.554 16.79-30.86 33.266-55.16 31.174-16.164-1.438-22.724-19.178-25.91-31.814-7.84-31.5-4.482-64.14-13.12-95.796-10.4-37.248-42.212-33.578-73.73-33.906-38.06-0.468-61.564-24.786-63-62.368-3.53-92.908 74.682-102.67 83.632-101.068 12.962 2.396 51.022 8.956 60.612 14.234 32.468 17.75 65.576-6.878 63.016-19.834-2.716-13.112-83.164-31.82-111.634-33.898-10.23-0.64-31.188 8.152-39.012-0.484-6.404-6.88-0.484-17.914 3.998-23.824 31.5-41.426 83.96-51.5 128.25-73.09 1.438-0.64 12.636-6.24 15.354-15.508 78.37 29.424 140.9 91.152 171.276 168.88-12.946 1.592-40.622 19.826-41.416 25.744-4.158 32.462-67.33-11.354-80.606 6.716z" fill="#D7E9FF" p-id="85955"></path><path d="M577.546 680.496c-7.84-31.5-4.482-64.14-13.118-95.796-10.402-37.248-41.418-45.774-72.936-46.102-38.058-0.484-62.36-12.59-63.796-50.172-2.858-75.3 47.96-95.97 72.09-100.256-1.608-0.296-3.232-0.584-4.45-0.812-8.95-1.602-87.162 8.16-83.632 101.068 1.436 37.582 24.942 61.898 63 62.368 31.516 0.328 63.33-3.342 73.73 33.906 8.636 31.656 5.28 64.296 13.12 95.796 3.186 12.636 9.746 30.376 25.91 31.814 4.45 0.39 8.542-0.032 12.494-0.782-13.556-3.544-19.474-19.38-22.412-31.032zM489.292 350.234c-1.922-0.594-3.686-1.422-4.982-2.858-6.402-6.88-1.264-18.6 3.998-23.824 40.168-39.84 79.836-47.9 124.128-69.49 1.108-0.492 12.148-7.584 16.492-13.416-4.344-1.876-8.558-4.022-13.01-5.694-2.716 9.27-13.916 14.868-15.354 15.508-44.29 21.59-96.75 31.664-128.25 73.09-4.482 5.912-10.402 16.944-3.998 23.824 4.328 4.772 12.652 4.196 20.976 2.86zM735.706 476.65c-0.438-0.062-0.748-0.258-1.28-0.218-0.688 0.054-1.296 0.032-1.984 0.078 1.062 0.07 2.172 0.094 3.264 0.14z" fill="#FFFFFF" p-id="85956"></path><path d="M310.958 569.66c15.508 22.55 31.812 53.584 23.504 81.898-3.514 12.15-11.51 21.894-20.958 30.046-2.232 1.938-26.066 19.99-28.626 19.99h-0.156c-42.854-51.318-68.764-117.538-68.764-189.658 0-20.31 2.078-40.136 6.076-59.33 16.148 8.956 50.538 64.766 59.486 77.244 9.446 13.274 20.16 26.222 29.438 39.81z" fill="#D7E9FF" p-id="85957"></path><path d="M279.924 511.938c0-152.584 115.522-278.108 263.872-294.062-10.51-1.132-21.176-1.796-31.984-1.796-163.406 0-295.858 132.458-295.858 295.858 0 163.39 132.452 295.858 295.858 295.858 10.808 0 21.474-0.654 31.984-1.794-148.348-15.948-263.872-141.482-263.872-294.064z" fill="#D7E9FF" p-id="85958"></path><path d="M218.704 550.202c0.78 6.058 1.608 12.12 2.764 18.052 0.734 3.826 1.67 7.558 2.56 11.34 1.218 5.214 2.5 10.416 3.998 15.524 1.14 3.934 2.42 7.792 3.732 11.65 1.64 4.81 3.358 9.588 5.232 14.29a285.984 285.984 0 0 0 4.764 11.322c2.06 4.654 4.294 9.2 6.606 13.712 1.796 3.53 3.576 7.058 5.498 10.494 2.67 4.732 5.528 9.324 8.434 13.884 1.888 2.982 3.702 5.998 5.684 8.886 3.874 5.638 8.012 11.056 12.26 16.398 1.282 1.608 2.454 3.326 3.764 4.92 0.28 0.328 0.578 0.61 0.842 0.92h0.032c2.562 0 26.394-18.052 28.626-19.99 4.342-3.748 8.324-7.872 11.76-12.384-25.878-41.104-41.652-89.066-44.542-140.526-9.962-14.258-42.948-67.358-58.69-76.088-4 19.194-6.076 39.02-6.076 59.33 0 9.644 0.546 19.162 1.438 28.58 0.33 3.266 0.892 6.452 1.314 9.686z" fill="#FFFFFF" p-id="85959"></path><path d="M743.702 511.938c0 152.582-115.522 278.118-263.874 294.062 10.51 1.14 21.178 1.794 31.984 1.794 163.406 0 295.86-132.466 295.86-295.858 0-163.398-132.454-295.858-295.86-295.858-10.806 0-21.474 0.664-31.984 1.796 148.352 15.956 263.874 141.48 263.874 294.064z" fill="#5C9EFF" p-id="85960"></path><path d="M734.91 441.41c5.808-1.108 9.916-4.42 10.87-11.832 0.794-5.894 28.236-23.98 41.244-25.698-0.294-0.734-0.53-1.5-0.81-2.234-2.748-6.84-5.874-13.478-9.106-20.06-1.266-2.568-2.388-5.208-3.732-7.738-3.452-6.55-7.308-12.854-11.228-19.1-1.422-2.258-2.67-4.624-4.154-6.834a293.712 293.712 0 0 0-16.476-22.294c-0.454-0.554-0.828-1.164-1.282-1.71a299.54 299.54 0 0 0-20.006-21.894c-2.216-2.196-4.638-4.154-6.902-6.28-4.966-4.622-9.934-9.23-15.198-13.508-2.936-2.374-6.058-4.512-9.072-6.786-4.936-3.694-9.856-7.386-15.01-10.776-3.294-2.164-6.746-4.116-10.134-6.154-5.186-3.116-10.4-6.192-15.79-8.996-3.514-1.828-7.138-3.484-10.728-5.17-5.544-2.608-11.152-5.124-16.868-7.378-1.562-0.618-3.156-1.14-4.732-1.726-2.858 9.09-13.806 14.586-15.228 15.22-2.67 1.304-5.434 2.46-8.168 3.678 70.388 39.536 122.814 106.878 142.51 187.27z" fill="#94C1FF" p-id="85961"></path><path d="M511.812 815.822c-167.544 0-303.854-136.308-303.854-303.854s136.31-303.854 303.854-303.854c167.544 0 303.856 136.308 303.856 303.854s-136.31 303.854-303.856 303.854z m0-591.714c-158.72 0-287.862 129.132-287.862 287.862 0 158.736 129.142 287.862 287.862 287.862 158.72 0 287.864-129.124 287.864-287.862 0-158.73-129.142-287.862-287.864-287.862z" fill="#116FFF" p-id="85962"></path><path d="M591.588 720.494c-1.594 0-3.202-0.078-4.842-0.218-15.976-1.406-27.066-14.134-32.954-37.858-3.888-15.742-5.124-31.718-6.308-47.196-1.282-16.804-2.5-32.672-6.842-48.352-7.386-26.708-26.642-28.066-57.458-28.082l-8.604-0.032c-42.104-0.482-69.264-27.314-70.856-70.012-1.75-46.666 16.618-72.754 32.328-86.42 22.816-19.858 52.224-24.27 60.72-22.778l2.67 0.476c26.114 4.654 51.492 9.644 60.376 14.54 19.79 10.9 36.828 2.116 41.606-0.828 7.386-4.576 9.652-9.338 9.606-10.47-6.262-7.684-73.98-25.176-104.294-27.37-2.5-0.196-6.856 0.624-11.104 1.39-11.182 2.006-25.112 4.514-33.264-4.49-7.498-8.23-6.154-21.262 3.514-33.992 24.316-32.046 60.018-46.196 94.562-59.878 12.26-4.864 24.958-9.884 36.702-15.602 3.248-1.584 9.778-5.84 11.166-10.58a7.96 7.96 0 0 1 9.918-5.428 7.996 7.996 0 0 1 5.42 9.926c-3.466 11.846-15.804 18.654-19.49 20.458-12.306 5.982-25.286 11.12-37.826 16.094-33.984 13.468-66.094 26.19-87.708 54.676-3.748 4.944-6.434 11.362-4.42 13.572 2.234 2.436 12.87 0.54 18.584-0.5 5.466-0.984 10.682-1.936 15.086-1.594 8.746 0.632 114.148 16.726 118.85 40.248 1.64 8.16-3.404 17.46-13.51 24.862-13.382 9.8-37.404 16.618-61.112 3.506-7.808-4.294-43.682-10.698-55.472-12.798l-2.67-0.476c-2.936-0.368-28.236 1.568-48.68 20.232-18.164 16.546-26.754 40.98-25.566 72.628 1.25 33.812 21.834 54.238 55.052 54.614l8.416 0.032c29.002 0.016 61.862 0.032 72.874 39.794 4.746 17.194 6.09 34.592 7.372 51.412 1.186 15.492 2.31 30.14 5.886 44.572 4.06 16.368 10.386 25.036 18.804 25.77 20.754 1.686 34.686-12.462 48.46-28.456 3.888-4.53 8.122-8.886 12.382-13.244 8.418-8.652 16.368-16.804 21.694-26.518 6.138-11.214 8.496-23.708 10.978-36.922 2.734-14.492 5.56-29.484 13.666-43.51l3.092-5.342c19.992-34.31 30.97-56.346 32.734-65.678-40.058 1.99-63.032-13.548-71.668-29.08-4.936-8.902-5.202-17.876-0.704-24.012 9.136-12.432 28.034-7.378 46.292-2.5 11.026 2.952 26.19 7.012 30.954 3.756 0.376-0.25 1.5-1 1.922-4.264 1.608-12.22 35.654-31.032 48.304-32.688 4.248-0.554 8.402 2.484 8.978 6.888a8.004 8.004 0 0 1-6.886 8.964c-10.01 1.32-30.938 15.086-34.702 20.022-1.328 7.902-5.42 12.166-8.7 14.36-10.884 7.294-26.956 2.976-44.01-1.592-9.292-2.484-26.55-7.13-29.268-3.476-0.282 0.616-0.218 3.99 2.936 8.596 7.34 10.73 26.708 21.326 59.27 18.828 4.902-0.422 9.042 1.592 11.432 5.396 6.356 10.144-1.688 30.68-33.062 84.536l-3.076 5.28c-6.73 11.666-9.184 24.676-11.776 38.466-2.624 13.882-5.326 28.22-12.682 41.652-6.374 11.62-15.476 20.958-24.27 29.984-4.014 4.124-8.028 8.214-11.698 12.526-14.348 16.656-31.684 34.18-57.124 34.18zM284.562 709.672c-0.11 0-0.204 0-0.312-0.016a8.344 8.344 0 0 1-5.636-2.906 8.014 8.014 0 0 1 1.014-11.276 7.998 7.998 0 0 1 3.544-1.688c4.966-2.794 22.692-16.18 25.114-18.256 9.746-8.262 15.79-16.836 18.554-26.222 5.81-19.772-1.766-45.042-22.52-75.15-5.232-7.592-10.886-15.042-16.524-22.474-4.342-5.714-8.668-11.416-12.792-17.164-1.842-2.576-4.762-6.988-8.402-12.468-11.198-16.898-37.436-56.49-48.462-62.416a8.002 8.002 0 0 1-3.264-10.832c2.078-3.896 6.934-5.334 10.824-3.256 13.446 7.23 34.17 37.396 54.24 67.67 3.482 5.262 6.294 9.512 8.058 11.97 4.044 5.646 8.292 11.236 12.54 16.828 5.794 7.636 11.588 15.274 16.946 23.082 23.958 34.732 32.032 63.75 24.692 88.708-3.608 12.306-11.51 23.708-23.488 33.86-0.188 0.172-26.146 22.006-34.126 22.006zM8.524 783.87c-4.42 0-8.074-3.576-8.074-7.996s3.498-7.996 7.902-7.996h0.172a8 8 0 0 1 7.996 7.996 8 8 0 0 1-7.996 7.996zM168.448 703.908c-4.42 0-8.074-3.576-8.074-7.996s3.498-7.996 7.902-7.996h0.172a8 8 0 0 1 7.996 7.996 8 8 0 0 1-7.996 7.996zM440.316 911.808c-4.42 0-8.074-3.578-8.074-7.996 0-4.42 3.498-7.996 7.902-7.996h0.172a8 8 0 0 1 7.996 7.996 8.002 8.002 0 0 1-7.996 7.996zM568.254 1023.754c-4.418 0-8.074-3.576-8.074-7.996s3.5-7.996 7.902-7.996h0.172a8 8 0 0 1 7.996 7.996 8 8 0 0 1-7.996 7.996zM840.124 975.778c-4.422 0-8.074-3.576-8.074-7.996s3.498-7.996 7.902-7.996h0.172c4.402 0 7.996 3.576 7.996 7.996a8 8 0 0 1-7.996 7.996zM712.186 863.832c-4.42 0-8.074-3.578-8.074-7.996 0-4.422 3.498-7.996 7.902-7.996h0.172a8 8 0 0 1 7.996 7.996 8.002 8.002 0 0 1-7.996 7.996zM968.062 448.032c-4.42 0-8.074-3.576-8.074-7.996s3.498-7.996 7.902-7.996h0.172a8 8 0 0 1 7.996 7.996 8 8 0 0 1-7.996 7.996zM616.232 128.184c-4.42 0-8.076-3.578-8.076-7.996 0-4.42 3.5-7.996 7.904-7.996h0.172a8 8 0 0 1 7.996 7.996 8 8 0 0 1-7.996 7.996zM856.118 288.108c-4.42 0-8.074-3.576-8.074-7.996s3.498-7.996 7.902-7.996h0.172c4.402 0 7.996 3.576 7.996 7.996s-3.594 7.996-7.996 7.996zM88.486 96.2c-4.42 0-8.074-3.576-8.074-7.996 0-4.418 3.5-7.996 7.902-7.996h0.172a8.002 8.002 0 0 1 7.996 7.996 8 8 0 0 1-7.996 7.996zM760.162 16.238c-4.42 0-8.074-3.576-8.074-7.996s3.498-7.996 7.902-7.996h0.172a8 8 0 0 1 7.996 7.996 8 8 0 0 1-7.996 7.996zM968.062 831.846c-4.42 0-8.074-3.576-8.074-7.996s3.498-7.996 7.902-7.996h0.172a8 8 0 0 1 7.996 7.996 8 8 0 0 1-7.996 7.996zM136.462 272.116c-4.42 0-8.074-3.576-8.074-7.996s3.498-7.996 7.902-7.996h0.172a8 8 0 0 1 7.996 7.996 8 8 0 0 1-7.996 7.996zM40.024 543.984a7.99 7.99 0 0 1-7.996-7.996V472.02a7.99 7.99 0 0 1 7.996-7.996 7.992 7.992 0 0 1 7.996 7.996v63.968a7.99 7.99 0 0 1-7.996 7.996z" fill="#116FFF" p-id="85963"></path><path d="M56.016 512H24.032c-4.418 0-7.996-3.576-7.996-7.996s3.578-7.996 7.996-7.996h31.986c4.42 0 7.996 3.576 7.996 7.996S60.436 512 56.016 512zM999.562 671.924a7.992 7.992 0 0 1-7.996-7.996v-63.97a7.994 7.994 0 0 1 7.996-7.996 7.992 7.992 0 0 1 7.996 7.996v63.97a7.99 7.99 0 0 1-7.996 7.996z" fill="#116FFF" p-id="85964"></path><path d="M1015.554 639.938h-31.984a7.99 7.99 0 0 1-7.996-7.996 7.992 7.992 0 0 1 7.996-7.996h31.984a7.992 7.992 0 0 1 7.996 7.996 7.99 7.99 0 0 1-7.996 7.996zM311.894 80.208a7.99 7.99 0 0 1-7.996-7.996V8.242c0-4.42 3.576-7.996 7.996-7.996s7.996 3.576 7.996 7.996v63.968a7.992 7.992 0 0 1-7.996 7.998z" fill="#116FFF" p-id="85965"></path><path d="M327.886 48.222h-31.984c-4.42 0-7.996-3.576-7.996-7.996s3.576-7.996 7.996-7.996h31.984c4.42 0 7.996 3.576 7.996 7.996s-3.576 7.996-7.996 7.996z" fill="#116FFF" p-id="85966"></path><path d="M216.44 927.77c-4.42 0-8.074-3.578-8.074-7.996 0-4.42 3.498-7.996 7.902-7.996h0.172a8 8 0 0 1 7.996 7.996 8.002 8.002 0 0 1-7.996 7.996zM184.456 895.786c-4.42 0-8.074-3.578-8.074-7.996 0-4.42 3.498-7.996 7.902-7.996h0.172a8 8 0 0 1 7.996 7.996 8.002 8.002 0 0 1-7.996 7.996z" fill="#116FFF" p-id="85967"></path><path d="M215.956 959.754c-39.684 0-71.964-32.282-71.964-71.964 0-39.686 32.282-71.966 71.964-71.966s71.966 32.282 71.966 71.966c-0.002 39.682-32.284 71.964-71.966 71.964z m0-127.94c-30.86 0-55.972 25.114-55.972 55.974 0 30.86 25.114 55.972 55.972 55.972 30.86 0 55.972-25.114 55.972-55.972 0-30.86-25.112-55.974-55.972-55.974z" fill="#116FFF" p-id="85968"></path><path d="M231.948 895.786c-13.228 0-23.988-10.762-23.988-23.988 0-13.228 10.76-23.988 23.988-23.988s23.988 10.76 23.988 23.988c0 13.226-10.76 23.988-23.988 23.988z m0-31.986a8.01 8.01 0 0 0-7.996 7.996c0 4.402 3.592 7.996 7.996 7.996s7.996-3.594 7.996-7.996a8.01 8.01 0 0 0-7.996-7.996z" fill="#116FFF" p-id="85969"></path><path d="M919.618 192.124c-39.684 0-71.964-32.282-71.964-71.966s32.282-71.966 71.964-71.966 71.964 32.282 71.964 71.966-32.282 71.966-71.964 71.966z m0-127.94c-30.86 0-55.972 25.114-55.972 55.974s25.114 55.974 55.972 55.974 55.972-25.114 55.972-55.974-25.114-55.974-55.972-55.974z" fill="#116FFF" p-id="85970"></path><path d="M903.624 96.168h-39.402a7.99 7.99 0 0 1-7.996-7.996 7.992 7.992 0 0 1 7.996-7.996h39.402a7.992 7.992 0 0 1 7.996 7.996 7.99 7.99 0 0 1-7.996 7.996z" fill="#116FFF" p-id="85971"></path><path d="M927.614 160.138c-17.93 0-31.984-10.534-31.984-23.988s14.054-23.988 31.984-23.988 31.984 10.534 31.984 23.988-14.056 23.988-31.984 23.988z m0-31.984c-9.762 0-15.992 4.732-15.992 7.996s6.23 7.996 15.992 7.996 15.992-4.732 15.992-7.996-6.23-7.996-15.992-7.996z" fill="#116FFF" p-id="85972"></path></svg>