<?xml version="1.0" standalone="no"?><!DOCTYPE svg PUBLIC "-//W3C//DTD SVG 1.1//EN" "http://www.w3.org/Graphics/SVG/1.1/DTD/svg11.dtd"><svg t="1584239289387" class="icon" viewBox="0 0 1024 1024" version="1.1" xmlns="http://www.w3.org/2000/svg" p-id="12010" xmlns:xlink="http://www.w3.org/1999/xlink" width="128" height="128"><defs><style type="text/css"></style></defs><path d="M524.274243 86.973883L21.411662 593.966254a43.900702 43.900702 0 0 0 0 62.050952l355.127176 355.109824a43.865997 43.865997 0 0 0 62.050952 0L928.230105 508.281801V86.973883H524.274243zM754.709545 329.902666a69.408224 69.408224 0 1 1 0-138.816447 69.408224 69.408224 0 0 1 0 138.816447z" fill="#E8D5B2" p-id="12011"></path><path d="M754.709545 121.677995a138.816447 138.816447 0 1 0 0 277.632895 138.816447 138.816447 0 0 0 0-277.632895z m0 208.224671a69.408224 69.408224 0 1 1 0-138.816447 69.408224 69.408224 0 0 1 0 138.816447z" fill="#CBB292" p-id="12012"></path><path d="M754.709545 277.846499a17.334704 17.334704 0 0 1-12.267903-29.61996l242.928783-242.928783a17.334704 17.334704 0 1 1 24.535807 24.535807l-242.928783 242.928783A17.3 17.3 0 0 1 754.709545 277.846499" fill="#D75A4A" p-id="12013"></path><path d="M401.577855 898.911285a17.352056 17.352056 0 0 1-12.267903-29.61996L573.380561 685.25542a17.334704 17.334704 0 1 1 24.535807 24.535807L413.845759 893.827132a17.3 17.3 0 0 1-12.267904 5.084153M646.953278 653.501158c-4.511535 0-9.040421-1.891374-12.31996-5.032097a18.098194 18.098194 0 0 1-5.032096-12.319959c0-4.494182 1.891374-9.005717 5.032096-12.302608 6.420261-6.437613 18.393179-6.437613 24.63992 0a17.594985 17.594985 0 0 1 0 24.622567c-3.140722 3.140722-7.634905 5.032096-12.31996 5.032097M291.166723 665.786413a17.334704 17.334704 0 0 1-12.267903-29.619959l184.035905-184.053258a17.352056 17.352056 0 1 1 24.553159 24.535807L303.434627 660.702261a17.230592 17.230592 0 0 1-12.267904 5.084152M438.398918 690.339572a17.352056 17.352056 0 0 1-12.250552-29.637311l122.696388-122.696388a17.352056 17.352056 0 0 1 24.535807 24.535807l-122.696388 122.71374a17.369408 17.369408 0 0 1-12.285255 5.084152M315.70253 813.03596a17.334704 17.334704 0 0 1-12.267903-29.61996l24.535807-24.553159a17.334704 17.334704 0 1 1 24.535807 24.535807l-24.535807 24.553159a17.3 17.3 0 0 1-12.267904 5.084153M143.934529 641.233254a17.334704 17.334704 0 0 1-12.267904-29.619959L315.70253 427.577389a17.334704 17.334704 0 1 1 24.535807 24.535807L156.202432 636.149102a17.265296 17.265296 0 0 1-12.267903 5.084152M389.275247 395.840479c-4.511535 0-9.023069-1.926078-12.337311-5.032096a18.341123 18.341123 0 0 1-5.014744-12.31996 17.352056 17.352056 0 0 1 5.205616-12.31996c6.24674-6.420261 18.046138-6.420261 24.449047 0a17.525576 17.525576 0 0 1 0 24.63992c-3.279539 3.106018-7.617553 5.032096-12.302608 5.032096M242.129813 714.944788a17.352056 17.352056 0 0 1-12.31996-5.205617 16.79679 16.79679 0 0 1-5.032096-12.163791c0-4.667703 1.735206-9.179238 5.032096-12.31996 6.420261-6.420261 18.046138-6.420261 24.466399 0 3.296891 3.314243 5.205617 7.652257 5.205617 12.31996 0 4.528887-1.908726 8.866901-5.032096 12.163791-3.314243 3.296891-7.808425 5.205617-12.31996 5.205617M389.275247 739.411186c-4.511535 0-9.023069-1.908726-12.337311-5.032096a18.341123 18.341123 0 0 1-5.014744-12.319959c0-4.511535 1.908726-9.023069 5.014744-12.31996 6.437613-6.420261 18.237011-6.420261 24.639919 0 3.314243 3.296891 5.049448 7.808425 5.049448 12.31996 0 4.494182-1.735206 9.023069-5.049448 12.319959-3.279539 3.12337-7.617553 5.032096-12.302608 5.032096" fill="#CBB292" p-id="12014"></path></svg>