<?xml version="1.0" standalone="no"?><!DOCTYPE svg PUBLIC "-//W3C//DTD SVG 1.1//EN" "http://www.w3.org/Graphics/SVG/1.1/DTD/svg11.dtd"><svg t="1586007689737" class="icon" viewBox="0 0 1024 1024" version="1.1" xmlns="http://www.w3.org/2000/svg" p-id="137811" xmlns:xlink="http://www.w3.org/1999/xlink" width="128" height="128"><defs><style type="text/css"></style></defs><path d="M228.264 872.368a208.216 208.216 0 0 0 231.976 55.064 136.656 136.656 0 0 1 88.36-3.92 256.872 256.872 0 0 0 312.472-336.944 135.808 135.808 0 0 1 9.992-116.144 194.352 194.352 0 1 0-361-72.104 65.328 65.328 0 0 1-29.064 63.224q-2.504 1.632-4.96 3.312a86.016 86.016 0 0 1-106.928-10.344 138.832 138.832 0 0 0-205 17.808 138.696 138.696 0 0 0-8.8 154.72 148.416 148.416 0 0 1 20.96 88.672 207.584 207.584 0 0 0 51.992 156.656z" fill="#ABDBF5" opacity=".5" p-id="137812"></path><path d="M248 176m-152 0a152 152 0 1 0 304 0 152 152 0 1 0-304 0Z" fill="#CEE2EE" opacity=".65" p-id="137813"></path><path d="M248 304a151.92 151.92 0 0 1-151.392-140c-0.32 3.968-0.608 7.952-0.608 12a152 152 0 0 0 304 0c0-4.048-0.296-8.032-0.608-12A151.92 151.92 0 0 1 248 304z" fill="#7595B5" opacity=".15" p-id="137814"></path><path d="M248 48a151.92 151.92 0 0 1 151.392 140c0.32-3.968 0.608-7.952 0.608-12a152 152 0 0 0-304 0c0 4.048 0.296 8.032 0.608 12A151.92 151.92 0 0 1 248 48z" fill="#FFFFFF" opacity=".5" p-id="137815"></path><path d="M168 336a8 8 0 0 1-7.68-5.792l-0.32-1.104a85.88 85.88 0 0 0-23.104-37.968A158.688 158.688 0 0 1 88 176a165.328 165.328 0 0 1 1.04-18.424A159.768 159.768 0 0 1 234 16.592l2.216-0.168a8 8 0 1 1 1.16 15.96l-2.032 0.16A143.728 143.728 0 0 0 104.936 159.36 149.344 149.344 0 0 0 104 176a142.816 142.816 0 0 0 44 103.616 101.904 101.904 0 0 1 27.376 45.08l0.312 1.096a7.992 7.992 0 0 1-5.48 9.896 7.88 7.88 0 0 1-2.208 0.32zM299.752 41.04a8 8 0 0 1-2.72-0.48 143.392 143.392 0 0 0-29.376-7.232 8 8 0 0 1 2.16-15.848 159.44 159.44 0 0 1 32.656 8.032 8 8 0 0 1-2.72 15.528zM248 336a159.264 159.264 0 0 1-58.952-11.208 8 8 0 1 1 5.904-14.88 145.24 145.24 0 0 0 83.376 6.888 8 8 0 1 1 3.344 15.648A161.168 161.168 0 0 1 248 336z" fill="#647FA1" opacity=".65" p-id="137816"></path><path d="M248 176m-120 0a120 120 0 1 0 240 0 120 120 0 1 0-240 0Z" fill="#FFFFFF" opacity=".65" p-id="137817"></path><path d="M248 86.88a8 8 0 0 1-5.68-2.4 7.6 7.6 0 0 1-2.32-5.6 8.256 8.256 0 0 1 2.32-5.68 8.376 8.376 0 0 1 11.36 0 8.272 8.272 0 0 1 2.32 5.68 7.616 7.616 0 0 1-2.32 5.6 8 8 0 0 1-5.68 2.4zM248 281.12a7.92 7.92 0 0 1-8-8 8.056 8.056 0 0 1 2.32-5.6 8.216 8.216 0 0 1 11.36 0 8.08 8.08 0 0 1 2.32 5.6 7.92 7.92 0 0 1-8 8zM345.12 184a7.728 7.728 0 0 1-5.6-2.32 8 8 0 0 1-2.4-5.68 8.136 8.136 0 0 1 2.4-5.68 8.272 8.272 0 0 1 11.28 0 8.032 8.032 0 0 1 2.32 5.68 7.92 7.92 0 0 1-8 8zM150.88 184a7.92 7.92 0 0 1-8-8 8.048 8.048 0 0 1 2.32-5.68 8.272 8.272 0 0 1 11.28 0 8.128 8.128 0 0 1 2.4 5.68 8 8 0 0 1-2.4 5.68 7.888 7.888 0 0 1-5.6 2.32zM248 195.432A19.432 19.432 0 1 1 267.432 176 19.448 19.448 0 0 1 248 195.432z m0-22.864a3.432 3.432 0 1 0 3.432 3.432 3.44 3.44 0 0 0-3.432-3.432z" fill="#647FA1" opacity=".65" p-id="137818"></path><path d="M248 172.568a8 8 0 0 1-8-8V107.44a8 8 0 0 1 16 0v57.136a8 8 0 0 1-8 8z" fill="#647FA1" opacity=".65" p-id="137819"></path><path d="M310.856 184h-51.424a8 8 0 0 1 0-16h51.424a8 8 0 0 1 0 16z" fill="#647FA1" opacity=".65" p-id="137820"></path><path d="M896 672.008H768V495.984a64 64 0 0 1 64-64 64 64 0 0 1 64 64z" fill="#B3E1E8" opacity=".65" p-id="137821"></path><path d="M848.008 434.08a63.912 63.912 0 0 0-16-2.096 64 64 0 0 0-64 64v176.024h32V495.984a63.968 63.968 0 0 1 48-61.904z" fill="#FFFFFF" opacity=".5" p-id="137822"></path><path d="M894.792 840.016H769.216a16 16 0 0 1-15.712-12.976L736 736.016h192.008l-17.504 91.024a16 16 0 0 1-15.712 12.976z" fill="#CEE2EE" opacity=".65" p-id="137823"></path><path d="M807.992 840.024h-23.984l-16-104.008h23.984l16 104.008z" fill="#FFFFFF" opacity=".5" p-id="137824"></path><path d="M923.392 760.016l4.616-24H736l4.616 24h182.776z" fill="#6D90AA" opacity=".3" p-id="137825"></path><path d="M720 672.008h224.008v64.008H720z" fill="#CEE2EE" opacity=".65" p-id="137826"></path><path d="M760.008 672.008H784v64.008h-23.992z" fill="#FFFFFF" opacity=".5" p-id="137827"></path><path d="M894.8 848.016H856a8 8 0 0 1 0-16h38.8a8.016 8.016 0 0 0 7.848-6.488l12.896-67.04a8 8 0 0 1 15.712 3.024l-12.896 67.04a24.032 24.032 0 0 1-23.568 19.464zM944.008 744.016H864a8 8 0 0 1 0-16h72.008v-48.008H872a8 8 0 0 1 0-16h72.008a8 8 0 0 1 8 8v64.008a8 8 0 0 1-8 8z" fill="#647FA1" opacity=".65" p-id="137828"></path><path d="M735.992 552V584a16 16 0 0 0 16 16h8A16 16 0 0 1 776 616a16 16 0 0 1-16 16h-8a48 48 0 0 1-48-48V552A16 16 0 0 1 720 536a16 16 0 0 1 15.992 16z" fill="#B3E1E8" opacity=".65" p-id="137829"></path><path d="M768 640.008h-16a56.064 56.064 0 0 1-56-56V552a24 24 0 1 1 47.992 0v32.016a8 8 0 0 0 8 7.992h9.128a8 8 0 1 1 0 16h-9.136a24.024 24.024 0 0 1-24-24V552A8 8 0 1 0 712 552V584a40.048 40.048 0 0 0 40 40h16a8 8 0 0 1 0 16z" fill="#647FA1" opacity=".65" p-id="137830"></path><path d="M944.008 535.992v24a16 16 0 0 1-16 16H888a24 24 0 0 0-24 24V600a24 24 0 0 0 24 24h40a64 64 0 0 0 64-64V536a24 24 0 0 0-24-24 24 24 0 0 0-23.992 24z" fill="#B3E1E8" opacity=".65" p-id="137831"></path><path d="M896 600a24 24 0 0 1 24-24h-32a24 24 0 0 0-24 24 24 24 0 0 0 24 24h32a24 24 0 0 1-24-24z" fill="#FFFFFF" opacity=".5" p-id="137832"></path><path d="M896 680.008a8 8 0 0 1-8-8V648a8 8 0 0 1 16 0v24.008a8 8 0 0 1-8 8zM896 552a8 8 0 0 1-8-8v-1.168a8 8 0 0 1 16 0V544a8 8 0 0 1-8 8z m0-33.168a8 8 0 0 1-8-8v-14.848a56.528 56.528 0 0 0-1.984-14.84 8 8 0 1 1 15.44-4.216 72.304 72.304 0 0 1 2.552 19.048v14.848a8 8 0 0 1-8 8zM768.008 512a8 8 0 0 1-8-8v-8.016a72 72 0 0 1 123.8-50.008 8 8 0 1 1-11.504 11.12A56 56 0 0 0 776 495.984V504a8 8 0 0 1-8 8z" fill="#647FA1" opacity=".65" p-id="137833"></path><path d="M928 632h-40a32 32 0 0 1 0-64h40.008a8.008 8.008 0 0 0 8-8v-24.008a32 32 0 0 1 62.72-8.968 8 8 0 0 1-15.36 4.48 16 16 0 0 0-31.36 4.48V560a24.024 24.024 0 0 1-24 24H888a16 16 0 0 0 0 32h40a55.864 55.864 0 0 0 29.416-8.336 8 8 0 1 1 8.416 13.616A71.856 71.856 0 0 1 928 632z m55.6-32.304a8 8 0 0 1-6.936-11.968 56 56 0 0 0 7.32-26.704 8.08 8.08 0 0 1 8.152-7.856 8 8 0 0 1 7.848 8.144 72.048 72.048 0 0 1-9.424 34.352 8 8 0 0 1-6.96 4.032zM830 154a7.976 7.976 0 0 1-5.656-2.344l-34-34a8 8 0 0 1 0-11.312l34-34a8 8 0 0 1 11.312 0l34 34a8 8 0 0 1 0 11.312l-34 34a7.976 7.976 0 0 1-5.656 2.344zM807.312 112l22.688 22.688L852.688 112l-22.688-22.688zM110 876a7.976 7.976 0 0 1-5.656-2.344l-22-22a8 8 0 0 1 0-11.312l22-22a8 8 0 0 1 11.312 0l22 22a8 8 0 0 1 0 11.312l-22 22a7.976 7.976 0 0 1-5.656 2.344z m-10.688-30l10.688 10.688 10.688-10.688-10.688-10.688zM944 384a8 8 0 0 1-8-8v-48a8 8 0 0 1 16 0v48a8 8 0 0 1-8 8z" fill="#647FA1" opacity=".65" p-id="137834"></path><path d="M968 360h-48a8 8 0 0 1 0-16h48a8 8 0 0 1 0 16zM248 432a8 8 0 0 1-8-8v-8a8 8 0 0 1 16 0v8a8 8 0 0 1-8 8zM248 472a8 8 0 0 1-8-8v-8a8 8 0 0 1 16 0v8a8 8 0 0 1-8 8zM232 448h-8a8 8 0 0 1 0-16h8a8 8 0 0 1 0 16zM272 448h-8a8 8 0 0 1 0-16h8a8 8 0 0 1 0 16zM48 608a8 8 0 0 1-8-8v-8a8 8 0 0 1 16 0v8a8 8 0 0 1-8 8zM48 648a8 8 0 0 1-8-8v-8a8 8 0 0 1 16 0v8a8 8 0 0 1-8 8zM32 624H24a8 8 0 0 1 0-16h8a8 8 0 0 1 0 16zM72 624H64a8 8 0 0 1 0-16h8a8 8 0 0 1 0 16z" fill="#647FA1" opacity=".65" p-id="137835"></path><path d="M669.04 513.92S622.416 494.944 624 496c-14.768 32-72 48-112 59.36-39.824-11.312-101.16-27.464-111.824-58.944l-43.424 18.144A176.984 176.984 0 0 0 248 677.864V736h528v-59.544A176.984 176.984 0 0 0 669.04 513.92z" fill="#7FD4E3" p-id="137836"></path><path d="M353.48 525.392c17.6 45.44 86.536 84.032 158.48 84.032 74.304 0 138.944-40.8 160.04-88.52v-5.584c-1-0.448-1.944-0.968-2.96-1.4 0 0-46.632-18.976-45.04-17.92-14.768 32-72 48-112 59.36-39.824-11.312-101.16-27.464-111.824-58.944l-43.424 18.144c-1.152 0.48-2.24 1.056-3.36 1.56z" fill="#B3E1E8" p-id="137837"></path><path d="M669.04 513.92S622.416 494.944 624 496c-14.768 32-64 59.36-112 59.36s-101.16-27.464-111.824-58.944l-43.424 18.144A176.984 176.984 0 0 0 248 677.864v32C248 640 304 544 392 528c10.664 31.48 72 59.36 120 59.36S617.232 560 632 528c88 24 144 109.784 144 180.456v-32A176.984 176.984 0 0 0 669.04 513.92z" fill="#FFFFFF" opacity=".3" p-id="137838"></path><path d="M672 744a8 8 0 0 1-8-8V656a8 8 0 0 1 16 0v80a8 8 0 0 1-8 8zM352 744a8 8 0 0 1-8-8V656a8 8 0 0 1 16 0v80a8 8 0 0 1-8 8zM669.04 521.92a7.96 7.96 0 0 1-3.16-0.656l-45.104-19.432a8 8 0 0 1 6.328-14.696l45.104 19.44a8 8 0 0 1-3.168 15.344zM776 744a8 8 0 0 1-8-8v-59.544a169.616 169.616 0 0 0-53.472-123.344 8 8 0 0 1 10.936-11.68A185.68 185.68 0 0 1 784 676.456V736a8 8 0 0 1-8 8zM248 744a8 8 0 0 1-8-8v-58.136a184.936 184.936 0 0 1 113.672-170.688l43.24-18.072a8 8 0 0 1 6.176 14.768l-43.256 18.08A168.928 168.928 0 0 0 256 677.856V736a8 8 0 0 1-8 8z" fill="#647FA1" p-id="137839"></path><path d="M604.928 443.6c-10.4 23.76 4.96 43.04 19.072 52.4-14.768 32-72 48-112 59.36C472 544 410.24 527.76 400 496c13.728-8.24 29.712-28.24 18.824-52.4z" fill="#B3E1E8" p-id="137840"></path><path d="M604.928 443.6H418.824a38.872 38.872 0 0 1-9.424 44.976l24.224 20.496A80 80 0 0 0 485.304 528h53.384a80 80 0 0 0 51.68-18.928l24.424-20.672a39.016 39.016 0 0 1-9.864-44.8z" fill="#6D90AA" opacity=".3" p-id="137841"></path><path d="M512 563.36c-54.408 0-108.064-29.12-119.616-64.904a8 8 0 0 1 3.496-9.312 37.856 37.856 0 0 0 3.624-2.48 8 8 0 0 1 10.288 12.24C422.936 525.672 467.744 547.36 512 547.36c47.984 0 86.664-24.344 101.712-49.064q-1.664-1.392-3.24-2.888a8 8 0 0 1 11.032-11.6 50.608 50.608 0 0 0 6.912 5.52 8 8 0 0 1 2.848 10.024c-17.112 37.088-67.272 64-119.264 64z" fill="#647FA1" p-id="137842"></path><path d="M512 563.424a8 8 0 0 1-8-8V506a8 8 0 0 1 16 0v49.424a8 8 0 0 1-8 8zM478.496 558.104a8 8 0 0 1-7.376-11.104 84.608 84.608 0 0 0 5.984-40.656 8 8 0 1 1 15.984-0.688 100.992 100.992 0 0 1-7.216 47.552 8.008 8.008 0 0 1-7.376 4.896zM448.896 548.104a8 8 0 0 1-5.48-13.824c5.84-5.496 7.576-12.544 8.08-32.776a7.88 7.88 0 0 1 8.2-7.8 8 8 0 0 1 7.8 8.192c-0.48 19-1.696 33.28-13.12 44.032a7.968 7.968 0 0 1-5.48 2.176zM419.8 529.2a8 8 0 0 1-5.472-13.84l1.496-1.392a32.976 32.976 0 0 0 13.04-24.368 8 8 0 1 1 15.856 2.2 48.192 48.192 0 0 1-18 33.888l-1.448 1.344a7.968 7.968 0 0 1-5.472 2.16zM545.536 558.104a8.008 8.008 0 0 1-7.376-4.896 101.024 101.024 0 0 1-7.216-47.552 8.104 8.104 0 0 1 8.344-7.648 8 8 0 0 1 7.64 8.336 84.64 84.64 0 0 0 5.984 40.656 8 8 0 0 1-7.376 11.104zM575.936 547.304a7.968 7.968 0 0 1-5.48-2.176c-11.056-10.4-13.416-23.216-13.92-43.232a8 8 0 1 1 16-0.4c0.456 18.536 2.536 26 8.88 31.984a8 8 0 0 1-5.48 13.824zM603.44 528.4a7.968 7.968 0 0 1-5.472-2.16l-1.504-1.408a45.928 45.928 0 0 1-17.152-33.032 8 8 0 0 1 15.856-2.2 30.768 30.768 0 0 0 12.184 23.512l1.56 1.448a8 8 0 0 1-5.472 13.84z" fill="#647FA1" opacity=".5" p-id="137843"></path><path d="M604.928 443.6H418.824a36.776 36.776 0 0 1 0.152 31.384l11.56 11.552A86.936 86.936 0 0 0 492 512h39.976a86.936 86.936 0 0 0 61.472-25.464l11.68-11.664a36.528 36.528 0 0 1-0.208-31.272z" fill="#CC7E54" opacity=".3" p-id="137844"></path><path d="M531.984 480h-39.976a86.936 86.936 0 0 1-61.472-25.464l-53.08-53.072A86.936 86.936 0 0 1 352 339.992V183A95 95 0 0 1 447 88h130A95 95 0 0 1 672 183V340a86.936 86.936 0 0 1-25.464 61.472l-53.08 53.072A86.936 86.936 0 0 1 531.984 480z" fill="#F9E2DC" p-id="137845"></path><path d="M672 227.12v-44.12A95 95 0 0 0 576.992 88h-130A95 95 0 0 0 352 183v27.936C368 192 384 176 392 152c88 56 200 26.936 253.224 32.672 22.224 2.4 26.192 28.928 26.776 42.44z" fill="#CC545E" opacity=".15" p-id="137846"></path><path d="M672 320v71.76a52.28 52.28 0 0 1-18.512 39.904l-63.12 53.408A80 80 0 0 1 538.688 504h-53.384a80 80 0 0 1-51.68-18.928l-63.12-53.408A52.28 52.28 0 0 1 352 391.752V320l49.112 55.248a23.136 23.136 0 0 0 32.104 2.4l11.608-9.672A68.928 68.928 0 0 1 488.96 352h46.088a68.928 68.928 0 0 1 44.128 15.976l11.616 9.68a23.136 23.136 0 0 0 32.104-2.4z" fill="#D6BAC0" p-id="137847"></path><path d="M653.488 399.664l-63.12 53.408A80 80 0 0 1 538.688 472h-53.384a80 80 0 0 1-51.68-18.928l-63.12-53.408A52.28 52.28 0 0 1 352 359.752v32a52.28 52.28 0 0 0 18.504 39.912l63.12 53.408A80 80 0 0 0 485.304 504h53.384a80 80 0 0 0 51.68-18.928l63.12-53.408A52.28 52.28 0 0 0 672 391.752v-32a52.28 52.28 0 0 1-18.512 39.912z" fill="#CC545E" opacity=".15" p-id="137848"></path><path d="M622.88 375.248a23.136 23.136 0 0 1-32.096 2.4l-11.616-9.672A68.928 68.928 0 0 0 535.04 352h-46.08a68.928 68.928 0 0 0-44.136 15.976l-11.616 9.68a23.136 23.136 0 0 1-32.096-2.4L351.992 320v24l49.12 55.248a23.136 23.136 0 0 0 32.096 2.4l11.616-9.672A68.928 68.928 0 0 1 488.96 376h46.088a68.928 68.928 0 0 1 44.128 15.976l11.616 9.68a23.136 23.136 0 0 0 32.104-2.4L672 344v-24z" fill="#FFFFFF" opacity=".3" p-id="137849"></path><path d="M538.688 512h-53.384a88.104 88.104 0 0 1-56.848-20.824l-26.256-22.216a8 8 0 0 1 10.336-12.216l26.256 22.224A72.096 72.096 0 0 0 485.304 496h53.384a72.096 72.096 0 0 0 46.512-17.04l63.12-53.408A44.208 44.208 0 0 0 664 391.76v-50.72l-35.136 39.536a31.904 31.904 0 0 1-42.24 4 8 8 0 1 1 9.744-12.688 15.52 15.52 0 0 0 20.536-1.944l49.112-55.256A8 8 0 0 1 680 320v71.76a60.16 60.16 0 0 1-21.344 46l-63.12 53.416A88.104 88.104 0 0 1 538.688 512z m-155.76-61.816a7.968 7.968 0 0 1-5.16-1.896l-12.432-10.52a60.056 60.056 0 0 1-11.88-13.592 8 8 0 1 1 13.496-8.6 44.104 44.104 0 0 0 8.72 9.976l12.432 10.528a8 8 0 0 1-5.168 14.104zM352 397.448a8 8 0 0 1-8-8V320a8 8 0 0 1 13.976-5.32l49.12 55.256a15.552 15.552 0 0 0 20.992 1.568l11.616-9.672A77.048 77.048 0 0 1 488.952 344h46.08a77.304 77.304 0 0 1 34.376 8.104 8 8 0 1 1-7.152 14.312A61.248 61.248 0 0 0 535.04 360h-46.08a61.04 61.04 0 0 0-39.016 14.12l-11.616 9.68a31.12 31.12 0 0 1-43.2-3.232L360 341.04v48.408a8 8 0 0 1-8 8z" fill="#AB74A3" p-id="137850"></path><path d="M616 40c56.808 26.28 96 56 74.752 160C687.776 214.56 672 208 672 208s3.144-47.04-26.776-50.264C592 152 464 184 376 112c0 32-8 48-24 72 0 0-22.24-0.096-24-16-8-72 16-104 48-96C456-8 587.6 26.864 616 40z" fill="#D6BAC0" p-id="137851"></path><path d="M376 102.52c80-80 211.6-45.136 240-32 42.424 19.632 74.984 41.2 79.928 94.16C702.008 88.704 665.776 63.016 616 40c-28.4-13.136-160-48-240 32-30.432-7.608-53.568 21.04-48.888 85.784 3.64-43.04 23.76-61.544 48.88-55.264z" fill="#FFFFFF" opacity=".3" p-id="137852"></path><path d="M679.584 217.48a30.24 30.24 0 0 1-10.656-2.088 8.016 8.016 0 0 1-4.92-7.904c0.008-0.12 0.08-1.328 0.08-3.28 0-8.536-1.416-36.544-19.72-38.52a389.344 389.344 0 0 0-50.784 0.592 1370.4 1370.4 0 0 1-35.512 1.504 8 8 0 0 1-0.408-16c12.32-0.32 24.112-0.92 35.104-1.48a393.384 393.384 0 0 1 53.32-0.52c20.672 2.224 33.256 21.472 33.968 51.68 1.616-0.048 2.328-0.488 2.856-3.064a253.08 253.08 0 0 0 5.696-49.728c0-34.56-10.288-58.224-33.368-76.72a8 8 0 1 1 10-12.488c26.864 21.528 39.376 49.88 39.368 89.2a264.992 264.992 0 0 1-6.016 52.944 18.528 18.528 0 0 1-19.008 15.872z m-344.984-30.536a7.976 7.976 0 0 1-4.592-1.448 22.92 22.92 0 0 1-9.96-16.616 248.096 248.096 0 0 1-1.6-27.2c0-58.16 24.904-78.88 48.216-78.88a44.648 44.648 0 0 1 6.768 0.528 169.632 169.632 0 0 1 30.496-23.032A8 8 0 0 1 412.08 54.08a153.808 153.808 0 0 0-30.416 23.584 7.992 7.992 0 0 1-7.6 2.104 30.592 30.592 0 0 0-7.392-0.96c-19.872 0-32.216 24.096-32.216 62.88a232.376 232.376 0 0 0 1.496 25.44 7 7 0 0 0 3.256 5.28 8 8 0 0 1-4.6 14.544z m24.768-6.464a8 8 0 0 1-6.832-12.144 100.688 100.688 0 0 0 12.128-27.008 8 8 0 0 1 15.456 4.136 117.216 117.216 0 0 1-13.896 31.152 8 8 0 0 1-6.856 3.864z m166.504-12.688h-0.24c-66.48-1.984-115.568-17.68-154.464-49.416a8 8 0 0 1 10.104-12.4c36.032 29.392 82.056 43.952 144.832 45.824a8 8 0 0 1-0.24 16z m107.44-111.288a7.936 7.936 0 0 1-3.72-0.928c-5.424-2.856-11.096-5.6-16.96-8.32a113.216 113.216 0 0 0-11.04-4.256 8 8 0 1 1 5.12-15.168 132.336 132.336 0 0 1 12.632 4.904c6.128 2.832 12.048 5.704 17.712 8.696a8 8 0 0 1-3.736 15.072zM438.32 39.064a46.016 46.016 0 0 1-26.968-8.56 8 8 0 0 1 9.312-13.008 31.424 31.424 0 0 0 26.768 4.28 274.456 274.456 0 0 1 127.392-2.368 8 8 0 1 1-3.2 15.68 297.104 297.104 0 0 0-58.392-6.016 223.84 223.84 0 0 0-61.4 8.08 49.248 49.248 0 0 1-13.52 1.904z" fill="#AB74A3" p-id="137853"></path><path d="M399.992 88a7.976 7.976 0 0 1-3.344-0.736 76.496 76.496 0 0 0-21.448-7.304 8 8 0 0 1 1.6-15.92 88.024 88.024 0 0 1 26.544 8.696A8 8 0 0 1 400 88z" fill="#AB74A3" p-id="137854"></path><path d="M612.664 182c-57.336-0.664-100-20.664-140.664-27.6" fill="#FFFFFF" p-id="137855"></path><path d="M612.664 190h-0.096a371.992 371.992 0 0 1-98.952-17.264c-15.016-4.16-29.2-8.104-42.96-10.448a8 8 0 0 1 2.68-15.776 452.464 452.464 0 0 1 44.56 10.816 353.936 353.936 0 0 0 94.864 16.672 8 8 0 0 1-0.096 16zM352 336a8 8 0 0 1-8-8V183a8 8 0 0 1 16 0V328a8 8 0 0 1-8 8zM672 336a8 8 0 0 1-8-8V208a8 8 0 0 1 16 0v120a8 8 0 0 1-8 8z" fill="#AB74A3" p-id="137856"></path><path d="M607.312 320h-38.624a39.168 39.168 0 0 1-38.536-32.16L519.992 232h136l-10.152 55.84A39.168 39.168 0 0 1 607.312 320zM455.312 320h-38.624a39.168 39.168 0 0 1-38.536-32.16L367.992 232h136l-10.152 55.84A39.168 39.168 0 0 1 455.312 320z" fill="#D9E6EE" p-id="137857"></path><path d="M520 232l10.152 55.84a39.04 39.04 0 0 0 21.688 28.2L635.88 232zM368 232l10.152 55.84a39.04 39.04 0 0 0 21.688 28.2L483.88 232z" fill="#EBF5FF" opacity=".75" p-id="137858"></path><path d="M536 240h-48a8 8 0 0 1 0-16h48a8 8 0 0 1 0 16zM672 240h-32a8 8 0 0 1 0-16h32a8 8 0 0 1 0 16zM384 240h-32a8 8 0 0 1 0-16h32a8 8 0 0 1 0 16z" fill="#647FA1" p-id="137859"></path><path d="M607.312 328h-38.632a47.144 47.144 0 0 1-46.4-38.728l-10.16-55.84A8 8 0 0 1 520 224h136a8 8 0 0 1 7.864 9.432l-10.152 55.84a47.144 47.144 0 0 1-46.4 38.728z m-77.728-88l8.432 46.408A31.152 31.152 0 0 0 568.68 312h38.632a31.152 31.152 0 0 0 30.664-25.592L646.4 240z" fill="#647FA1" p-id="137860"></path><path d="M455.312 328h-38.632a47.144 47.144 0 0 1-46.4-38.728l-10.16-55.84A8 8 0 0 1 368 224h136a8 8 0 0 1 7.864 9.432l-10.152 55.84a47.144 47.144 0 0 1-46.4 38.728z m-77.728-88l8.432 46.408A31.152 31.152 0 0 0 416.68 312h38.632a31.152 31.152 0 0 0 30.664-25.592L494.4 240z" fill="#647FA1" p-id="137861"></path><path d="M513.68 336a25.704 25.704 0 0 1-15-6.864 8 8 0 0 1 10.616-11.976 15.128 15.128 0 0 0 4.64 2.856 25.336 25.336 0 0 0 4.12-2.84 8 8 0 1 1 10.64 11.96A25.704 25.704 0 0 1 513.68 336zM512 404.44a56.592 56.592 0 0 1-28.432-5.776 8 8 0 0 1 8.856-13.328 45.864 45.864 0 0 0 19.576 3.104 45.864 45.864 0 0 0 19.568-3.104 8 8 0 0 1 8.856 13.328 56.592 56.592 0 0 1-28.424 5.776z" fill="#AB74A3" p-id="137862"></path><path d="M623.992 248a7.968 7.968 0 0 1-3.576-0.84c-8.592-4.296-25.496-2.616-41.84-0.976-8.944 0.888-18.184 1.816-26.576 1.816a8 8 0 0 1 0-16c7.6 0 16.432-0.88 24.976-1.736 19.472-1.952 37.856-3.784 50.6 2.576A8 8 0 0 1 623.992 248zM432 296a16 16 0 1 1 16-16 16.016 16.016 0 0 1-16 16z m0-16z m0 0z m0 0z m0 0z m0 0z m0-0.008z m0 0z m0 0zM400 248a8 8 0 0 1-3.584-15.16c12.752-6.36 31.128-4.52 50.6-2.576C455.56 231.12 464.392 232 472 232a8 8 0 0 1 0 16c-8.4 0-17.64-0.928-26.576-1.816-16.352-1.64-33.256-3.328-41.848 0.976A7.968 7.968 0 0 1 400 248zM592 296a16 16 0 1 1 16-16 16.016 16.016 0 0 1-16 16z m0-16z m0 0z m0 0z m0 0z m0 0z m0-0.008z m0 0z m0 0z" fill="#647FA1" p-id="137863"></path><path d="M616 272h-48a8 8 0 0 1 0-16h48a8 8 0 0 1 0 16zM456 272h-48a8 8 0 0 1 0-16h48a8 8 0 0 1 0 16z" fill="#647FA1" p-id="137864"></path><path d="M672 321.08v-64.88c0-21.624 16.04-28.536 25.952-21.624 15.784 11-4.328 53.424-4.328 53.424 18.376 16-1.12 40-21.624 33.08z" fill="#F9E2DC" p-id="137865"></path><path d="M679.392 330.328a30.96 30.96 0 0 1-9.952-1.664 8 8 0 0 1-5.44-7.584v-64.88a31.52 31.52 0 0 1 15.16-29.568 22.52 22.52 0 0 1 23.36 1.376c17.536 12.224 6.424 44.544 0.584 58.376a25.272 25.272 0 0 1 2.352 28.976 30.472 30.472 0 0 1-26.064 14.968z m10.384-90.32a6.92 6.92 0 0 0-3.208 0.808A16.672 16.672 0 0 0 680 256.2v58.104a14.2 14.2 0 0 0 11.584-6.904 9.96 9.96 0 0 0-3.216-13.368 8 8 0 0 1-1.976-9.456c8.128-17.184 12.992-39.248 6.984-43.44a6.28 6.28 0 0 0-3.6-1.136z" fill="#AB74A3" p-id="137866"></path><path d="M352 321.08v-64.88c0-21.624-16.04-28.536-25.952-21.624-15.792 11 4.32 53.424 4.32 53.424C312 304 331.496 328 352 321.08z" fill="#F9E2DC" p-id="137867"></path><path d="M344.6 330.328a30.472 30.472 0 0 1-26.064-14.96 25.272 25.272 0 0 1 2.36-28.984c-5.84-13.84-16.96-46.16 0.576-58.376a22.48 22.48 0 0 1 23.36-1.376A31.52 31.52 0 0 1 360 256.2v64.88a8 8 0 0 1-5.44 7.584 30.96 30.96 0 0 1-9.96 1.672zM352 321.088zM334.216 240a6.272 6.272 0 0 0-3.6 1.136c-6.336 4.416-0.2 28.28 6.984 43.44a8 8 0 0 1-1.976 9.456 9.96 9.96 0 0 0-3.216 13.36 14.2 14.2 0 0 0 11.584 6.912v-58.104a16.672 16.672 0 0 0-6.56-15.384 6.92 6.92 0 0 0-3.216-0.816z" fill="#AB74A3" p-id="137868"></path><path d="M895.968 951.976h-288v8a16 16 0 0 1-16 16h-160a16 16 0 0 1-16-16v-8h-288v16a32 32 0 0 0 32 32h704a32 32 0 0 0 32-32z" fill="#EEF6FF" p-id="137869"></path><path d="M863.968 975.976h-704a31.92 31.92 0 0 1-30.872-24h-1.128v16a32 32 0 0 0 32 32h704a32 32 0 0 0 32-32v-16h-1.136a31.92 31.92 0 0 1-30.864 24z" fill="#7690A8" opacity=".3" p-id="137870"></path><path d="M215.96 535.976h592a24 24 0 0 1 24 24v440h-640v-440a24 24 0 0 1 24-24z" fill="#EEF6FF" p-id="137871"></path><path d="M807.968 535.976h-592a24 24 0 0 0-24 24v32a24 24 0 0 1 24-24h592a24 24 0 0 1 24 24v-32a24 24 0 0 0-24-24z" fill="#FFFFFF" p-id="137872"></path><path d="M191.968 1007.976a8 8 0 0 1-8-8V793.856a20.808 20.808 0 0 0-11.552-18.704 8 8 0 1 1 7.168-14.304 36.72 36.72 0 0 1 20.384 33.008v206.12a8 8 0 0 1-8 8zM831.968 980.52a8 8 0 0 1-8-8v-32a8 8 0 0 1 16 0v32a8 8 0 0 1-8 8z m0-64a8 8 0 0 1-8-8v-320a8 8 0 0 1 16 0v320a8 8 0 0 1-8 8zM191.968 720a8 8 0 0 1-8-8V559.976a32.04 32.04 0 0 1 32-32h130.256a8 8 0 0 1 0 16H215.968a16.016 16.016 0 0 0-16 16V712a8 8 0 0 1-8 8z m639.736-155.464a8 8 0 0 1-7.904-6.864 16.064 16.064 0 0 0-15.84-13.696H522.232a8 8 0 0 1 0-16h285.744a32.144 32.144 0 0 1 31.672 27.424 8 8 0 0 1-6.784 9.056 8.192 8.192 0 0 1-1.152 0.08z m-421.48-20.56h-32a8 8 0 0 1 0-16h32a8 8 0 0 1 0 16z" fill="#647FA1" p-id="137873"></path><path d="M512 768m-32 0a32 32 0 1 0 64 0 32 32 0 1 0-64 0Z" fill="#ABCBDB" p-id="137874"></path><path d="M576 1016a8 8 0 0 1-2.536-15.584l9.232-3.088a103.472 103.472 0 0 1 32.864-5.352h248.4a24.024 24.024 0 0 0 24-24v-8H864a8 8 0 0 1 0-16h31.968a8 8 0 0 1 8 8v16a40.048 40.048 0 0 1-40 40h-248.4a87.6 87.6 0 0 0-27.8 4.528l-9.232 3.08A7.984 7.984 0 0 1 576 1016zM517.648 1007.976h-32a8 8 0 1 1 0-16h32a8 8 0 0 1 0 16z m-64 0h-293.68a40.048 40.048 0 0 1-40-40v-16a8 8 0 0 1 8-8H168a8 8 0 0 1 0 16h-32.032v8a24.024 24.024 0 0 0 24 24h293.68a8 8 0 0 1 0 16z" fill="#647FA1" p-id="137875"></path></svg>