<?xml version="1.0" standalone="no"?><!DOCTYPE svg PUBLIC "-//W3C//DTD SVG 1.1//EN" "http://www.w3.org/Graphics/SVG/1.1/DTD/svg11.dtd"><svg t="1584631827733" class="icon" viewBox="0 0 2048 1024" version="1.1" xmlns="http://www.w3.org/2000/svg" p-id="14636" xmlns:xlink="http://www.w3.org/1999/xlink" width="256" height="128"><defs><style type="text/css"></style></defs><path d="M506.2656 711.8848l0.8192 84.3776c1.6384 33.5872 29.4912 60.6208 63.8976 60.6208 35.2256 0 63.0784-29.4912 62.2592-64.7168 0-35.2256-28.672-63.0784-63.8976-63.0784-9.0112 0-17.2032 1.6384-24.576 5.7344v36.0448c6.5536-7.3728 15.5648-11.4688 25.3952-11.4688 18.8416 0 33.5872 14.7456 33.5872 33.5872s-14.7456 34.4064-33.5872 34.4064c-18.0224 0-32.768-13.9264-33.5872-31.1296l-0.8192-93.3888-29.4912 9.0112zM507.904 884.736l29.4912-9.0112v-18.8416c-20.48-9.0112-29.4912-28.672-29.4912-28.672v56.5248zM901.9392 57.344h54.0672v54.0672h-54.0672zM817.5616 57.344h54.0672v54.0672h-54.0672zM733.184 57.344h54.0672v54.0672h-54.0672z" fill="#FFFFFF" p-id="14637"></path><path d="M1788.3136 976.4864H1957.888L1792.4096 146.6368z" fill="#E1EAFF" p-id="14638"></path><path d="M1744.0768 980.983808h-72.0896c-2.4576 0-4.096-1.6384-4.096-4.096s1.6384-4.096 4.096-4.096h72.0896c22.1184 0 40.1408-18.8416 40.1408-40.96v-734.8224c0-22.9376-18.0224-40.96-40.1408-40.96h-958.464c-22.1184 0-40.1408 18.8416-40.1408 40.96v734.8224c0 22.9376 18.0224 40.96 40.1408 40.96H1318.912c2.4576 0 4.096 1.6384 4.096 4.096s-1.6384 4.096-4.096 4.096H785.6128c-26.2144 0-48.3328-22.1184-48.3328-49.152v-734.8224c0-27.0336 21.2992-49.152 48.3328-49.152h958.464c26.2144 0 48.3328 22.1184 48.3328 49.152v734.8224c0 27.0336-22.1184 49.152-48.3328 49.152z" fill="#3370FF" p-id="14639"></path><path d="M951.9104 885.956608H815.104c-11.4688 0-21.2992-9.0112-21.2992-21.2992v-551.3216c0-11.4688 9.0112-21.2992 21.2992-21.2992h135.9872c11.4688 0 21.2992 9.0112 21.2992 21.2992v552.1408c0 11.4688-9.0112 20.48-20.48 20.48M1652.3264 885.956608h-605.3888c-10.6496 0-19.6608-9.0112-19.6608-19.6608v-554.5984c0-10.6496 9.0112-19.6608 19.6608-19.6608h605.3888c10.6496 0 19.6608 9.0112 19.6608 19.6608v554.5984c0 11.4688-8.192 19.6608-19.6608 19.6608" fill="#BACEFD" p-id="14640"></path><path d="M787.2512 84.779008c0 14.7456-12.288 27.0336-27.0336 27.0336s-27.0336-12.288-27.0336-27.0336 12.288-27.8528 27.0336-27.8528 27.0336 12.288 27.0336 27.8528" fill="#F54A45" p-id="14641"></path><path d="M871.6288 84.779008c0 14.7456-12.288 27.0336-27.0336 27.0336s-27.0336-12.288-27.0336-27.0336 12.288-27.0336 27.0336-27.0336c14.7456-0.8192 27.0336 11.4688 27.0336 27.0336" fill="#FFC60A" p-id="14642"></path><path d="M956.0064 84.779008c0 14.7456-12.288 27.0336-27.0336 27.0336s-27.0336-12.288-27.0336-27.0336 12.288-27.0336 27.0336-27.0336 27.0336 11.4688 27.0336 27.0336" fill="#34C724" p-id="14643"></path><path d="M930.6112 402.628608h-95.8464c-2.4576 0-4.096-1.6384-4.096-4.096s1.6384-4.096 4.096-4.096h95.8464c2.4576 0 4.096 1.6384 4.096 4.096s-2.4576 4.096-4.096 4.096zM930.6112 442.769408h-95.8464c-2.4576 0-4.096-1.6384-4.096-4.096s1.6384-4.096 4.096-4.096h95.8464c2.4576 0 4.096 1.6384 4.096 4.096s-2.4576 4.096-4.096 4.096zM883.0976 482.910208h-48.3328c-2.4576 0-4.096-1.6384-4.096-4.096s1.6384-4.096 4.096-4.096h48.3328c2.4576 0 4.096 1.6384 4.096 4.096s-1.6384 4.096-4.096 4.096z" fill="#FFFFFF" p-id="14644"></path><path d="M1504.0512 812.228608l-329.3184-3.2768c-7.3728 0-13.1072-6.5536-13.1072-13.9264l3.2768-304.7424c0-7.3728 6.5536-13.1072 13.9264-13.1072l329.3184 4.096c7.3728 0 13.1072 6.5536 13.1072 13.9264l-3.2768 304.7424c-0.8192 6.5536-6.5536 12.288-13.9264 12.288" fill="#82A7FC" p-id="14645"></path><path d="M1455.7184 481.271808c-2.4576 0-4.096-1.6384-4.096-4.096 0-28.672-10.6496-55.7056-30.3104-77.0048s-47.5136-31.9488-76.1856-32.768-55.7056 10.6496-77.0048 30.3104-31.9488 47.5136-32.768 76.1856c0 2.4576-2.4576 4.096-4.096 4.096-2.4576 0-4.096-1.6384-4.096-4.096 0-31.1296 13.1072-59.8016 35.2256-81.92 22.1184-21.2992 50.7904-32.768 81.1008-32.768h1.6384c31.1296 0 59.8016 13.1072 81.92 35.2256 21.2992 22.1184 33.5872 51.6096 32.768 82.7392 0 2.4576-2.4576 4.096-4.096 4.096z" fill="#FFFFFF" p-id="14646"></path><path d="M1396.736 591.863808c0-30.3104-23.7568-54.8864-54.0672-54.8864-30.3104 0-54.8864 23.7568-54.8864 54.0672 0 20.48 11.4688 38.5024 27.8528 48.3328l-20.48 112.2304 87.6544 0.8192-13.1072-113.8688c15.5648-9.0112 26.2144-26.2144 27.0336-46.6944" fill="#B5CEFF" p-id="14647"></path><path d="M1792.4096 219.947008H737.28v-51.6096c0-12.288 9.8304-22.1184 22.1184-22.1184h1011.712c12.288 0 22.1184 9.8304 22.1184 22.1184l-0.8192 51.6096z" fill="#82A7FC" p-id="14648"></path><path d="M720.896 331.358208l-10.6496 63.8976s32.768 4.9152 43.4176-31.9488c9.0112-36.864-32.768-31.9488-32.768-31.9488" fill="#FFFFFF" p-id="14649"></path><path d="M714.3424 400.171008h-4.096c-0.8192 0-1.6384-0.8192-2.4576-1.6384-0.8192-0.8192-0.8192-1.6384-0.8192-3.2768l10.6496-63.8976c0-1.6384 1.6384-3.2768 3.2768-3.2768 0.8192 0 22.1184-2.4576 32.768 9.8304 5.7344 6.5536 7.3728 15.5648 4.096 27.8528-9.0112 30.3104-33.5872 34.4064-43.4176 34.4064z m9.8304-64.7168l-9.0112 56.5248c8.192 0 27.0336-3.2768 34.4064-29.4912 2.4576-9.0112 1.6384-15.5648-2.4576-20.48-5.7344-6.5536-17.2032-6.5536-22.9376-6.5536z" fill="#126DFF" p-id="14650"></path><path d="M555.4176 331.358208s-34.4064-15.5648-31.9488 27.8528 46.6944 32.768 46.6944 32.768l-14.7456-60.6208z" fill="#FFFFFF" p-id="14651"></path><path d="M557.8752 396.894208c-7.3728 0-17.2032-1.6384-24.576-7.3728-9.0112-6.5536-13.1072-16.384-13.9264-30.3104-0.8192-15.5648 2.4576-26.2144 10.6496-31.1296 11.4688-7.3728 27.0336-0.8192 27.0336-0.8192l2.4576 2.4576 14.7456 59.8016c0.8192 2.4576-0.8192 4.096-3.2768 4.9152-0.8192 0.8192-5.7344 2.4576-13.1072 2.4576z m-15.5648-64.7168c-2.4576 0-5.7344 0.8192-8.192 2.4576-6.5536 4.096-7.3728 15.5648-6.5536 23.7568 0.8192 11.4688 4.096 19.6608 10.6496 24.576 8.192 6.5536 20.48 5.7344 26.2144 4.9152l-13.1072-54.0672c-1.6384 0-4.9152-1.6384-9.0112-1.6384z" fill="#3370FF" p-id="14652"></path><path d="M1006.7968 753.246208s53.248 51.6096 81.1008 103.2192c27.8528 50.7904-86.016 120.4224-86.016 120.4224H784.7936l88.4736-82.7392-22.9376-24.576 156.4672-116.3264z" fill="#FFFFFF" p-id="14653"></path><path d="M1002.7008 980.983808H784.7936c-1.6384 0-3.2768-0.8192-4.096-2.4576-0.8192-1.6384 0-3.2768 0.8192-4.096l85.1968-80.2816-20.48-21.2992c-0.8192-0.8192-0.8192-1.6384-0.8192-3.2768 0-0.8192 0.8192-2.4576 1.6384-3.2768l157.2864-116.3264c1.6384-0.8192 4.096-0.8192 4.9152 0s54.0672 52.4288 81.92 104.0384c28.672 54.0672-82.7392 122.88-87.6544 126.1568 0 0.8192 0 0.8192-0.8192 0.8192z m-207.2576-8.192h206.4384c10.6496-6.5536 108.1344-69.632 83.5584-114.688-23.7568-44.2368-67.1744-88.4736-78.6432-99.9424l-150.7328 112.2304 19.6608 21.2992c0.8192 0.8192 0.8192 1.6384 0.8192 3.2768 0 0.8192-0.8192 2.4576-1.6384 3.2768l-79.4624 74.5472z" fill="#126DFF" p-id="14654"></path><path d="M202.3424 736.043008c-28.672 18.8416-81.1008 84.3776-113.0496 125.3376-26.2144 34.4064 112.2304 115.5072 112.2304 115.5072h99.1232v-174.4896l-98.304-66.3552z" fill="#FFFFFF" p-id="14655"></path><path d="M299.8272 980.983808h-98.304c-0.8192 0-1.6384 0-2.4576-0.8192-4.096-2.4576-108.9536-63.8976-116.3264-104.0384-1.6384-6.5536 0-12.288 3.2768-17.2032 23.7568-31.1296 81.92-105.6768 113.8688-126.976 1.6384-0.8192 3.2768-0.8192 4.9152 0l98.304 67.1744c0.8192 0.8192 1.6384 1.6384 1.6384 3.2768v174.4896c-0.8192 2.4576-2.4576 4.096-4.9152 4.096z m-97.4848-8.192h93.3888v-167.936l-94.208-63.8976c-31.9488 22.9376-91.7504 99.9424-109.7728 122.88-1.6384 3.2768-2.4576 6.5536-1.6384 10.6496 7.3728 34.4064 101.5808 91.7504 112.2304 98.304z" fill="#126DFF" p-id="14656"></path><path d="M475.136 211.755008l-83.5584-3.2768c-2.4576 0-4.096-1.6384-4.096-4.096s2.4576-4.096 4.096-4.096l83.5584 3.2768c2.4576 0 4.096 1.6384 4.096 4.096 0 1.6384-1.6384 4.096-4.096 4.096zM507.904 149.495808c-0.8192 0-2.4576-0.8192-3.2768-1.6384l-56.5248-59.8016c-1.6384-1.6384-1.6384-4.096 0-5.7344s4.096-1.6384 5.7344 0l56.5248 59.8016c1.6384 1.6384 1.6384 4.096 0 5.7344-0.8192 0.8192-1.6384 1.6384-2.4576 1.6384zM490.7008 178.987008l-45.8752-10.6496c-2.4576-0.8192-3.2768-2.4576-3.2768-4.9152 0.8192-2.4576 2.4576-3.2768 4.9152-3.2768l45.056 10.6496c2.4576 0.8192 3.2768 2.4576 3.2768 4.9152-0.8192 2.4576-2.4576 3.2768-4.096 3.2768z" fill="#3370FF" p-id="14657"></path><path d="M651.264 251.076608s-93.3888-2.4576-98.304 68.8128c-4.9152 70.4512 29.4912 144.9984 29.4912 144.9984s-12.288 78.6432-76.1856 98.304 98.304 98.304 174.4896 0c0 0-36.864-36.864-22.1184-90.9312 0 0 58.1632-13.9264 59.8016-65.536 1.6384-74.5472 27.0336-157.2864-67.1744-155.648" fill="#FFFFFF" p-id="14658"></path><path d="M577.536 615.620608c-20.48 0-39.3216-4.096-53.248-9.0112-22.9376-8.192-36.864-20.48-36.864-31.1296 0-4.9152 3.2768-12.288 17.2032-16.384 56.5248-17.2032 71.2704-84.3776 72.9088-94.208-4.9152-9.8304-34.4064-78.6432-29.4912-145.8176 4.9152-72.9088 99.1232-72.0896 102.4-72.0896 26.2144-0.8192 45.056 5.7344 57.344 18.8416 21.2992 22.9376 18.8416 61.44 15.5648 102.4-0.8192 12.288-1.6384 25.3952-2.4576 38.5024-0.8192 47.5136-48.3328 64.7168-59.8016 68.8128-12.288 49.9712 21.2992 84.3776 21.2992 85.1968 1.6384 1.6384 1.6384 4.096 0 5.7344-27.8528 37.6832-68.8128 49.152-104.8576 49.152z m72.9088-360.448c-4.096 0-24.576 0-45.056 7.3728-30.3104 10.6496-45.8752 29.4912-48.3328 57.344-4.9152 68.8128 28.672 142.5408 29.4912 143.36 0 0.8192 0.8192 1.6384 0 2.4576-0.8192 3.2768-13.1072 81.1008-79.4624 101.5808-4.096 1.6384-11.4688 4.096-11.4688 9.0112 0 5.7344 10.6496 15.5648 31.9488 22.9376 34.4064 12.288 104.0384 18.0224 148.2752-36.0448-8.192-9.8304-33.5872-44.2368-20.48-92.5696 0-1.6384 1.6384-2.4576 3.2768-3.2768 2.4576-0.8192 55.7056-13.9264 56.5248-61.44 0-13.1072 0.8192-26.2144 2.4576-38.5024 3.2768-39.3216 5.7344-77.0048-13.1072-96.6656-10.6496-11.4688-27.8528-16.384-51.6096-16.384-1.6384 0.8192-1.6384 0.8192-2.4576 0.8192z" fill="#126DFF" p-id="14659"></path><path d="M288.3584 634.462208c-44.2368 26.2144-87.6544 58.1632-114.688 95.8464l126.976 139.264v-137.6256c-0.8192 35.2256-0.8192 244.9408-0.8192 244.9408h506.2656l8.192-244.1216-2.4576 102.4 38.5024 34.4064 170.3936-121.2416s-167.936-149.9136-203.9808-164.6592c-68.8128-29.4912-308.8384-66.3552-439.0912 6.5536" fill="#3370FF" p-id="14660"></path><path d="M806.0928 980.983808H299.8272c-0.8192 0-2.4576-0.8192-3.2768-0.8192s-0.8192-1.6384-0.8192-3.2768v-105.6768l-125.3376-138.4448c-1.6384-1.6384-1.6384-3.2768 0-4.9152 24.576-33.5872 63.0784-66.3552 115.5072-97.4848 1.6384-0.8192 4.096-0.8192 5.7344 1.6384 0.8192 1.6384 0.8192 4.096-1.6384 5.7344-49.9712 29.4912-86.8352 60.6208-111.4112 92.5696l117.1456 129.4336c0-54.0672 0-110.592 0.8192-126.976 0-2.4576 1.6384-4.096 4.096-4.096s4.096 1.6384 4.096 4.096V973.611008H802.816l8.192-240.0256c0-2.4576 2.4576-4.096 4.096-4.096 2.4576 0 4.096 1.6384 4.096 4.096l-3.2768 99.9424 34.4064 31.1296 163.84-116.3264c-25.3952-22.1184-167.1168-146.6368-199.0656-160.5632-69.632-30.3104-308.8384-65.536-435.8144 5.7344-1.6384 0.8192-4.096 0-5.7344-1.6384-0.8192-1.6384 0-4.096 1.6384-5.7344 131.072-73.728 370.2784-37.6832 443.1872-6.5536 36.0448 15.5648 198.2464 159.744 204.8 165.4784 0.8192 0.8192 1.6384 1.6384 1.6384 3.2768s-0.8192 2.4576-1.6384 3.2768l-170.3936 121.2416c-1.6384 0.8192-4.096 0.8192-4.9152 0l-32.768-29.4912-4.096 133.5296c-0.8192 2.4576-2.4576 4.096-4.9152 4.096z" fill="#FFFFFF" p-id="14661"></path><path d="M539.8528 260.087808c0 3.2768-3.2768 158.9248 108.9536 131.072 111.4112-27.8528 192.512-220.3648 56.5248-215.4496-47.5136 2.4576-169.5744-0.8192-165.4784 84.3776" fill="#FFC60A" p-id="14662"></path><path d="M536.576 796.663808c1.6384 17.2032 16.384 31.1296 33.5872 31.1296 18.8416 0 33.5872-15.5648 33.5872-34.4064s-15.5648-33.5872-33.5872-33.5872c-9.8304 0-18.8416 4.096-24.576 11.4688v-36.0448c7.3728-3.2768 16.384-4.9152 24.576-5.7344 35.2256 0 63.0784 27.8528 63.8976 63.0784s-27.8528 63.8976-62.2592 64.7168c-33.5872 0-61.44-26.2144-63.8976-60.6208l-0.8192-84.3776 29.4912-9.0112v93.3888z m-29.4912 31.9488s9.8304 19.6608 29.4912 28.672v18.8416l-29.4912 9.0112v-56.5248z" fill="#FEF9EC" p-id="14663"></path></svg>