<?xml version="1.0" standalone="no"?><!DOCTYPE svg PUBLIC "-//W3C//DTD SVG 1.1//EN" "http://www.w3.org/Graphics/SVG/1.1/DTD/svg11.dtd"><svg t="1584631872598" class="icon" viewBox="0 0 1024 1024" version="1.1" xmlns="http://www.w3.org/2000/svg" p-id="15404" xmlns:xlink="http://www.w3.org/1999/xlink" width="128" height="128"><defs><style type="text/css"></style></defs><path d="M926.02 879.616a56.889 56.889 0 0 1-80.44 0c-9.671 8.875-18.66 18.66-28.16 28.16a459.776 459.776 0 0 1-40.96 36.352H214.796a459.776 459.776 0 0 1-41.017-36.409 455.111 455.111 0 0 1-112.47-458.297l-44.43-44.487a56.889 56.889 0 0 1 80.441-80.668l28.047 28.444a34.133 34.133 0 1 0 48.298-48.299l-52.28-52.28a34.133 34.133 0 0 1 48.298-48.3l72.476 72.364a34.133 34.133 0 1 0 48.185-48.242l-31.004-31.118a455.111 455.111 0 0 1 689.38 431.9l65.137 65.707a34.133 34.133 0 1 1-48.298 48.298l-63.66-64.227a34.133 34.133 0 0 0-48.298 48.298l72.42 72.42a56.889 56.889 0 0 1 0 80.384zM47.884 164.978a34.133 34.133 0 1 0 68.267 0 34.133 34.133 0 1 0-68.267 0z" fill="#EAF0F7" p-id="15405"></path><path d="M96.922 938.667H825.1a5.689 5.689 0 0 1 5.689 5.689 5.689 5.689 0 0 1-5.69 5.688H96.923a5.689 5.689 0 0 1-5.689-5.688 5.689 5.689 0 0 1 5.69-5.69z m785.067 0h34.133a5.689 5.689 0 0 1 5.689 5.689 5.689 5.689 0 0 1-5.689 5.688H881.99a5.689 5.689 0 0 1-5.69-5.688 5.689 5.689 0 0 1 5.69-5.69zM512.21 972.8h34.133a5.689 5.689 0 0 1 5.69 5.689 5.689 5.689 0 0 1-5.69 5.689h-34.133a5.689 5.689 0 0 1-5.689-5.69 5.689 5.689 0 0 1 5.689-5.688z m-438.045 39.822h147.912a5.689 5.689 0 0 1 5.688 5.69 5.689 5.689 0 0 1-5.688 5.688H74.166a5.689 5.689 0 0 1-5.688-5.689 5.689 5.689 0 0 1 5.688-5.689z m273.067 0h557.511a5.689 5.689 0 0 1 5.69 5.69 5.689 5.689 0 0 1-5.69 5.688h-557.51a5.689 5.689 0 0 1-5.69-5.689 5.689 5.689 0 0 1 5.69-5.689z m256-39.822h147.911a5.689 5.689 0 0 1 5.69 5.689 5.689 5.689 0 0 1-5.69 5.689h-147.91a5.689 5.689 0 0 1-5.69-5.69 5.689 5.689 0 0 1 5.69-5.688z m-392.533 0h256a5.689 5.689 0 0 1 5.689 5.689 5.689 5.689 0 0 1-5.69 5.689h-256a5.689 5.689 0 0 1-5.688-5.69 5.689 5.689 0 0 1 5.689-5.688zM660.122 56.889a22.756 22.756 0 1 0-22.755-22.756 22.756 22.756 0 0 0 22.755 22.756z m0 11.378a34.133 34.133 0 1 1 34.133-34.134 34.133 34.133 0 0 1-34.133 34.134zM830.79 608.71a22.756 22.756 0 1 0-22.756-22.755 22.756 22.756 0 0 0 22.756 22.755z m0 11.378a34.133 34.133 0 1 1 34.133-34.133 34.133 34.133 0 0 1-34.133 34.133zM495.144 256a22.756 22.756 0 1 0-22.755-22.756A22.756 22.756 0 0 0 495.144 256z m0 11.378a34.133 34.133 0 1 1 34.134-34.134 34.133 34.133 0 0 1-34.134 34.134z m-318.577 506.31a22.756 22.756 0 1 0-22.756-22.755 22.756 22.756 0 0 0 22.755 22.756z m0 11.379a34.133 34.133 0 1 1 34.133-34.134 34.133 34.133 0 0 1-34.133 34.134zM813.721 147.91h34.133a5.689 5.689 0 0 1 5.69 5.689 5.689 5.689 0 0 1-5.69 5.689h-34.133a5.689 5.689 0 0 1-5.689-5.689 5.689 5.689 0 0 1 5.69-5.689z" fill="#CADAEC" p-id="15406"></path><path d="M836.478 136.533v34.134a5.689 5.689 0 0 1-5.69 5.689 5.689 5.689 0 0 1-5.688-5.69v-34.133a5.689 5.689 0 0 1 5.689-5.689 5.689 5.689 0 0 1 5.689 5.69zM375.678 62.578h34.133a5.689 5.689 0 0 1 5.689 5.689 5.689 5.689 0 0 1-5.69 5.689h-34.132a5.689 5.689 0 0 1-5.69-5.69 5.689 5.689 0 0 1 5.69-5.688z" fill="#CADAEC" p-id="15407"></path><path d="M398.433 51.2v34.133a5.689 5.689 0 0 1-5.689 5.69 5.689 5.689 0 0 1-5.689-5.69V51.2a5.689 5.689 0 0 1 5.69-5.689 5.689 5.689 0 0 1 5.688 5.689zM142.433 529.067h34.134a5.689 5.689 0 0 1 5.688 5.689 5.689 5.689 0 0 1-5.689 5.688h-34.133a5.689 5.689 0 0 1-5.689-5.688 5.689 5.689 0 0 1 5.69-5.69z" fill="#CADAEC" p-id="15408"></path><path d="M165.189 517.689v34.133a5.689 5.689 0 0 1-5.69 5.69 5.689 5.689 0 0 1-5.688-5.69V517.69A5.689 5.689 0 0 1 159.5 512a5.689 5.689 0 0 1 5.689 5.689zM654.433 284.444h34.134a5.689 5.689 0 0 1 5.688 5.69 5.689 5.689 0 0 1-5.688 5.688h-34.134a5.689 5.689 0 0 1-5.689-5.689 5.689 5.689 0 0 1 5.69-5.689z" fill="#CADAEC" p-id="15409"></path><path d="M677.189 273.067V307.2a5.689 5.689 0 0 1-5.69 5.689 5.689 5.689 0 0 1-5.688-5.689v-34.133a5.689 5.689 0 0 1 5.689-5.69 5.689 5.689 0 0 1 5.689 5.69z" fill="#CADAEC" p-id="15410"></path><path d="M341.544 358.4a45.511 45.511 0 0 0-45.51 45.511v432.356a45.511 45.511 0 0 0 45.51 45.51H677.19a45.511 45.511 0 0 0 45.51-45.51V403.91a45.511 45.511 0 0 0-45.51-45.511z m0-11.378H677.19a56.889 56.889 0 0 1 56.889 56.89v432.355a56.889 56.889 0 0 1-56.89 56.889H341.545a56.889 56.889 0 0 1-56.889-56.89V403.912a56.889 56.889 0 0 1 56.89-56.889z" fill="#6C7C9D" p-id="15411"></path><path d="M451.283 444.132q42.837-0.399 79.986-0.399 34.702 0 73.102 0.342a56.889 56.889 0 0 1 56.377 57.4q-0.626 63.887-0.626 131.186 0 68.267 0.626 134.429a56.889 56.889 0 0 1-56.32 57.458q-41.927 0.34-79.076 0.34-36.124 0-73.955-0.34a56.889 56.889 0 0 1-56.32-55.012q-2.333-67.47-2.333-136.078t2.162-134.315a56.889 56.889 0 0 1 56.377-55.011z" fill="#CADAEC" p-id="15412"></path><path d="M425.967 432.754q48.527-0.398 88.463-0.398 37.205 0 78.393 0.34a56.889 56.889 0 0 1 56.376 57.288q-0.455 63.886-0.455 131.3 0 68.266 0.455 134.542a56.889 56.889 0 0 1-56.433 57.287q-44.886 0.398-84.594 0.398t-82.261-0.341a56.889 56.889 0 0 1-56.377-57.287q0.455-66.333 0.455-133.803t-0.455-132.04a56.889 56.889 0 0 1 56.433-57.286z" fill="#FFFFFF" p-id="15413"></path><path d="M621.722 713.956a69.689 69.689 0 1 1 69.689-69.69 69.689 69.689 0 0 1-69.689 69.69z m0-24.008a45.511 45.511 0 1 0-45.511-45.51 45.511 45.511 0 0 0 45.511 45.51z" fill="#CADAEC" p-id="15414"></path><path d="M426.024 444.132a45.511 45.511 0 0 0-45.113 45.795q0.455 65.081 0.455 132.153t-0.455 133.916a45.511 45.511 0 0 0 45.113 45.796q43.122 0.341 82.148 0.341t84.537-0.398a45.511 45.511 0 0 0 45.113-45.795q-0.456-66.333-0.456-134.656 0-67.47 0.456-131.414a45.511 45.511 0 0 0-45.113-45.852q-41.13-0.285-78.28-0.285-39.878 0-88.405 0.399z m0-11.378q48.47-0.398 88.406-0.398 37.205 0 78.393 0.34a56.889 56.889 0 0 1 56.376 57.288q-0.455 63.886-0.455 131.3 0 68.266 0.455 134.542a56.889 56.889 0 0 1-56.433 57.287q-44.886 0.398-84.594 0.398t-82.261-0.341a56.889 56.889 0 0 1-56.377-57.287q0.455-66.333 0.455-133.803t-0.455-132.04a56.889 56.889 0 0 1 56.433-57.286z" fill="#6C7C9D" p-id="15415"></path><path d="M671.5 401.067a14.222 14.222 0 1 0 28.444 0 14.222 14.222 0 1 0-28.444 0zM671.5 839.111a14.222 14.222 0 1 0 28.444 0 14.222 14.222 0 1 0-28.444 0zM318.789 401.067a14.222 14.222 0 1 0 28.444 0 14.222 14.222 0 1 0-28.444 0zM318.789 839.111a14.222 14.222 0 1 0 28.444 0 14.222 14.222 0 1 0-28.444 0z" fill="#CADAEC" p-id="15416"></path><path d="M671.5 398.222a11.378 11.378 0 1 0 22.755 0 11.378 11.378 0 1 0-22.755 0zM671.5 836.267a11.378 11.378 0 1 0 22.755 0 11.378 11.378 0 1 0-22.755 0zM318.789 398.222a11.378 11.378 0 1 0 22.755 0 11.378 11.378 0 1 0-22.755 0zM318.789 836.267a11.378 11.378 0 1 0 22.755 0 11.378 11.378 0 1 0-22.755 0zM606.078 574.578a8.533 8.533 0 0 1 8.533 8.533v45.511a8.533 8.533 0 0 1-8.533 8.534 8.533 8.533 0 0 1-8.534-8.534v-45.51a8.533 8.533 0 0 1 8.534-8.534z" fill="#6C7C9D" p-id="15417"></path><path d="M653.01 616.505a8.533 8.533 0 0 1-4.323 11.378l-31.175 13.88a8.533 8.533 0 0 1-11.378-4.323 8.533 8.533 0 0 1 4.324-11.378l31.175-13.88a8.533 8.533 0 0 1 11.378 4.323z" fill="#6C7C9D" p-id="15418"></path><path d="M654.433 689.72a8.533 8.533 0 0 1-12.06 0l-31.63-32.71a8.533 8.533 0 0 1 0-12.06 8.533 8.533 0 0 1 12.06 0l31.63 32.71a8.533 8.533 0 0 1 0 12.06z" fill="#6C7C9D" p-id="15419"></path><path d="M569.669 682.382a8.476 8.476 0 0 1-0.398-12.003l31.232-33.167a8.533 8.533 0 0 1 12.06-0.398 8.476 8.476 0 0 1 0.398 12.004l-31.232 33.166a8.533 8.533 0 0 1-12.06 0.398z" fill="#6C7C9D" p-id="15420"></path><path d="M552.602 623.104a8.533 8.533 0 0 1 10.638-5.689l43.52 13.312a8.533 8.533 0 0 1 5.69 10.638 8.533 8.533 0 0 1-10.64 5.69l-43.52-13.313a8.533 8.533 0 0 1-5.688-10.638z" fill="#6C7C9D" p-id="15421"></path><path d="M604.655 708.267a69.689 69.689 0 1 1 69.69-69.69 69.689 69.689 0 0 1-69.69 69.69z m0-24.007a45.511 45.511 0 1 0-45.51-45.512 45.511 45.511 0 0 0 45.51 45.512z" fill="#EAF0F7" p-id="15422"></path><path d="M604.655 702.578a64 64 0 1 0-64-64 64 64 0 0 0 64 64z m0 11.378a75.378 75.378 0 1 1 75.378-75.378 75.378 75.378 0 0 1-75.378 75.378z m0-24.008a51.2 51.2 0 1 1 51.2-51.2 51.2 51.2 0 0 1-51.2 51.2z m0-11.377a39.822 39.822 0 1 0-39.822-39.823 39.822 39.822 0 0 0 39.822 39.823z" fill="#6C7C9D" p-id="15423"></path><path d="M606.078 665.6a25.6 25.6 0 1 1 25.6-25.6 25.6 25.6 0 0 1-25.6 25.6z" fill="#6C7C9D" p-id="15424"></path><path d="M591.855 640a14.222 14.222 0 1 0 28.445 0 14.222 14.222 0 1 0-28.445 0zM367.543 529.522l34.133 4.892a2.844 2.844 0 0 1 2.446 2.788v17.806a2.844 2.844 0 0 1-2.446 2.788l-34.133 4.892a2.844 2.844 0 0 1-3.243-2.788v-27.534a2.844 2.844 0 0 1 2.844-2.844z" fill="#EAF0F7" p-id="15425"></path><path d="M369.989 556.658l28.444-4.04v-12.913l-28.444-4.04z m32.483-27.876a8.533 8.533 0 0 1 7.339 8.42v17.806a8.533 8.533 0 0 1-7.339 8.42l-34.133 4.892a8.533 8.533 0 0 1-9.728-8.42v-27.534a8.533 8.533 0 0 1 8.533-8.533h1.195z" fill="#6C7C9D" p-id="15426"></path><path d="M367.543 677.433l34.133 4.892a2.844 2.844 0 0 1 2.446 2.788v17.806a2.844 2.844 0 0 1-2.446 2.788l-34.133 4.892a2.844 2.844 0 0 1-3.243-2.787V680.22a2.844 2.844 0 0 1 2.844-2.844z" fill="#EAF0F7" p-id="15427"></path><path d="M369.989 704.569l28.444-4.04v-12.913l-28.444-4.04z m32.483-27.876a8.533 8.533 0 0 1 7.339 8.42v17.806a8.533 8.533 0 0 1-7.339 8.42l-34.133 4.892a8.533 8.533 0 0 1-9.728-8.42v-27.59a8.533 8.533 0 0 1 8.533-8.534h1.195z" fill="#6C7C9D" p-id="15428"></path><path d="M358.61 517.689h11.379a5.689 5.689 0 0 1 5.689 5.689v45.51a5.689 5.689 0 0 1-5.69 5.69h-11.377a11.378 11.378 0 0 1-11.378-11.378v-34.133a11.378 11.378 0 0 1 11.378-11.378z" fill="#CADAEC" p-id="15429"></path><path d="M358.61 523.378a5.689 5.689 0 0 0-5.688 5.689V563.2a5.689 5.689 0 0 0 5.689 5.689h11.378v-45.511z m0-11.378h11.379a11.378 11.378 0 0 1 11.378 11.378v45.51a11.378 11.378 0 0 1-11.378 11.379H358.61a17.067 17.067 0 0 1-17.067-17.067v-34.133A17.067 17.067 0 0 1 358.611 512z" fill="#6C7C9D" p-id="15430"></path><path d="M358.61 665.6h11.379a5.689 5.689 0 0 1 5.689 5.689V716.8a5.689 5.689 0 0 1-5.69 5.689h-11.377a11.378 11.378 0 0 1-11.378-11.378v-34.133a11.378 11.378 0 0 1 11.378-11.378z" fill="#CADAEC" p-id="15431"></path><path d="M358.61 671.289a5.689 5.689 0 0 0-5.688 5.689v34.133a5.689 5.689 0 0 0 5.689 5.689h11.378v-45.511z m0-11.378h11.379a11.378 11.378 0 0 1 11.378 11.378V716.8a11.378 11.378 0 0 1-11.378 11.378H358.61a17.067 17.067 0 0 1-17.067-17.067v-34.133a17.067 17.067 0 0 1 17.067-17.067z" fill="#6C7C9D" p-id="15432"></path><path d="M438.255 477.867h147.911v45.51h-147.91z" fill="#CADAEC" p-id="15433"></path><path d="M443.944 483.556v34.133h136.534v-34.133z m147.911-11.378v56.889H432.567v-56.89z" fill="#6C7C9D" p-id="15434"></path><path d="M443.944 483.556h96.711v34.133h-96.71z" fill="#EAF0F7" p-id="15435"></path><path d="M529.278 489.244h11.377V512h-11.377z m-17.067 5.69h11.378v11.377H512.21z" fill="#6C7C9D" p-id="15436"></path></svg>