<?xml version="1.0" standalone="no"?><!DOCTYPE svg PUBLIC "-//W3C//DTD SVG 1.1//EN" "http://www.w3.org/Graphics/SVG/1.1/DTD/svg11.dtd"><svg t="1584631860485" class="icon" viewBox="0 0 1082 1024" version="1.1" xmlns="http://www.w3.org/2000/svg" p-id="15032" xmlns:xlink="http://www.w3.org/1999/xlink" width="135.25" height="128"><defs><style type="text/css"></style></defs><path d="M959.439749 1024H118.162094c-26.650806 0-48.465759-21.713089-48.465759-48.251309s21.814953-48.251309 48.465759-48.251309h841.277655c26.661529 0 48.476482 21.713089 48.476481 48.251309s-21.814953 48.251309-48.476481 48.251309" fill="#F0F5F9" p-id="15033"></path><path d="M178.51912 975.748691C159.87267 975.748691 144.753927 960.785424 144.753927 942.326618V365.819979C144.753927 347.355812 159.87267 332.397906 178.51912 332.397906h725.935582c18.64645 0 33.765194 14.963267 33.765193 33.422073v576.506639c0 18.458806-15.118743 33.422073-33.765193 33.422073H178.51912z" fill="#FFFFFF" p-id="15034"></path><path d="M938.219895 434.26178H144.753927V366.20599A33.786639 33.786639 0 0 1 178.51912 332.397906h725.935582A33.786639 33.786639 0 0 1 938.219895 366.20599V434.26178z" fill="#F0F5F9" p-id="15035"></path><path d="M930.17801 442.303665h-777.382198v500.022953c0 13.99288 11.499895 25.380188 25.723308 25.380188h725.935582c14.223414 0 25.723309-11.381948 25.723308-25.380188V442.303665z m-25.723308 541.486911H178.51912c-23.069487 0-41.807079-18.549948-41.807078-41.463958V365.819979c0-22.919372 18.737592-41.463958 41.807078-41.463958h725.935582c23.069487 0 41.807079 18.549948 41.807078 41.463958v576.506639c0 22.919372-18.737592 41.463958-41.807078 41.463958zM930.17801 366.20599a25.744754 25.744754 0 0 0-25.723308-25.766199H178.51912a25.744754 25.744754 0 0 0-25.723308 25.766199V426.219895h777.382198V366.20599z" fill="#99A4B0" p-id="15036"></path><path d="M659.000293 852.439791H434.712126A21.922178 21.922178 0 0 1 412.816754 830.490806v-208.081089A21.922178 21.922178 0 0 1 434.712126 600.460733h224.288167a21.911455 21.911455 0 0 1 21.879288 21.948984v208.081089a21.911455 21.911455 0 0 1-21.879288 21.948985" fill="#F0F5F9" p-id="15037"></path><path d="M561.253864 730.79288c12.604314-5.532817 21.680921-16.909403 22.978345-30.451938 2.021194-21.252021-17.220356-40.906387-40.06467-40.906387-22.206325 0-40.209424 16.807539-40.209424 37.550241 0 15.006157 9.478702 27.81956 23.1231 33.808084 2.519791 1.104419 3.651016 3.892272 2.707434 6.342366l-21.069738 55.140524c-1.222366 3.195309 1.313508 6.551455 4.94844 6.551455h61.005738c3.629571 0 6.165445-3.356147 4.953801-6.551455l-21.075099-55.140524a4.980607 4.980607 0 0 1 2.702073-6.342366" fill="#FFFFFF" p-id="15038"></path><path d="M584.639665 790.367162c2.594848 6.819518-2.696712 13.821319-9.971937 13.82132H513.672712c-7.280586 0-12.572147-7.012524-9.955853-13.832042l20.930345-54.78132C508.895832 728.541152 498.596859 713.717277 498.596859 696.984796c0-23.782534 20.48-42.911497 45.57068-42.911498 25.916314 0 47.731267 22.276021 45.399121 46.771603-1.447539 15.172356-11.419476 28.275267-25.873424 34.730219l20.946429 54.792042z m-31.100649-51.32867a10.341864 10.341864 0 0 1 5.554261-13.151162h0.005362c11.151414-4.894827 18.716147-14.775623 19.793759-26.055707 1.715602-18.013822-14.957906-35.035812-34.724859-35.035811-19.321969 0-34.848168 14.496838-34.848167 32.188984 0 12.438115 7.789906 23.573445 19.911707 28.897173a10.315058 10.315058 0 0 1 5.564984 13.167246L514.00511 793.465969h60.335581l-20.801675-54.427477z" fill="#99A4B0" p-id="15039"></path><path d="M544.167539 545.872419c31.095288 0 56.293194 24.436607 56.293194 54.588314h32.167539c0-47.377424-39.603602-85.780105-88.460733-85.780105S455.706806 553.083309 455.706806 600.460733h32.16754c0-30.151707 25.197906-54.588314 56.293193-54.588314" fill="#F0F5F9" p-id="15040"></path><path d="M889.968586 380.649215a16.08377 16.08377 0 1 0-32.167539 0 16.08377 16.08377 0 0 0 32.167539 0z m10.722513 0a26.806283 26.806283 0 1 1-53.617926 0A26.806283 26.806283 0 0 1 900.691099 380.649215zM637.989529 605.82199H434.712126A16.560921 16.560921 0 0 0 418.17801 622.409717v208.081089A16.560921 16.560921 0 0 0 434.712126 847.078534h224.288167a16.550199 16.550199 0 0 0 16.518032-16.587728v-208.081089c0-9.167749-7.398534-16.587728-16.518032-16.587727H637.989529z m-187.483142-10.722514c2.85755-47.876021 43.73177-85.780105 93.661152-85.780104 49.929382 0 90.803602 37.904084 93.661152 85.780104h21.171602a27.272712 27.272712 0 0 1 27.240545 27.310241v208.081089a27.272712 27.272712 0 0 1-27.240545 27.310241H434.712126A27.283435 27.283435 0 0 1 407.455497 830.490806v-208.081089A27.283435 27.283435 0 0 1 434.712126 595.099476h15.794261z m10.743959 0h21.504c2.787853-30.628859 29.251016-54.588314 61.407832-54.588314 32.167539 0 58.62534 23.954094 61.418555 54.588314h21.504c-2.852188-41.882136-38.853026-75.057592-82.922555-75.057591-44.064168 0-80.059644 33.175455-82.911832 75.057591z m32.285486 0h101.263414c-2.761047-24.640335-24.340105-43.865801-50.637068-43.865801-26.286241 0-47.865298 19.225466-50.626346 43.865801zM1053.486911 225.172775a13.403141 13.403141 0 1 0-26.806283-0.005361 13.403141 13.403141 0 0 0 26.806283 0.010722z m5.361257 0a18.764398 18.764398 0 1 1-37.528796-0.005361 18.764398 18.764398 0 0 1 37.528796 0.010722z" fill="#99A4B0" p-id="15041"></path><path d="M789.627309 380.649215l13.135078 13.135078a4.878743 4.878743 0 0 1-6.883853 6.883854l-13.135079-13.135079-13.135078 13.135079a4.878743 4.878743 0 0 1-6.889215-6.883854l13.135079-13.135078-13.124356-13.135079a4.878743 4.878743 0 0 1 6.883853-6.883853L782.743455 373.754639l13.135079-13.135079a4.878743 4.878743 0 0 1 6.878492 6.889215L789.627309 380.649215zM32.167539 461.068063v16.834345c0 2.541236-2.396482 4.610681-5.361256 4.610681-2.954052 0-5.361257-2.069445-5.361257-4.610681V461.068063H4.610681C2.053361 461.068063 0 458.671581 0 455.706806c0-2.954052 2.058723-5.361257 4.610681-5.361256H21.445026v-16.834346c0-2.541236 2.407204-4.610681 5.361257-4.61068 2.964775 0 5.361257 2.069445 5.361256 4.61068V450.34555h16.834346c2.551958 0 4.610681 2.407204 4.61068 5.361256 0 2.964775-2.058723 5.361257-4.61068 5.361257H32.167539zM1061.528796 605.82199v16.834345c0 2.541236-2.407204 4.610681-5.361257 4.610681-2.964775 0-5.361257-2.069445-5.361256-4.610681V605.82199h-16.834346c-2.541236 0-4.610681-2.396482-4.61068-5.361257 0-2.954052 2.069445-5.361257 4.61068-5.361257H1050.806283v-16.834345c0-2.541236 2.396482-4.610681 5.361256-4.610681 2.954052 0 5.361257 2.069445 5.361257 4.610681V595.099476h16.834345c2.551958 0 4.610681 2.407204 4.610681 5.361257 0 2.964775-2.058723 5.361257-4.610681 5.361257H1061.528796z" fill="#99A4B0" p-id="15042"></path><path d="M82.348901 253.839414l-3.860105-3.720712c2.492984-2.594848 5.12-5.146806 7.881047-7.645152l3.592042 3.978052c-2.659183 2.407204-5.200419 4.878743-7.612984 7.387812z m15.729926-14.228775l-3.302534-4.219309c2.878995-2.251728 5.84377-4.412314 8.899686-6.454953l2.980859 4.449843c-2.94333 1.972942-5.80088 4.05311-8.578011 6.224419z m17.702869-11.832293l-2.627015-4.675016a136.267058 136.267058 0 0 1 9.811099-5.002053l2.235644 4.873383c-3.206031 1.474346-6.347728 3.077361-9.419728 4.803686z m19.193299-8.813906l-1.828189-5.039581a129.013277 129.013277 0 0 1 10.508063-3.313257l1.393927 5.178974c-3.41512 0.916775-6.776628 1.978304-10.079162 3.173864z m20.39422-5.468482l-0.93822-5.280838c3.592042-0.643351 7.237696-1.125864 10.920879-1.463623l0.487875 5.339812c-3.538429 0.321675-7.023246 0.788105-10.470534 1.404649z m21.042932-1.930052l-0.04289-5.361257a138.802932 138.802932 0 0 1 11.001298 0.353843l-0.380649 5.350534a133.441675 133.441675 0 0 0-10.577759-0.337759z m21.241298 1.517235l0.782743-5.307644c1.420733 0.21445 2.846827 0.444984 4.278283 0.696964l6.471037 1.141947-0.927498 5.280838-6.476397-1.141948a148.667644 148.667644 0 0 0-4.128168-0.670157z m21.24666 3.661739l0.911413-5.286199c3.667099 0.632628 7.184084 1.222366 10.615288 1.790659l-0.868523 5.291561c-3.447288-0.568293-6.974995-1.163393-10.658178-1.796021z m21.327078 3.516984l0.836356-5.29156c3.624209 0.568293 7.168 1.10978 10.647456 1.62446l-0.782744 5.307644c-3.500901-0.520042-7.055414-1.06689-10.701068-1.640544z m21.407498 3.163141l0.723769-5.307644c3.624209 0.493236 7.178723 0.959665 10.668901 1.393927l-0.654074 5.318366c-3.522346-0.434262-7.098304-0.900691-10.738596-1.399288z m21.514722 2.664545l0.584377-5.334451c3.624209 0.396733 7.184084 0.750576 10.684984 1.072252l-0.487874 5.345173c-3.533068-0.321675-7.119749-0.686241-10.776126-1.082974z m21.584419 1.967581l0.38601-5.350534c3.645654 0.262702 7.216251 0.482513 10.711791 0.648712l-0.25734 5.355895a472.358869 472.358869 0 0 1-10.840461-0.654073z m21.71845 1.040084l0.117948-5.361257c3.656377 0.080419 7.221613 0.107225 10.706429 0.069696l0.053613 5.361257c-3.538429 0.032168-7.162639 0.010723-10.87799-0.069696z m21.820314-0.246618l-0.262701-5.355895c3.661738-0.17156 7.21089-0.428901 10.647455-0.750576l0.503958 5.339811c-3.522346 0.332398-7.151916 0.589738-10.894073 0.76666z m21.739896-2.09089l-0.804189-5.302283a148.887455 148.887455 0 0 0 10.416922-1.951497l1.179476 5.227225c-3.447288 0.782743-7.044691 1.452901-10.792209 2.026555z m21.552251-4.959162l-1.66199-5.098555c3.468733-1.125864 6.723016-2.396482 9.757487-3.806493l2.251728 4.868021c-3.232838 1.501152-6.685487 2.841466-10.347225 4.037027z m20.126157-9.478702l-2.975497-4.460566a52.551037 52.551037 0 0 0 7.966827-6.481759l3.785047 3.79577a57.901571 57.901571 0 0 1-8.776377 7.146555z m15.965822-16.137382l-4.546346-2.841466a45.377675 45.377675 0 0 0 4.396231-9.199916l5.061026 1.763853a50.738932 50.738932 0 0 1-4.910911 10.277529z m7.586178-21.584419l-5.313005-0.729131c0.310953-2.289257 0.503958-4.669654 0.568293-7.130471 0.026806-1.217005 0.048251-2.321424 0.053613-3.425843l5.361256 0.053612c-0.005361 1.131225-0.026806 2.26245-0.053612 3.506262-0.075058 2.659183-0.278785 5.237948-0.616545 7.72021z m0.498597-22.158073l-5.355895 0.235895c-0.160838-3.704628-0.428901-7.226974-0.814911-10.577759l5.329089-0.605822c0.396733 3.474094 0.675518 7.12511 0.841717 10.947686z m-2.573403-21.922178l-5.254032 1.093696c-0.750576-3.624209-1.66199-6.985717-2.728879-10.095246l5.07711-1.737047c1.136586 3.323979 2.106974 6.905298 2.90044 10.738597z m-7.436063-21.101906l-4.696461 2.578764a44.385843 44.385843 0 0 0-5.854492-8.326031l3.988775-3.586681a49.736377 49.736377 0 0 1 6.562178 9.328587z m-15.306387-16.791456l-2.90044 4.503456a40.27912 40.27912 0 0 0-9.151665-4.331895l1.694157-5.087833a45.624293 45.624293 0 0 1 10.357948 4.916272z m-21.702367-7.409256l-0.659435 5.323728a78.638911 78.638911 0 0 0-10.422282-0.541487l-0.053613-5.361257c3.913717-0.037529 7.612984 0.144754 11.13533 0.579016z m-22.388607 0.069696l0.525403 5.33445c-3.238199 0.321675-6.631874 0.750576-10.449089 1.318869l-0.782744-5.307643c3.897634-0.573654 7.371728-1.018639 10.70643-1.345676z m-21.369969 3.206032l1.072251 5.254031c-3.677822 0.745215-7.114387 1.565487-10.315057 2.460817l-1.442178-5.168252c3.323979-0.927497 6.889215-1.774576 10.684984-2.546596z m-21.235937 6.058219l1.978304 4.985969c-3.549152 1.404649-6.647958 2.927246-9.285697 4.546346l-2.798576-4.573152a65.905927 65.905927 0 0 1 10.105969-4.953801z m-19.171853 12.561425l4.144251 3.399036c-2.230283 2.723518-3.377592 5.538178-3.527707 8.411812l-5.350534-0.278786c0.209089-4.047749 1.796021-7.950743 4.73399-11.526701z m-1.367121 23.503748l4.557068-2.825382c1.570848 2.535874 3.822576 5.018136 6.664042 7.328838l-3.388314 4.160335c-3.275728-2.669906-5.92955-5.591791-7.832796-8.663791z m17.735037 14.990073l2.412565-4.787602c2.98622 1.501152 6.219058 2.798576 9.602011 3.844021l-1.586932 5.12a68.254157 68.254157 0 0 1-10.427644-4.176419z m21.434303 6.685487l0.793466-5.307644c3.431204 0.514681 6.899937 0.772021 10.357948 0.755938l0.016084 5.361256a73.878115 73.878115 0 0 1-11.167498-0.80955z m21.965068-0.058973l-0.847078-5.296922c3.431204-0.546848 6.78199-1.377843 10.02555-2.498345l1.742408 5.071748c-3.538429 1.217005-7.184084 2.123058-10.92088 2.723519z m21.541529-7.902493l-3.125612-4.358701c2.117696-1.522597 4.701822-3.667099 8.084775-6.701571l3.575958 3.999498c-3.516984 3.147058-6.22978 5.404147-8.535121 7.060774z m16.539477-14.405696l-3.656377-3.929801c3.774325-3.511623 5.811602-5.409508 7.913214-7.344921l3.634932 3.935162c-2.09089 1.930052-4.117445 3.817215-7.891769 7.33956z m15.858597-14.614785l-3.586681-3.983414c2.744963-2.471539 5.430953-4.846576 8.116942-7.184084l3.511623 4.05311c-2.659183 2.30534-5.318366 4.664293-8.041884 7.114388z m16.207078-14.046492l-3.420482-4.128168a443.906681 443.906681 0 0 1 8.433257-6.82488l3.323979 4.208587a438.550785 438.550785 0 0 0-8.336754 6.744461z m16.855791-13.295917l-3.211393-4.289005c2.911162-2.17667 5.84377-4.305089 8.803183-6.390618l3.088084 4.385508c-2.916524 2.053361-5.811602 4.149613-8.679874 6.294115z m17.525947-12.33089l-2.959413-4.476649a352.609843 352.609843 0 0 1 9.167748-5.859853l2.820021 4.557068a347.248586 347.248586 0 0 0-9.028356 5.774073z m18.249718-11.269361l-2.669906-4.648209a329.59933 329.59933 0 0 1 9.521591-5.259393l2.51443 4.73399c-3.147058 1.672712-6.27267 3.399037-9.366115 5.173612z m18.941319-10.052356l-2.353592-4.81977a313.595979 313.595979 0 0 1 9.870074-4.61068l2.182031 4.900188c-3.259644 1.452901-6.48712 2.964775-9.698513 4.530262z m19.600754-8.733487l-2.010471-4.969885a303.162974 303.162974 0 0 1 10.164942-3.892272l1.822827 5.039581c-3.350785 1.217005-6.674764 2.487623-9.977298 3.822576z m20.136879-7.29667l-1.640544-5.103916a297.721298 297.721298 0 0 1 10.427644-3.152419l1.458262 5.16289c-3.441927 0.965026-6.857047 1.999749-10.245362 3.093445z m20.538974-5.795518l-1.265256-5.211142c3.522346-0.857801 7.066136-1.645906 10.636733-2.375036l1.072251 5.254031c-3.506262 0.713047-6.985717 1.490429-10.443728 2.332147z m20.994681-4.289006l-0.879246-5.29156c3.565236-0.589738 7.151916-1.125864 10.765403-1.592293l0.686241 5.318367c-3.549152 0.461068-7.071497 0.98111-10.572398 1.565486z m21.176963-2.750324l-0.498597-5.33445a309.092524 309.092524 0 0 1 10.861906-0.820273l0.310953 5.350534c-3.581319 0.209089-7.141194 0.477152-10.6689 0.804189z m21.37533-1.23845l-0.123309-5.361257c3.608126-0.080419 7.232335-0.107225 10.883351-0.069696l-0.058974 5.361256a316.432084 316.432084 0 0 0-10.701068 0.069697z m21.46111 0.225172l0.230534-5.361256c3.602764 0.160838 7.221613 0.375288 10.861906 0.654073l-0.407456 5.345173c-3.581319-0.268063-7.141194-0.482513-10.684984-0.643351z m21.423581 1.624461l0.573655-5.329089c3.575958 0.38601 7.173361 0.825634 10.786848 1.32423l-0.734492 5.307644a354.840126 354.840126 0 0 0-10.626011-1.302785z m21.273466 2.937969l0.889969-5.286199c3.543791 0.595099 7.109026 1.249173 10.684984 1.956858l-1.034722 5.254032c-3.533068-0.696963-7.044691-1.340314-10.540231-1.924691z m21.107267 4.165696l1.179477-5.227225c3.511623 0.788105 7.028607 1.635183 10.561675 2.530513l-1.313508 5.200419c-3.490178-0.889969-6.969634-1.720963-10.427644-2.503707z m20.748063 5.254031l1.447539-5.157528c3.45801 0.965026 6.932105 1.983665 10.416922 3.055916l-1.570848 5.125361a443.188272 443.188272 0 0 0-10.293613-3.018387z m20.533613 6.299477l1.688795-5.093194c3.404398 1.136586 6.82488 2.316063 10.256084 3.538429l-1.806743 5.055665a480.395393 480.395393 0 0 0-10.143498-3.5009z m20.169047 7.205529l1.913968-5.007414c3.350785 1.28134 6.712293 2.605571 10.089885 3.972691l-2.010471 4.969885a521.178471 521.178471 0 0 0-9.993382-3.935162z m19.943874 8.084775l2.117696-4.926995c3.291812 1.415372 6.605068 2.873634 9.918325 4.369424l-2.198115 4.889466a565.719791 565.719791 0 0 0-9.837906-4.331895z m19.654367 8.87824l2.299979-4.846576c3.238199 1.533319 6.48712 3.109529 9.757487 4.728629l-2.38576 4.803686c-3.232838-1.608377-6.454953-3.163141-9.671706-4.685739z m19.139685 9.473341l2.466178-4.760796a670.157068 670.157068 0 0 1 9.580566 5.050304l-2.535874 4.717905a664.795812 664.795812 0 0 0-9.51087-5.007413z m19.000294 10.202471l2.610932-4.685738 3.431204 1.930052c2.09089 1.179476 4.085277 2.326785 5.988523 3.441927l-2.712796 4.621403a411.337047 411.337047 0 0 0-9.317863-5.307644z m18.458806 10.883351l2.884356-4.51954c3.436565 2.198115 6.460314 4.251476 9.071246 6.176168l-3.179225 4.315811a160.296209 160.296209 0 0 0-8.776377-5.972439z m16.662785 12.652565l3.870827-3.699267c5.07711 5.296921 6.35845 10.095246 2.81466 13.719456l-3.833298-3.75288c0.965026-0.98111 0.482513-2.777131-2.852189-6.261948z m-5.699015 9.006911l0.68624 5.313005c-3.120251 0.402094-6.814157 0.616545-11.097801 0.659435l-0.048251-5.361257a90.224586 90.224586 0 0 0 10.45445-0.616544z m-21.391414 0.391372l-0.230534 5.361256c-3.361508-0.150115-6.969634-0.369927-10.845822-0.654073l0.391372-5.345173c3.822576 0.278785 7.38245 0.493236 10.690345 0.643351z m-20.924984-1.49043l-0.487875 5.339812a825.740733 825.740733 0 0 1-10.776125-1.072251l0.55757-5.329089c3.763602 0.396733 7.323476 0.750576 10.70643 1.061528z m-21.300273-2.224921l-0.611183 5.323728c-3.399037-0.38601-6.958911-0.804188-10.738597-1.265257l0.643351-5.318366c3.768963 0.450346 7.318115 0.868524 10.706429 1.259895z m-21.568335-2.594848l-0.664796 5.318366c-3.270366-0.407455-6.723016-0.841717-10.71179-1.351036l0.675518-5.318367 10.701068 1.351037z m-21.63267-2.744963l-0.680879 5.318366-10.701068-1.361759 0.675518-5.318367 10.706429 1.36176z m-21.584419-2.734241l-0.659434 5.323727c-3.785047-0.466429-7.323476-0.900691-10.701068-1.302785l0.632628-5.323728c3.388314 0.407455 6.932105 0.836356 10.722513 1.308147z m-21.46111-2.551958l-0.60046 5.329089c-3.742157-0.423539-7.29667-0.80955-10.70643-1.163393l0.55221-5.33445c3.425843 0.359204 7.001801 0.745215 10.75468 1.168754z m-21.562973-2.219561l-0.482514 5.339812a583.572775 583.572775 0 0 0-10.706429-0.873885l0.386011-5.345173c3.409759 0.241257 7.007162 0.536126 10.802932 0.879246z m-21.166241-1.501151l-0.246618 5.361256c-3.860105-0.182283-7.414618-0.273424-10.668901-0.278785l0.010723-5.361257c3.334702 0 6.969634 0.101864 10.904796 0.278786z m-21.938262 0.107225l0.444984 5.345172c-4.22467 0.348482-7.559372 0.948942-9.950492 1.796021l-1.774576-5.061026c2.884356-1.018639 6.642597-1.694157 11.280084-2.080167z m-18.941319 12.893822l5.345172-0.386011c0.176921 2.450094 1.340314 5.430953 3.49554 8.803183l-4.514178 2.895079c-2.600209-4.074555-4.079916-7.864963-4.326534-11.312251z m11.446282 20.249466l3.913718-3.6671c2.203476 2.34823 4.744712 4.77688 7.602261 7.259141l-3.516984 4.047749a109.712754 109.712754 0 0 1-7.998995-7.63979z m16.85043 14.770261l3.216754-4.289005a202.92356 202.92356 0 0 0 8.695958 6.160084l-2.991582 4.449843a208.268733 208.268733 0 0 1-8.92113-6.326283z m17.783288 11.998493l2.798575-4.567791c2.964775 1.812105 6.036775 3.618848 9.221362 5.409508l-2.627016 4.669654a293.67355 293.67355 0 0 1-9.392921-5.511371z m19.07535 10.749319l2.476901-4.755435c3.109529 1.619099 6.304838 3.216754 9.575204 4.798325l-2.326785 4.825131a366.37755 366.37755 0 0 1-9.72532-4.868021z m19.691896 9.510869l2.198115-4.889466c3.216754 1.447539 6.497843 2.868272 9.837906 4.262199l-2.074807 4.94844c-3.377592-1.415372-6.701571-2.85755-9.961214-4.321173z m20.136879 8.433257l1.951498-4.996692c3.297173 1.286702 6.647958 2.551958 10.036272 3.785048l-1.83355 5.039581c-3.431204-1.249173-6.814157-2.525152-10.15422-3.827937z m20.528252 7.46823l1.715602-5.07711c3.366869 1.136586 6.771267 2.251728 10.207832 3.32934l-1.608377 5.114639a506.300984 506.300984 0 0 1-10.315057-3.366869z m20.324523 6.406701l1.506513-5.146806c3.420482 1.002555 6.862408 1.978304 10.341864 2.916524l-1.399288 5.178974a533.509361 533.509361 0 0 1-10.449089-2.948692z m20.919623 5.67221l1.297424-5.200419c3.45801 0.857801 6.937466 1.694157 10.443728 2.498346l-1.19556 5.227225c-3.538429-0.814911-7.055414-1.656628-10.545592-2.525152z m21.128712 4.841215l1.099058-5.248671c3.490178 0.729131 7.001801 1.431455 10.534869 2.096252l-0.997194 5.270115c-3.565236-0.675518-7.109026-1.383204-10.636733-2.117696z m21.300272 4.031664l0.900691-5.286198c3.516984 0.600461 7.050052 1.163393 10.604566 1.699518l-0.804189 5.302283c-3.581319-0.536126-7.146555-1.115141-10.701068-1.715603z m21.487917 3.238199l0.702324-5.307644c3.538429 0.461068 7.092942 0.900691 10.658178 1.302786l-0.60046 5.329089c-3.602764-0.407455-7.184084-0.85244-10.760042-1.324231z m21.600502 2.455456l0.503958-5.339812c3.559874 0.337759 7.130471 0.643351 10.70643 0.922137l-0.412817 5.345172c-3.608126-0.278785-7.21089-0.589738-10.797571-0.927497z m21.670199 1.661989l0.321676-5.345172c3.559874 0.209089 7.135832 0.38601 10.722513 0.536125l-0.214451 5.355896c-3.624209-0.150115-7.232335-0.327037-10.829738-0.541487z m21.697005 0.89533l0.128671-5.361256a610.64712 610.64712 0 0 0 10.743958 0.160837l-0.032168 5.361257a616.008377 616.008377 0 0 1-10.840461-0.160838z m21.761341 0.12867l-0.064335-5.361256c3.570597-0.04289 7.151916-0.117948 10.738597-0.219812l0.160837 5.361257c-3.618848 0.101864-7.232335 0.176921-10.835099 0.21445z m21.713089-0.637989l-0.251979-5.355895c3.570597-0.166199 7.146555-0.364565 10.722513-0.589739l0.348481 5.345173c-3.613487 0.230534-7.221613 0.428901-10.824377 0.600461z" fill="#99A4B0" p-id="15043"></path><path d="M887.598911 135.998995c36.837194 0 66.704754-29.245654 66.704754-65.316189C954.303665 34.606911 924.441466 5.361257 887.598911 5.361257c-36.831832 0-66.694031 29.245654-66.694031 65.321549 0 13.349529 4.101361 25.750115 11.119246 36.086618l-56.496922 102.65734c-7.688042 13.976796-2.30534 31.577801 11.955602 39.115728 14.287749 7.532565 32.258681 2.26245 39.957445-11.719707l9.655623-17.547392 17.558116 9.25889c9.039079 4.782241 20.426387 1.447539 25.315853-7.419979l6.122555-11.146053c4.878743-8.862157 1.463623-20.013571-7.580817-24.79045l-17.552754-9.25889 22.0991-40.145089c1.501152 0.101864 3.002304 0.225173 4.540984 0.225173" fill="#FFFFFF" p-id="15044"></path><path d="M924.403937 21.616586A63.241382 63.241382 0 0 0 888.805194 10.722513c-34.462157 0-62.485445 27.288796-62.485445 60.823456 0 12.003853 3.592042 23.616335 10.41156 33.604356l1.415372 2.069445-57.746095 104.292523a23.782534 23.782534 0 0 0-1.930052 18.700063c1.329592 4.342618 3.860105 8.084775 7.184084 11.044189 10.357948-0.123309 20.362052-5.404147 25.594639-14.861404L866.915183 125.882304c1.517236 0.107225 3.023749 0.230534 4.557068 0.230534 36.864 0 66.753005-29.090178 66.753006-64.973068 0-14.877487-5.146806-28.580859-13.815959-39.528545" fill="#F0F5F9" p-id="15045"></path><path d="M815.538262 70.682806C815.538262 31.620691 847.82911 0 887.59355 0 927.379435 0 959.664921 31.620691 959.664921 70.682806c0 39.056754-32.290848 70.677445-72.06601 70.677445-0.514681 0-0.975749-0.005361-1.485068-0.026806l-17.831539 32.387351 12.732984 6.717654c11.682178 6.165445 16.099853 20.614031 9.773571 32.113927l-6.127917 11.151414c-6.299476 11.43556-20.898178 15.713843-32.510659 9.575204l-12.893822-6.808796-7.119749 12.942073c-9.114136 16.550199-30.291099 22.763895-47.152251 13.874932-16.904042-8.937215-23.29466-29.830031-14.153718-46.444565l54.95288-99.858765a69.278157 69.278157 0 0 1-10.24-36.295706z m72.055288 59.954932c33.909948 0 61.348859-26.870618 61.348858-59.954932C948.942408 37.593131 921.503497 10.722513 887.598911 10.722513c-33.899225 0-61.332775 26.870618-61.332775 59.960293 0 11.923435 3.575958 23.326827 10.19711 33.078953l1.844272 2.712796-1.58157 2.878995-56.502283 102.65734c-6.235141 11.339058-1.860356 25.648251 9.762848 31.792251 11.708984 6.170806 26.479246 1.838911 32.757278-9.564481l12.196858-22.163435 4.658932 2.455456 17.558115 9.264251c6.465675 3.420482 14.646953 1.018639 18.110325-5.264754l6.127916-11.146052c3.420482-6.219058 1.018639-14.084021-5.382701-17.461613l-22.383246-11.810848 26.377382-47.91355 3.404398 0.225173 0.766659 0.053613c1.758492 0.123309 2.514429 0.160838 3.420482 0.160837z" fill="#99A4B0" p-id="15046"></path><path d="M906.052356 72.376963a18.764398 18.764398 0 1 1-37.528796 0 18.764398 18.764398 0 0 1 37.528796 0" fill="#FFFFFF" p-id="15047"></path><path d="M900.691099 72.376963a13.403141 13.403141 0 1 0-26.806282 0 13.403141 13.403141 0 0 0 26.806282 0z m10.722514 0a24.125654 24.125654 0 1 1-48.251309 0 24.125654 24.125654 0 0 1 48.251309 0z" fill="#99A4B0" p-id="15048"></path></svg>