<?xml version="1.0" standalone="no"?><!DOCTYPE svg PUBLIC "-//W3C//DTD SVG 1.1//EN" "http://www.w3.org/Graphics/SVG/1.1/DTD/svg11.dtd"><svg t="1584613993740" class="icon" viewBox="0 0 1024 1024" version="1.1" xmlns="http://www.w3.org/2000/svg" p-id="13466" width="128" height="128" xmlns:xlink="http://www.w3.org/1999/xlink"><defs><style type="text/css"></style></defs><path d="M0 0h1024v1024H0z" fill="#40BBF4" p-id="13467"></path><path d="M696.746667 565.973333h176a311.253333 311.253333 0 0 0-42.666667-194.346666c29.013333-74.24 27.946667-137.173333-10.88-174.933334s-135.893333-29.653333-247.893333 18.133334H546.133333a325.973333 325.973333 0 0 0-317.44 238.293333A452.906667 452.906667 0 0 1 395.306667 320c-6.186667 5.546667-42.666667 39.893333-48.213334 45.866667-178.56 171.946667-234.666667 396.8-174.293333 455.253333 46.08 44.373333 129.493333 36.906667 225.493333-8.32a335.573333 335.573333 0 0 0 149.333334 34.133333 327.253333 327.253333 0 0 0 310.186666-213.333333h-178.133333a146.986667 146.986667 0 0 1-253.866667 0 135.68 135.68 0 0 1-17.066666-65.92z m-287.573334-83.2a138.453333 138.453333 0 0 1 275.626667 0z m408.96-250.666666c24.96 24.32 24.32 69.12 2.986667 125.013333a326.186667 326.186667 0 0 0-152.746667-120.533333c67.2-27.733333 121.813333-31.36 149.333334-4.48zM219.093333 809.173333c-31.786667-30.72-21.333333-95.36 18.773334-173.013333a320 320 0 0 0 139.733333 164.693333c-71.253333 31.146667-129.493333 36.266667-158.506667 8.32z" fill="#FFFFFF" p-id="13468"></path></svg>