<?xml version="1.0" standalone="no"?><!DOCTYPE svg PUBLIC "-//W3C//DTD SVG 1.1//EN" "http://www.w3.org/Graphics/SVG/1.1/DTD/svg11.dtd"><svg t="1584613356549" class="icon" viewBox="0 0 1024 1024" version="1.1" xmlns="http://www.w3.org/2000/svg" p-id="1442" xmlns:xlink="http://www.w3.org/1999/xlink" width="128" height="128"><defs><style type="text/css"></style></defs><path d="M349.418667 128.021333L521.152 128c33.493333 0 45.098667 1.258667 57.962667 4.266667a111.573333 111.573333 0 0 1 35.370666 14.997333l3.861334 2.56c8.96 6.101333 17.749333 13.76 35.626666 32l123.733334 127.573333c22.698667 23.402667 29.717333 32.277333 36.373333 43.2 6.677333 10.901333 11.157333 21.973333 13.973333 34.432l0.917334 4.394667c2.133333 11.029333 3.029333 23.168 3.029333 51.946667v288.533333l-0.106667 13.013333c-0.874667 47.36-6.72 66.410667-16.981333 85.610667a116.309333 116.309333 0 0 1-48.384 48.384c-20.864 11.157333-41.557333 17.088-98.624 17.088H356.096l-13.013333-0.106667c-47.36-0.874667-66.410667-6.72-85.610667-16.981333a116.309333 116.309333 0 0 1-48.384-48.384c-10.709333-20.053333-16.597333-39.893333-17.066667-91.946667L192 292.074667c0-57.045333 5.930667-77.738667 17.088-98.602667a116.309333 116.309333 0 0 1 48.384-48.384c20.053333-10.709333 39.893333-16.597333 91.946667-17.066667z" fill="#F3544B" p-id="1443"></path><path d="M579.114667 132.266667a111.573333 111.573333 0 0 1 35.370666 14.997333l3.861334 2.56c8.96 6.101333 17.749333 13.76 35.626666 32l123.733334 127.573333c22.698667 23.402667 29.717333 32.277333 36.373333 43.2 2.218667 3.605333 4.181333 7.232 5.930667 10.922667h-53.418667c-66.56 0-90.709333-6.933333-115.050667-19.946667a135.68 135.68 0 0 1-56.448-56.448l-2.688-5.226666c-11.285333-22.784-17.258667-48-17.258666-109.824V131.413333l3.968 0.896z" fill="#000000" opacity=".104" p-id="1444"></path><path d="M614.485333 147.264l3.861334 2.56c8.96 6.101333 17.749333 13.76 35.626666 32l123.733334 127.573333c14.869333 15.36 23.018667 24.426667 28.736 31.957334L761.429333 341.333333l-13.013333-0.106666c-47.36-0.874667-66.410667-6.72-85.610667-16.981334a116.309333 116.309333 0 0 1-48.384-48.384c-11.157333-20.864-17.088-41.557333-17.088-98.624v-39.04c5.888 2.474667 11.562667 5.482667 17.152 9.066667z" fill="#FFC7C7" p-id="1445"></path><path d="M431.168 432l0.426667-1.194667 1.493333-3.008 0.725333-1.045333c7.957333-11.690667 19.392-19.712 32.256-21.162667 18.304-2.090667 33.664 8.96 43.797334 29.141334 7.573333 15.104 4.864 44.949333-5.973334 89.237333 7.189333 11.648 14.997333 22.272 23.146667 31.445333 2.56 2.901333 5.418667 5.76 8.533333 8.597334 11.562667-1.728 23.36-3.157333 35.370667-4.266667l11.264-0.853333c17.408-1.088 32.789333-0.469333 45.610667 2.005333 27.242667 5.290667 44.16 19.989333 44.16 43.52 0 22.826667-15.594667 37.973333-39.552 42.133333-13.333333 2.346667-30.016 1.28-43.114667-2.453333-18.389333-5.248-45.013333-18.389333-66.026667-33.237333l-8.213333 1.173333-12.373333 1.984c-13.696 2.304-24.704 4.586667-32.96 6.826667l-7.808 15.573333-6.826667 16.384c-17.749333 41.152-30.037333 56.789333-52.629333 62.186667-31.829333 7.594667-56.597333-5.290667-60.629334-33.450667-2.581333-17.92 4.842667-40.021333 17.386667-52.224 13.482667-13.077333 43.584-28.949333 78.570667-41.408l4.842666-14.016 4.48-13.44c2.773333-8.533333 5.162667-16.064 7.125334-22.656l2.154666-7.509333-2.944-5.632c-19.029333-37.418667-28.736-73.962667-22.293333-92.650667z m47.658667 112.96l-3.370667 11.008-3.989333 12.394667-4.608 13.802666-4.928 14.293334c9.258667-2.581333 21.226667-5.12 36.032-7.594667l13.376-2.133333 9.706666-1.408a138.773333 138.773333 0 0 1-13.162666-12.906667 245.290667 245.290667 0 0 1-21.546667-28.373333l-4.992-7.893334-2.517333 8.810667z m63.978666 48.234667c17.856 11.882667 39.253333 22.208 53.525334 26.282666a78.208 78.208 0 0 0 31.701333 1.856c12.608-2.197333 18.346667-7.765333 18.346667-16.917333 0-9.152-6.933333-15.168-23.445334-18.389333-11.989333-2.346667-27.754667-2.666667-46.08-1.088l-3.605333 0.32c-8.106667 0.746667-16.085333 1.621333-23.957333 2.666666l-11.733334 1.664 5.248 3.605334z m-103.253333 21.333333c-28.842667 10.88-52.885333 23.850667-62.485333 33.152-6.634667 6.464-11.306667 20.352-9.877334 30.229333 1.685333 11.712 10.986667 16.554667 29.333334 12.16 12.245333-2.922667 20.266667-13.141333 34.986666-47.274666l7.168-17.045334 6.677334-13.376-5.824 2.154667z m39.402667-96.362667l2.581333-11.050666c7.146667-32.064 8.832-54.122667 5.44-60.906667-5.76-11.477333-11.882667-15.893333-18.026667-15.189333-4.629333 0.533333-9.685333 4.010667-13.696 9.749333-3.136 10.474667 5.226667 41.088 20.992 72.192l2.709334 5.205333z" fill="#FFFFFF" p-id="1446"></path></svg>