<?xml version="1.0" standalone="no"?><!DOCTYPE svg PUBLIC "-//W3C//DTD SVG 1.1//EN" "http://www.w3.org/Graphics/SVG/1.1/DTD/svg11.dtd"><svg t="1584611720765" class="icon" viewBox="0 0 1024 1024" version="1.1" xmlns="http://www.w3.org/2000/svg" p-id="17351" xmlns:xlink="http://www.w3.org/1999/xlink" width="128" height="128"><defs><style type="text/css"></style></defs><path d="M0 0m128 0l768 0q128 0 128 128l0 768q0 128-128 128l-768 0q-128 0-128-128l0-768q0-128 128-128Z" fill="#F3796E" p-id="17352"></path><path d="M732.48 544a578.88 578.88 0 0 0-109.44 12.16A516.8 516.8 0 0 1 515.52 416c29.44-96 32-163.2 8.64-194.56A57.6 57.6 0 0 0 480 200a55.68 55.68 0 0 0-53.76 27.84c-32 52.16 14.08 154.56 34.88 196.48A1249.92 1249.92 0 0 1 367.68 640c-165.12 71.36-168.64 114.88-168.64 130.56a51.52 51.52 0 0 0 29.44 46.72 44.48 44.48 0 0 0 26.24 7.04c43.52 0 93.76-48.64 147.52-144.32A1246.08 1246.08 0 0 1 608 613.76a221.44 221.44 0 0 0 128 52.16c29.44 0 86.72 0 86.72-59.2 3.84-22.72-8.32-60.8-90.24-62.72zM256 771.84l-5.12 1.6a139.52 139.52 0 0 1 64-50.24A110.4 110.4 0 0 1 256 771.84z m214.08-517.76a10.24 10.24 0 0 1 7.04-1.92h5.12a148.48 148.48 0 0 1-2.24 90.56 143.68 143.68 0 0 1-9.92-88.64z m90.56 336.96a974.08 974.08 0 0 0-118.4 34.88v-3.52l-3.2 1.6c18.88-38.08 36.48-78.08 51.84-118.08h1.92v-3.2a541.44 541.44 0 0 0 69.76 85.12h-5.44z m177.28 22.72a142.72 142.72 0 0 1-52.16-14.08 195.2 195.2 0 0 1 45.12-3.52c34.88 0 41.6 8.96 41.6 14.08a77.12 77.12 0 0 1-34.56 3.52z" fill="#FFFFFF" p-id="17353"></path></svg>