<?xml version="1.0" standalone="no"?><!DOCTYPE svg PUBLIC "-//W3C//DTD SVG 1.1//EN" "http://www.w3.org/Graphics/SVG/1.1/DTD/svg11.dtd"><svg t="1584613517271" class="icon" viewBox="0 0 1024 1024" version="1.1" xmlns="http://www.w3.org/2000/svg" p-id="4102" xmlns:xlink="http://www.w3.org/1999/xlink" width="128" height="128"><defs><style type="text/css"></style></defs><path d="M273.066667 810.097778c2.275556-1.137778 4.551111-2.275556 5.688889-3.413334l309.475555-209.351111c10.24-6.826667 20.48-17.066667 27.306667-27.306666 31.857778-46.648889 19.342222-110.364444-27.306667-142.222223L278.755556 217.315556c-2.275556-1.137778-4.551111-2.275556-5.688889-3.413334v-10.24c0-62.577778 51.2-113.777778 113.777777-113.777778 22.755556 0 44.373333 6.826667 63.715556 19.342223l458.524444 309.475555c52.337778 35.271111 65.991111 105.813333 30.72 158.151111-7.964444 12.515556-18.204444 22.755556-30.72 30.72L450.56 915.911111a113.664 113.664 0 0 1-158.151111-30.72c-12.515556-19.342222-19.342222-40.96-19.342222-63.715555v-11.377778z" fill="#FFDD52" p-id="4103"></path><path d="M273.066667 810.097778V213.902222c2.275556 1.137778 4.551111 2.275556 5.688889 3.413334l309.475555 209.351111c46.648889 31.857778 59.164444 95.573333 27.306667 142.222222-6.826667 10.24-17.066667 20.48-27.306667 27.306667L278.755556 806.684444c-1.137778 1.137778-3.413333 2.275556-5.688889 3.413334z" fill="#FFA806" p-id="4104"></path><path d="M273.066667 810.097778c-46.648889 26.168889-105.813333 13.653333-136.533334-30.72-11.377778-17.066667-17.066667-36.408889-17.066666-56.888889V302.648889c0-56.888889 45.511111-102.4 102.4-102.4 18.204444 0 35.271111 4.551111 51.2 13.653333v596.195556z" fill="#FFC92B" p-id="4105"></path></svg>