<?xml version="1.0" standalone="no"?><!DOCTYPE svg PUBLIC "-//W3C//DTD SVG 1.1//EN" "http://www.w3.org/Graphics/SVG/1.1/DTD/svg11.dtd"><svg t="1584608282857" class="icon" viewBox="0 0 1204 1024" version="1.1" xmlns="http://www.w3.org/2000/svg" p-id="13071" xmlns:xlink="http://www.w3.org/1999/xlink" width="150.5" height="128"><defs><style type="text/css"></style></defs><path d="M180.705882 1024c-102.4 0-180.705882-78.305882-180.705882-180.705882V180.705882c0-102.4 78.305882-180.705882 180.705882-180.705882h240.941177c102.4 0 180.705882 78.305882 180.705882 180.705882h421.647059c102.4 0 180.705882 78.305882 180.705882 180.705883v481.882353c0 102.4-78.305882 180.705882-180.705882 180.705882H180.705882z" fill="#FFC25A" p-id="13072"></path><path d="M301.176471 361.411765h602.352941c66.258824 0 120.470588 54.211765 120.470588 120.470588v361.411765c0 66.258824-54.211765 120.470588-120.470588 120.470588H301.176471c-66.258824 0-120.470588-54.211765-120.470589-120.470588V481.882353c0-66.258824 54.211765-120.470588 120.470589-120.470588z" fill="#FFFFFF" p-id="13073"></path><path d="M180.705882 542.117647h843.294118c102.4 0 180.705882 78.305882 180.705882 180.705882v120.470589c0 102.4-78.305882 180.705882-180.705882 180.705882H180.705882c-102.4 0-180.705882-78.305882-180.705882-180.705882v-120.470589c0-102.4 78.305882-180.705882 180.705882-180.705882z" fill="#FFD68F" p-id="13074"></path></svg>