<?xml version="1.0" standalone="no"?><!DOCTYPE svg PUBLIC "-//W3C//DTD SVG 1.1//EN" "http://www.w3.org/Graphics/SVG/1.1/DTD/svg11.dtd"><svg t="1584612831844" class="icon" viewBox="0 0 1024 1024" version="1.1" xmlns="http://www.w3.org/2000/svg" p-id="4934" xmlns:xlink="http://www.w3.org/1999/xlink" width="128" height="128"><defs><style type="text/css"></style></defs><path d="M349.418667 128.021333L521.152 128c33.493333 0 45.098667 1.258667 57.962667 4.266667a111.573333 111.573333 0 0 1 35.370666 14.997333l3.861334 2.56c8.96 6.101333 17.749333 13.76 35.626666 32l123.733334 127.573333c22.698667 23.402667 29.717333 32.277333 36.373333 43.2 6.677333 10.901333 11.157333 21.973333 13.973333 34.432l0.917334 4.394667c2.133333 11.029333 3.029333 23.168 3.029333 51.946667v288.533333l-0.106667 13.013333c-0.874667 47.36-6.72 66.410667-16.981333 85.610667a116.309333 116.309333 0 0 1-48.384 48.384c-20.864 11.157333-41.557333 17.088-98.624 17.088H356.096l-13.013333-0.106667c-47.36-0.874667-66.410667-6.72-85.610667-16.981333a116.309333 116.309333 0 0 1-48.384-48.384c-10.709333-20.053333-16.597333-39.893333-17.066667-91.946667L192 292.074667c0-57.045333 5.930667-77.738667 17.088-98.602667a116.309333 116.309333 0 0 1 48.384-48.384c20.053333-10.709333 39.893333-16.597333 91.946667-17.066667z" fill="#FF9500" p-id="4935"></path><path d="M579.114667 132.266667a111.573333 111.573333 0 0 1 35.370666 14.997333l3.861334 2.56c8.96 6.101333 17.749333 13.76 35.626666 32l123.733334 127.573333c22.698667 23.402667 29.717333 32.277333 36.373333 43.2 2.218667 3.605333 4.181333 7.232 5.930667 10.922667h-53.418667c-66.56 0-90.709333-6.933333-115.050667-19.946667a135.68 135.68 0 0 1-56.448-56.448l-2.688-5.226666c-11.285333-22.784-17.258667-48-17.258666-109.824V131.413333l3.968 0.896z" fill="#000000" opacity=".104" p-id="4936"></path><path d="M614.485333 147.264l3.861334 2.56c8.96 6.101333 17.749333 13.76 35.626666 32l123.733334 127.573333c14.869333 15.36 23.018667 24.426667 28.736 31.957334L761.429333 341.333333l-13.013333-0.106666c-47.36-0.874667-66.410667-6.72-85.610667-16.981334a116.309333 116.309333 0 0 1-48.384-48.384c-11.157333-20.864-17.088-41.557333-17.088-98.624v-39.04c5.888 2.474667 11.562667 5.482667 17.152 9.066667z" fill="#FFEFD7" p-id="4937"></path><path d="M512 576a64 64 0 1 1 0 128 64 64 0 0 1 0-128z m0 42.666667a21.333333 21.333333 0 1 0 0 42.666666 21.333333 21.333333 0 0 0 0-42.666666z" fill="#FFFFFF" p-id="4938"></path><path d="M554.666667 512a21.333333 21.333333 0 1 1 0 42.666667h-21.333334v64h-42.666666v-64h-21.333334a21.333333 21.333333 0 1 1 0-42.666667h85.333334z m0-64a21.333333 21.333333 0 1 1 0 42.666667h-85.333334a21.333333 21.333333 0 1 1 0-42.666667h85.333334z" fill="#FFFFFF" p-id="4939"></path></svg>