<?xml version="1.0" standalone="no"?><!DOCTYPE svg PUBLIC "-//W3C//DTD SVG 1.1//EN" "http://www.w3.org/Graphics/SVG/1.1/DTD/svg11.dtd"><svg t="1584613261302" class="icon" viewBox="0 0 1024 1024" version="1.1" xmlns="http://www.w3.org/2000/svg" p-id="22109" xmlns:xlink="http://www.w3.org/1999/xlink" width="128" height="128"><defs><style type="text/css"></style></defs><path d="M264.33536 414.63808a40.96 40.96 0 0 1 65.24928 0l179.38432 236.4416A40.96 40.96 0 0 1 476.32384 716.8H117.59616a40.96 40.96 0 0 1-32.64512-65.72032l179.38432-236.4416z m-11.34592-99.5328c-30.1056 0-54.4768-24.6784-54.4768-55.15264 0-30.45376 24.3712-55.15264 54.4768-55.15264 30.08512 0 54.4768 24.69888 54.4768 55.15264 0 30.47424-24.39168 55.15264-54.4768 55.15264z" fill="#EBEBEB" p-id="22110"></path><path d="M590.47936 286.98624a40.96 40.96 0 0 1 65.80224 0l270.19264 364.46208A40.96 40.96 0 0 1 893.5424 716.8H353.19808a40.96 40.96 0 0 1-32.89088-65.35168l270.17216-364.46208z" fill="#CCCCCC" p-id="22111"></path></svg>