<?xml version="1.0" standalone="no"?><!DOCTYPE svg PUBLIC "-//W3C//DTD SVG 1.1//EN" "http://www.w3.org/Graphics/SVG/1.1/DTD/svg11.dtd"><svg t="1585216346613" class="icon" viewBox="0 0 1024 1024" version="1.1" xmlns="http://www.w3.org/2000/svg" p-id="78198" xmlns:xlink="http://www.w3.org/1999/xlink" width="128" height="128"><defs><style type="text/css"></style></defs><path d="M511.943686 511.943686m-511.943686 0a511.943686 511.943686 0 1 0 1023.887372 0 511.943686 511.943686 0 1 0-1023.887372 0Z" fill="#E5F0FF" p-id="78199"></path><path d="M126.386098 849.506554C214.376419 751.917289 353.561108 687.924328 511.943686 687.924328s297.567268 63.992961 385.557589 161.582226c-185.579586 212.776595-508.744038 233.574307-721.520633 47.994721-17.598064-15.99824-33.596304-31.99648-49.594544-47.994721z" fill="#529AFF" p-id="78200"></path><path d="M571.137175 678.325384v12.798592c17.598064 1.599824 35.196128 4.799472 52.794193 7.99912-1.599824 46.394897-51.194369 84.790673-111.987682 84.790673s-108.788033-38.395776-111.987681-84.790673c17.598064-3.199648 35.196128-6.399296 52.794192-7.99912v-12.798592c-79.991201-25.597184-132.785394-99.189089-132.785393-182.379938v-95.989441c0-105.588385 86.390497-191.978882 191.978882-191.978882s191.978882 86.390497 191.978883 191.978882v95.989441c0 83.190849-54.394017 156.782754-132.785394 182.379938z" fill="#FFD0B0" p-id="78201"></path><path d="M511.943686 1023.887372c-95.989441 0-190.379058-27.197008-271.970083-78.391377V847.90673c0-27.197008 20.797712-47.994721 47.99472-47.99472h447.950726c27.197008 0 47.994721 20.797712 47.99472 47.99472v97.589265C702.322744 996.690364 607.933127 1023.887372 511.943686 1023.887372z" fill="#D9DBDC" p-id="78202"></path><path d="M511.943686 943.896171m-47.99472 0a47.994721 47.994721 0 1 0 95.989441 0 47.994721 47.994721 0 1 0-95.989441 0Z" fill="#FFFFFF" p-id="78203"></path><path d="M431.952485 495.945446c9.598944 0 15.99824 6.399296 15.99824 15.99824s-6.399296 15.99824-15.99824 15.99824-15.99824-6.399296-15.99824-15.99824 6.399296-15.99824 15.99824-15.99824z m159.982402 0c9.598944 0 15.99824 6.399296 15.99824 15.99824s-6.399296 15.99824-15.99824 15.99824-15.99824-6.399296-15.99824-15.99824 6.399296-15.99824 15.99824-15.99824z" fill="#5B5B5B" p-id="78204"></path><path d="M591.934887 583.935767c-39.9956 0-71.992081-31.99648-71.992081-71.992081s31.99648-71.992081 71.992081-71.992081 71.992081 31.99648 71.992081 71.992081-31.99648 71.992081-71.992081 71.992081z m0-127.985921c-30.396656 0-55.993841 25.597184-55.993841 55.99384s25.597184 55.993841 55.993841 55.993841 55.993841-25.597184 55.993841-55.993841-25.597184-55.993841-55.993841-55.99384z m-159.982402 127.985921c-39.9956 0-71.992081-31.99648-71.992081-71.992081s31.99648-71.992081 71.992081-71.992081 71.992081 31.99648 71.992081 71.992081-31.99648 71.992081-71.992081 71.992081z m0-127.985921c-30.396656 0-55.993841 25.597184-55.99384 55.99384s25.597184 55.993841 55.99384 55.993841 55.993841-25.597184 55.993841-55.993841-25.597184-55.993841-55.993841-55.99384zM511.943686 646.328904c-12.798592 0-23.99736-3.199648-35.196128-9.598944-9.598944-4.799472-14.398416-12.798592-19.197888-19.197889-1.599824-3.199648-1.599824-6.399296 1.599824-9.598944s6.399296-1.599824 9.598944 1.599824c4.799472 6.399296 9.598944 11.198768 15.99824 15.998241 12.798592 7.99912 25.597184 9.598944 39.9956 6.399296 12.798592-3.199648 23.99736-11.198768 30.396657-22.397537 1.599824-3.199648 6.399296-4.799472 7.99912-1.599824 3.199648 1.599824 4.799472 6.399296 1.599824 7.99912-7.99912 14.398416-22.397536 23.99736-38.395777 28.796833-4.799472 1.599824-9.598944 1.599824-14.398416 1.599824z" fill="#404040" p-id="78205"></path><path d="M495.945446 503.944566h31.99648v15.99824h-31.99648z" fill="#404040" p-id="78206"></path><path d="M734.319225 379.158293c-4.799472 35.196128-12.798592 68.792433-25.597184 102.388737l-4.799472 14.398416s-6.399296-57.593665-14.398417-75.191729c-3.199648-7.99912-20.797712-20.797712-25.597184-28.796832-11.198768-15.99824-23.99736-73.591905-23.99736-73.591905-25.597184 6.399296-95.989441 23.99736-129.585746 23.99736s-102.388737-17.598064-129.585745-23.99736c0 0-14.398416 57.593665-23.997361 73.591905-4.799472 7.99912-20.797712 19.197888-25.597184 28.796832-7.99912 17.598064-12.798592 76.791553-12.798592 76.791553l-6.399296-15.99824c-12.798592-33.596304-20.797712-67.192609-25.597185-102.388737-3.199648-33.596304 1.599824-68.792433 12.798593-100.788914 0 0 11.198768-70.392257 89.590145-134.385217 1.599824 7.99912 3.199648 14.398416 3.199648 22.397536 43.195249-27.197008 89.590145-44.795073 140.784513-52.794193 0 9.598944 0 19.197888-3.199648 30.396657 39.9956-9.598944 81.591025-15.99824 123.18645-19.197888 3.199648 11.198768 3.199648 22.397536 3.199648 33.596304l25.597184-6.399296c19.197888 44.795073 31.99648 91.189969 41.595425 139.18469 11.198768 27.197008 14.398416 57.593665 11.198768 87.990321z" fill="#404040" p-id="78207"></path></svg>