<?xml version="1.0" standalone="no"?><!DOCTYPE svg PUBLIC "-//W3C//DTD SVG 1.1//EN" "http://www.w3.org/Graphics/SVG/1.1/DTD/svg11.dtd"><svg t="1583835954010" class="icon" viewBox="0 0 1024 1024" version="1.1" xmlns="http://www.w3.org/2000/svg" p-id="15860" width="128" height="128" xmlns:xlink="http://www.w3.org/1999/xlink"><defs><style type="text/css"></style></defs><path d="M504.433502 0.000307c278.588365 0 504.433195 225.84483 504.433195 504.433195s-225.84483 504.433195-504.433195 504.433195S0.000307 783.021867 0.000307 504.433502 225.845137 0.000307 504.433502 0.000307z" fill="#EFEFF4" p-id="15861"></path><path d="M325.077235 481.734008c0 100.281319 78.913529 179.073784 179.356267 179.073784 100.432649 0 179.356267-78.792465 179.356267-179.073784C683.789769 381.452689 604.866151 302.660224 504.433502 302.660224c-46.629805 0-93.259609 17.907378-125.543333 53.722135-35.875289 32.233281-53.812933 78.792465-53.812934 125.351649z" fill="#FFFFFF" p-id="15862"></path><path d="M504.433502 1008.866697a502.334753 502.334753 0 0 1-320.819512-115.15201c2.966067-26.412122 9.342103-53.540539 19.501387-78.90344C228.226062 753.92616 278.447431 710.948452 343.01488 700.204025h14.34608c7.17304 0 10.764604 0 17.937644 3.581476 0 0 10.764604 7.162951 21.51912 10.744427 35.875289 14.325903 71.740489 21.488854 107.615778 21.488854s75.332053-7.162951 107.615778-21.488854c10.754516-3.581476 14.34608-7.162951 21.51912-10.744427 7.17304-3.581476 10.754516-3.581476 17.937644-3.581476H665.852124c64.567449 10.744427 118.370294 53.722135 139.889414 114.607222a292.450189 292.450189 0 0 1 19.703161 78.742022A502.365019 502.365019 0 0 1 504.433502 1008.866697zM499.812894 425.913431l22.356479 22.366568a7.899424 7.899424 0 0 1 0 11.178239l-22.356479 22.35648a7.899424 7.899424 0 0 1-11.17824 0l-22.366567-22.35648a7.899424 7.899424 0 0 1 0-11.178239l22.366567-22.366568a7.899424 7.899424 0 0 1 11.17824 0zM600.699533 405.736103l22.356479 22.366568a7.899424 7.899424 0 0 1 0 11.17824l-22.356479 22.356479a7.899424 7.899424 0 0 1-11.17824 0l-22.366567-22.356479a7.899424 7.899424 0 0 1 0-11.17824l22.366567-22.366568a7.899424 7.899424 0 0 1 11.17824 0z" fill="#BFC0C3" p-id="15863"></path></svg>