<?xml version="1.0" standalone="no"?><!DOCTYPE svg PUBLIC "-//W3C//DTD SVG 1.1//EN" "http://www.w3.org/Graphics/SVG/1.1/DTD/svg11.dtd"><svg t="1584426597052" class="icon" viewBox="0 0 1130 1024" version="1.1" xmlns="http://www.w3.org/2000/svg" p-id="12249" xmlns:xlink="http://www.w3.org/1999/xlink" width="141.25" height="128"><defs><style type="text/css"></style></defs><path d="M937.869159 631.626168l-357.283489-574.205607c-12.760125-12.760125-25.520249-28.71028-35.090343-35.090343-28.71028-19.140187-60.610592-25.520249-89.320872-19.140187-35.090343 12.760125-60.610592 28.71028-79.750779 54.23053l-357.283489 574.205607c-12.760125 19.140187-19.140187 41.470405-19.140187 66.990654 0 66.990654 54.23053 121.221184 121.221184 121.221184h714.566978c25.520249 0 41.470405-6.380062 66.990654-19.140187 54.23053-35.090343 70.180685-114.841121 35.090343-169.071651zM478.504673 673.096573c-19.140187 0-35.090343-19.140187-35.090343-35.090342 0-19.140187 19.140187-35.090343 35.090343-35.090343s35.090343 19.140187 35.090343 35.090343c0 15.950156-15.950156 35.090343-35.090343 35.090342z m35.090343-149.931464c0 19.140187-19.140187 35.090343-35.090343 35.090343s-35.090343-19.140187-35.090343-35.090343v-223.302181c0-19.140187 19.140187-35.090343 35.090343-35.090342s35.090343 19.140187 35.090343 35.090342v223.302181z" fill="#6B94FF" p-id="12250"></path><path d="M979.339564 838.978193l-165.88162-267.962617-15.950156-15.950155c-12.760125-9.570093-28.71028-12.760125-41.470405-9.570094-15.950156 6.380062-28.71028 12.760125-38.280374 25.520249l-165.88162 267.962617c-6.380062 9.570093-9.570093 19.140187-9.570093 31.900312 0 31.900312 25.520249 57.420561 57.420561 57.42056h331.76324c12.760125 0 19.140187-3.190031 31.900311-9.570093 25.520249-19.140187 35.090343-57.420561 15.950156-79.750779z" fill="#45DCFE" p-id="12251"></path><path d="M561.445483 819.838006l156.311526-248.82243c9.570093-12.760125 19.140187-19.140187 38.280374-25.520249 12.760125-3.190031 28.71028 0 41.470405 9.570094 6.380062 3.190031 12.760125 12.760125 15.950156 15.950155l121.221184 197.781932c-9.570093 12.760125-19.140187 25.520249-35.090343 35.090342-25.520249 12.760125-41.470405 19.140187-66.990654 19.140187h-271.152648z" fill="#672FD7" p-id="12252"></path></svg>