<?xml version="1.0" standalone="no"?><!DOCTYPE svg PUBLIC "-//W3C//DTD SVG 1.1//EN" "http://www.w3.org/Graphics/SVG/1.1/DTD/svg11.dtd"><svg t="1584426426559" class="icon" viewBox="0 0 1024 1024" version="1.1" xmlns="http://www.w3.org/2000/svg" p-id="3112" xmlns:xlink="http://www.w3.org/1999/xlink" width="128" height="128"><defs><style type="text/css"></style></defs><path d="M894.552276 1024H41.171862A32.344276 32.344276 0 0 1 8.827586 991.655724V32.361931C8.827586 14.494897 23.304828 0 41.171862 0h853.380414C912.41931 0 926.896552 14.494897 926.896552 32.361931v959.293793C926.896552 1009.522759 912.41931 1024 894.552276 1024" fill="#545E73" p-id="3113"></path><path d="M564.877241 300.137931h-194.030344A61.952 61.952 0 0 1 308.965517 238.256552V211.862069a17.655172 17.655172 0 1 1 35.310345 0v26.394483c0 14.653793 11.917241 26.571034 26.571035 26.571034h194.030344c14.653793 0 26.571034-11.917241 26.571035-26.571034V211.862069a17.655172 17.655172 0 1 1 35.310345 0v26.394483A61.952 61.952 0 0 1 564.877241 300.137931M564.877241 812.137931h-194.030344A61.952 61.952 0 0 1 308.965517 750.256552V723.862069a17.655172 17.655172 0 1 1 35.310345 0v26.394483c0 14.653793 11.917241 26.571034 26.571035 26.571034h194.030344c14.653793 0 26.571034-11.917241 26.571035-26.571034V723.862069a17.655172 17.655172 0 1 1 35.310345 0v26.394483A61.952 61.952 0 0 1 564.877241 812.137931" fill="#EDF0F1" p-id="3114"></path><path d="M8.827586 494.344828h918.068966v35.310344H8.827586v-35.310344z" fill="#394050" p-id="3115"></path><path d="M993.297655 1024H575.028966a21.857103 21.857103 0 0 1-18.87338-32.856276l209.125517-358.505931a21.839448 21.839448 0 0 1 37.746759 0L1012.171034 991.143724A21.857103 21.857103 0 0 1 993.297655 1024" fill="#F0C41A" p-id="3116"></path><path d="M785.655172 900.413793a17.655172 17.655172 0 0 1-17.655172-17.655172v-141.24138a17.655172 17.655172 0 0 1 35.310345 0v141.24138a17.655172 17.655172 0 0 1-17.655173 17.655172M785.655172 971.034483c-4.590345 0-9.18069-1.942069-12.535172-5.12-3.177931-3.354483-5.12-7.944828-5.12-12.535173 0-4.590345 1.942069-9.18069 5.12-12.535172 6.708966-6.532414 18.361379-6.532414 25.070345 0 3.177931 3.354483 5.12 7.944828 5.12 12.535172 0 4.590345-1.942069 9.18069-5.12 12.535173-3.354483 3.177931-7.768276 5.12-12.535173 5.12" fill="#FFFFFF" p-id="3117"></path></svg>