<?xml version="1.0" standalone="no"?><!DOCTYPE svg PUBLIC "-//W3C//DTD SVG 1.1//EN" "http://www.w3.org/Graphics/SVG/1.1/DTD/svg11.dtd"><svg t="1584426489900" class="icon" viewBox="0 0 1024 1024" version="1.1" xmlns="http://www.w3.org/2000/svg" p-id="5009" xmlns:xlink="http://www.w3.org/1999/xlink" width="128" height="128"><defs><style type="text/css"></style></defs><path d="M512 0l458.105263 129.347368v344.926316c0 440.131368-458.105263 549.726316-458.105263 549.726316S53.894737 914.405053 53.894737 474.273684V129.347368z" fill="#FFBE00" p-id="5010"></path><path d="M485.052632 317.978947h53.894736a10.778947 10.778947 0 0 1 10.778948 10.778948l-10.778948 247.915789a10.778947 10.778947 0 0 1-10.778947 10.778948h-32.336842a10.778947 10.778947 0 0 1-10.778947-10.778948l-10.778948-247.915789a10.778947 10.778947 0 0 1 10.778948-10.778948z m26.947368 312.589474a37.726316 37.726316 0 1 1-37.726316 37.726316 37.726316 37.726316 0 0 1 37.726316-37.726316z" fill="#FFFFFF" p-id="5011"></path></svg>