<?xml version="1.0" standalone="no"?><!DOCTYPE svg PUBLIC "-//W3C//DTD SVG 1.1//EN" "http://www.w3.org/Graphics/SVG/1.1/DTD/svg11.dtd"><svg t="1585291813984" class="icon" viewBox="0 0 1024 1024" version="1.1" xmlns="http://www.w3.org/2000/svg" p-id="15064" xmlns:xlink="http://www.w3.org/1999/xlink" width="128" height="128"><defs><style type="text/css"></style></defs><path d="M871.187692 716.012308c12.603077 9.452308 16.541538 27.569231 8.664616 41.747692-8.664615 15.753846-28.356923 20.48-44.11077 11.815385l-54.350769-31.507693c-12.603077-1.575385-25.993846 3.938462-33.083077 15.753846-7.089231 11.815385-5.513846 26.781538 3.938462 37.021539l47.261538 27.569231c20.48 11.815385 27.569231 37.809231 15.753846 58.28923s-37.809231 27.569231-58.28923 15.753847l-33.083077-18.904616c-61.44 37.809231-133.907692 59.864615-211.889231 59.864616-223.704615 0-405.661538-181.956923-405.661538-405.661539s181.169231-405.661538 405.661538-405.661538 405.661538 181.956923 405.661538 405.661538c0 67.741538-17.329231 132.332308-46.473846 188.258462z m-4.726154 165.415384c10.24 6.301538 13.390769 18.904615 7.876924 29.144616-6.301538 10.24-18.904615 13.390769-29.144616 7.876923-10.24-6.301538-13.390769-18.904615-7.876923-29.144616 5.513846-10.24 18.904615-13.390769 29.144615-7.876923z" fill="#FFF0C1" p-id="15065"></path><path d="M196.923077 252.061538c20.48 20.48 20.48 54.350769 0 74.83077-20.48 20.48-54.350769 20.48-74.830769 0-20.48-20.48-20.48-54.350769 0-74.83077 20.48-20.48 53.563077-20.48 74.830769 0zM194.56 114.215385c11.027692 11.027692 11.027692 29.932308 0 40.96-11.027692 11.027692-29.932308 11.027692-40.96 0-11.027692-11.027692-11.027692-29.932308 0-40.96 11.027692-11.027692 29.144615-11.027692 40.96 0z m770.363077 426.141538c-11.815385 0-21.267692-9.452308-21.267692-21.267692 0-11.815385 9.452308-21.267692 21.267692-21.267693 11.815385 0 21.267692 9.452308 21.267692 21.267693 0 11.815385-9.452308 21.267692-21.267692 21.267692z m0-11.027692c6.301538 0 11.027692-4.726154 11.027692-11.027693 0-6.301538-4.726154-11.027692-11.027692-11.027692-6.301538 0-11.027692 4.726154-11.027692 11.027692 0 6.301538 4.726154 11.027692 11.027692 11.027693z m32.295385-71.68c1.575385 0 3.150769-0.787692 3.938461-1.575385s1.575385-2.363077 1.575385-4.726154v-13.390769h13.390769c1.575385 0 3.150769-0.787692 4.726154-1.575385 1.575385-0.787692 1.575385-2.363077 1.575384-3.938461s-0.787692-3.150769-1.575384-4.726154c-1.575385-1.575385-2.363077-1.575385-4.726154-1.575385h-13.390769v-12.603076c0-1.575385-0.787692-3.150769-1.575385-4.726154-0.787692-1.575385-2.363077-1.575385-3.938461-1.575385s-3.150769 0.787692-4.726154 1.575385c-1.575385 1.575385-1.575385 3.150769-1.575385 4.726154v12.603076h-12.603077c-1.575385 0-3.150769 0.787692-4.726154 1.575385s-1.575385 2.363077-1.575384 4.726154c0 1.575385 0.787692 3.150769 1.575384 3.938461 1.575385 0.787692 2.363077 1.575385 4.726154 1.575385h12.603077v13.390769c0 1.575385 0.787692 3.150769 1.575385 4.726154 1.575385 0.787692 3.150769 1.575385 4.726154 1.575385zM33.083077 581.316923c1.575385 0 3.150769-0.787692 3.938461-1.575385 1.575385-1.575385 2.363077-3.150769 2.363077-4.726153v-13.39077h13.39077c1.575385 0 3.150769-0.787692 4.726153-1.575384 1.575385-0.787692 1.575385-2.363077 1.575385-3.938462s-0.787692-3.150769-1.575385-4.726154c-1.575385-1.575385-2.363077-1.575385-4.726153-1.575384H39.384615v-12.603077c0-1.575385-0.787692-3.150769-1.575384-4.726154-0.787692-1.575385-2.363077-1.575385-3.938462-1.575385s-3.150769 0.787692-4.726154 1.575385c-1.575385 1.575385-1.575385 3.150769-1.575384 4.726154v12.603077H14.966154c-1.575385 0-3.150769 0.787692-4.726154 1.575384s-2.363077 2.363077-2.363077 4.726154c0 1.575385 0.787692 3.150769 1.575385 3.938462 1.575385 0.787692 2.363077 1.575385 4.726154 1.575384h12.603076V575.015385c0 1.575385 0.787692 3.150769 1.575385 4.726153 1.575385 0.787692 3.150769 1.575385 4.726154 1.575385z" fill="#FFF0C1" p-id="15066"></path><path d="M488.369231 382.818462c0-11.815385 9.452308-21.267692 21.267692-21.267693h5.513846c11.815385 0 21.267692 9.452308 21.267693 21.267693v182.744615c0 11.815385-9.452308 21.267692-21.267693 21.267692h-5.513846c-11.815385 0-21.267692-9.452308-21.267692-21.267692V382.818462z m0 259.150769c0-11.815385 9.452308-21.267692 21.267692-21.267693h5.513846c11.815385 0 21.267692 9.452308 21.267693 21.267693v10.24c0 11.815385-9.452308 21.267692-21.267693 21.267692h-5.513846c-11.815385 0-21.267692-9.452308-21.267692-21.267692v-10.24z" fill="#F7BA01" p-id="15067"></path></svg>