<?xml version="1.0" standalone="no"?><!DOCTYPE svg PUBLIC "-//W3C//DTD SVG 1.1//EN" "http://www.w3.org/Graphics/SVG/1.1/DTD/svg11.dtd"><svg t="1584333016531" class="icon" viewBox="0 0 1024 1024" version="1.1" xmlns="http://www.w3.org/2000/svg" p-id="13073" xmlns:xlink="http://www.w3.org/1999/xlink" width="128" height="128"><defs><style type="text/css"></style></defs><path d="M303.786667 341.333333m-136.533334 0a136.533333 136.533333 0 1 0 273.066667 0 136.533333 136.533333 0 1 0-273.066667 0Z" fill="#CAE4FD" p-id="13074"></path><path d="M358.4 512L88.746667 863.573333c-6.826667 10.24-3.413333 30.72 6.826666 30.72h877.226667c17.066667 0 61.44-92.16 44.373333-119.466666l-296.96-351.573334c-20.48-20.48-54.613333-20.48-68.266666 3.413334l-119.466667 157.013333c-6.826667 17.066667-20.48 10.24-27.306667 3.413333l-88.746666-95.573333c-20.48-3.413333-44.373333 3.413333-58.026667 20.48z" fill="#CAE4FD" p-id="13075"></path><path d="M887.466667 170.666667c37.546667 0 68.266667 30.72 68.266666 68.266666v559.786667c0 37.546667-30.72 68.266667-68.266666 68.266667H146.773333c-37.546667 0-68.266667-30.72-68.266666-68.266667V238.933333c0-37.546667 30.72-68.266667 68.266666-68.266666H887.466667m0-68.266667H146.773333c-75.093333 0-136.533333 61.44-136.533333 136.533333v559.786667c0 75.093333 61.44 136.533333 136.533333 136.533333H887.466667c75.093333 0 136.533333-61.44 136.533333-136.533333V238.933333c0-75.093333-61.44-136.533333-136.533333-136.533333z" fill="#2587E3" p-id="13076"></path><path d="M320.853333 331.093333m-54.613333 0a54.613333 54.613333 0 1 0 109.226667 0 54.613333 54.613333 0 1 0-109.226667 0Z" fill="#2587E3" p-id="13077"></path><path d="M846.506667 791.893333H191.146667c-17.066667 0-34.133333-17.066667-34.133334-34.133333s13.653333-34.133333 34.133334-34.133333h655.36c20.48 0 34.133333 13.653333 34.133333 34.133333s-17.066667 34.133333-34.133333 34.133333z" fill="#2587E3" p-id="13078"></path><path d="M477.866667 778.24c-6.826667 0-13.653333-3.413333-20.48-6.826667-13.653333-10.24-17.066667-34.133333-6.826667-47.786666l194.56-266.24c6.826667-6.826667 17.066667-13.653333 27.306667-13.653334 10.24 0 20.48 3.413333 27.306666 10.24l157.013334 177.493334c13.653333 13.653333 10.24 34.133333-3.413334 47.786666-13.653333 13.653333-34.133333 10.24-47.786666-3.413333l-129.706667-146.773333-170.666667 232.106666c-6.826667 10.24-17.066667 17.066667-27.306666 17.066667z" fill="#2587E3" p-id="13079"></path><path d="M256 778.24c-6.826667 0-13.653333-3.413333-20.48-6.826667-13.653333-10.24-17.066667-34.133333-6.826667-47.786666l143.36-180.906667c6.826667-6.826667 17.066667-13.653333 27.306667-13.653333 10.24 0 20.48 3.413333 27.306667 13.653333l105.813333 126.293333c13.653333 13.653333 10.24 37.546667-3.413333 47.786667-13.653333 13.653333-37.546667 10.24-47.786667-3.413333l-78.506667-95.573334-119.466666 146.773334c-6.826667 10.24-17.066667 13.653333-27.306667 13.653333z" fill="#2587E3" p-id="13080"></path></svg>