<?xml version="1.0" standalone="no"?><!DOCTYPE svg PUBLIC "-//W3C//DTD SVG 1.1//EN" "http://www.w3.org/Graphics/SVG/1.1/DTD/svg11.dtd"><svg t="1584333044945" class="icon" viewBox="0 0 1325 1024" version="1.1" xmlns="http://www.w3.org/2000/svg" p-id="14873" xmlns:xlink="http://www.w3.org/1999/xlink" width="165.625" height="128"><defs><style type="text/css"></style></defs><path d="M1279.638588 0.376471H45.537882C20.389647 0.376471 0 21.052235 0 46.576941v930.846118c0 25.524706 20.389647 46.200471 45.537882 46.20047h1234.100706c25.148235 0 45.537882-20.690824 45.537883-46.20047V46.576941C1325.176471 21.052235 1304.786824 0.376471 1279.638588 0.376471z" fill="#1685FB" p-id="14874"></path><path d="M1325.176471 977.423059V46.576941C1325.176471 21.052235 1304.771765 0.376471 1279.638588 0.376471h-73.33647c25.148235 0 45.552941 20.675765 45.552941 46.20047v930.831059c0 25.539765-20.404706 46.200471-45.552941 46.200471h73.33647c25.148235 0 45.537882-20.660706 45.537883-46.185412z" fill="#3446E7" p-id="14875"></path><path d="M1325.176471 200.432941V46.576941C1325.176471 21.052235 1304.771765 0.376471 1279.638588 0.376471H45.537882C20.389647 0.376471 0 21.052235 0 46.576941V200.432941h1325.176471z" fill="#E3F4FF" p-id="14876"></path><path d="M1325.176471 200.432941V46.576941C1325.176471 21.052235 1304.771765 0.376471 1279.638588 0.376471h-73.33647c25.148235 0 45.552941 20.675765 45.552941 46.20047V200.432941H1325.176471z" fill="#BDDFF4" p-id="14877"></path><path d="M256.256 120.500706H256a20.148706 20.148706 0 0 1-19.998118-20.284235c0-11.203765 8.96-20.284235 19.998118-20.284236 11.053176 0 20.118588 9.080471 20.118588 20.284236a20.028235 20.028235 0 0 1-19.877647 20.284235z" fill="#54DDAC" p-id="14878"></path><path d="M190.735059 120.696471c-10.947765 0-19.877647-8.944941-19.998118-20.073412a20.148706 20.148706 0 0 1 19.787294-20.495059 20.299294 20.299294 0 0 1 20.329412 20.073412 20.043294 20.043294 0 0 1-19.651765 20.48l-0.256 0.015059h-0.210823z" fill="#FDC142" p-id="14879"></path><path d="M125.470118 120.892235c-10.947765 0-19.877647-8.944941-19.998118-20.073411a20.148706 20.148706 0 0 1 19.998118-20.510118c10.947765 0 20.013176 8.944941 20.118588 20.08847a20.043294 20.043294 0 0 1-19.666824 20.48h-0.451764z" fill="#FC3E81" p-id="14880"></path><path d="M447.367529 120.892235h-69.406117a20.148706 20.148706 0 0 1-19.998118-20.284235c0-11.203765 8.96-20.284235 19.998118-20.284235h69.406117c11.038118 0 19.998118 9.080471 19.998118 20.284235s-8.96 20.284235-19.998118 20.284235z" fill="#BDDFF4" p-id="14881"></path><path d="M430.426353 489.381647h-17.347765v-23.988706c0-20.013176-15.977412-36.231529-35.70447-36.231529s-35.704471 16.218353-35.704471 36.231529v23.988706h-83.335529l60.009411-103.047529a36.517647 36.517647 0 0 0-12.589176-49.618824 35.433412 35.433412 0 0 0-48.911059 12.769882L165.014588 507.181176a36.683294 36.683294 0 0 0-0.256 36.367059A35.629176 35.629176 0 0 0 195.764706 561.844706h145.889882v109.17647c0 19.998118 15.977412 36.216471 35.704471 36.216471s35.704471-16.218353 35.70447-36.216471v-109.17647h17.347765c19.727059 0 35.719529-16.218353 35.71953-36.23153 0-20.013176-15.992471-36.231529-35.71953-36.231529zM1129.411765 489.381647h-17.347765v-23.988706c0-20.013176-15.992471-36.231529-35.704471-36.231529-19.727059 0-35.719529 16.218353-35.719529 36.231529v23.988706h-83.320471l59.994353-103.047529a36.517647 36.517647 0 0 0-12.574117-49.618824 35.433412 35.433412 0 0 0-48.911059 12.769882L864 507.181176a36.683294 36.683294 0 0 0-0.271059 36.367059 35.629176 35.629176 0 0 0 31.021177 18.281412h145.889882v109.176471c0 19.998118 15.992471 36.216471 35.719529 36.21647 19.727059 0 35.704471-16.218353 35.704471-36.21647v-109.176471H1129.411765c19.727059 0 35.704471-16.218353 35.70447-36.231529 0-20.013176-15.977412-36.231529-35.70447-36.23153z" fill="#F8F9FF" p-id="14882"></path><path d="M708.276706 707.237647h-91.376941c-45.221647 0-81.995294-37.315765-81.995294-83.184941V414.870588c0-45.869176 36.773647-83.184941 81.995294-83.184941h91.376941c45.221647 0 81.995294 37.315765 81.995294 83.184941V624.037647c0 45.869176-36.773647 83.184941-81.995294 83.184941z m-77.251765-296.448c-9.999059 0-18.145882 8.252235-18.145882 18.386824v180.555294c0 10.134588 8.131765 18.386824 18.130823 18.386823h63.156706c9.984 0 18.130824-8.252235 18.130824-18.386823V429.176471c0-10.134588-8.131765-18.386824-18.130824-18.386824h-63.156706z" fill="#F8F9FF" p-id="14883"></path><path d="M964.321882 938.541176a20.254118 20.254118 0 0 1-20.133647-20.284235 20.028235 20.028235 0 0 1 19.877647-20.299294h0.256c11.038118 0 19.998118 9.095529 19.998118 20.299294 0 11.203765-8.96 20.284235-19.998118 20.284235zM1030.550588 938.736941a20.254118 20.254118 0 0 1-20.133647-20.299294 20.028235 20.028235 0 0 1 19.877647-20.284235h0.256c11.038118 0 19.998118 9.080471 19.998118 20.284235s-8.96 20.299294-19.998118 20.299294zM1096.779294 938.917647h-0.210823a20.254118 20.254118 0 0 1-19.922824-20.48 20.028235 20.028235 0 0 1 19.877647-20.088471h0.451765a20.148706 20.148706 0 0 1 19.787294 20.495059c-0.105412 11.143529-9.035294 20.088471-19.983059 20.088471z" fill="#E3F4FF" p-id="14884"></path><path d="M236.182588 854.467765h-66.228706a20.148706 20.148706 0 0 1-19.998117-20.284236c0-11.203765 8.96-20.284235 19.998117-20.284235h66.228706c11.053176 0 19.998118 9.080471 19.998118 20.284235s-8.944941 20.284235-19.998118 20.284236zM302.411294 938.736941h-132.457412a20.148706 20.148706 0 0 1-19.998117-20.299294c0-11.203765 8.96-20.284235 19.998117-20.284235h132.457412c11.053176 0 19.998118 9.080471 19.998118 20.284235s-8.944941 20.299294-19.998118 20.299294z" fill="#E3F4FF" p-id="14885"></path></svg>