<?xml version="1.0" standalone="no"?><!DOCTYPE svg PUBLIC "-//W3C//DTD SVG 1.1//EN" "http://www.w3.org/Graphics/SVG/1.1/DTD/svg11.dtd"><svg t="1584333251777" class="icon" viewBox="0 0 1066 1024" version="1.1" xmlns="http://www.w3.org/2000/svg" p-id="31686" xmlns:xlink="http://www.w3.org/1999/xlink" width="133.25" height="128"><defs><style type="text/css"></style></defs><path d="M532.921945 1022.256002c294.879601 0 532.921945-72.831901 532.921945-159.877116 0-87.039882-238.042344-159.877117-532.921945-159.877117S0 770.896343 0 862.378886c0 87.045215 238.037011 159.877117 532.921945 159.877116z" fill="#F7F8FC" p-id="31687"></path><path d="M941.492058 174.027818c0 7.989323 4.442661 15.093313 11.546651 19.535973 7.109324 4.442661 15.989312 4.442661 22.20797 0 7.10399-4.442661 11.546651-11.546651 11.546651-19.541307s-4.442661-15.093313-11.546651-19.541307c-7.109324-4.437327-15.989312-4.437327-22.20797 0-7.10399 5.333326-11.546651 12.437316-11.546651 19.541307z" fill="#F0F2F8" p-id="31688"></path><path d="M79.935892 404.070173v413.898106l452.986053 79.941225V364.987559z" fill="#DFE4EE" p-id="31689"></path><path d="M977.022677 400.512844v413.90344l-444.106065 83.49322V364.987559z" fill="#F7F8FC" p-id="31690"></path><path d="M79.935892 400.512844v413.90344l461.866041 172.314433V462.68876z" fill="#DFE4EE" p-id="31691"></path><path d="M977.022677 400.512844V835.733588l-435.220744 150.997129V462.68876z" fill="#C9CFDD" p-id="31692"></path><path d="M977.022677 400.512844l54.18126 175.866429-407.684781 115.46651-81.717223-229.157023z" fill="#DFE4EE" p-id="31693"></path><path d="M80.826557 400.512844L26.645297 566.613953 459.199378 688.293788l82.602555-225.599695z" fill="#F7F8FC" p-id="31694"></path><path d="M111.914515 24.801353c-3.551995-4.437327-8.885321-6.213325-13.322649-3.546662l-39.082613 24.8693c-1.775998 0.885332-2.666663 0.885332-3.551995 2.666663-1.775998 5.327993-0.890665 10.655986 4.44266 14.207981l36.415951 21.317304c1.775998 0.885332 3.551995 1.775998 4.437327 1.775998 5.333326 0.890665 10.661319-3.551995 10.661319-8.879988l3.551995-45.301272c-1.775998-3.551995-1.775998-5.333326-3.551995-7.103991z m18.650642 53.295928c-0.885332 15.989312-15.098646 27.535963-31.087958 26.645297-4.437327-0.885332-8.879988-1.775998-12.431984-3.551995l-36.41595-23.093302C36.415951 69.217293 31.087958 51.451984 39.082614 38.134668c2.666663-3.551995 5.327993-7.10399 9.770653-9.770653L87.930548 4.374714c13.322649-8.879988 31.978623-3.551995 40.858611 9.770654 3.551995 5.333326 5.333326 11.546651 4.442661 17.765309l-2.666663 46.186604z m742.537661 658.159109c-2.666663-3.551995-6.218658-3.551995-8.879988-2.666663l-24.874633 14.213314c-0.885332 0.885332-1.775998 0.885332-1.775998 1.775997-1.775998 3.551995-0.885332 6.218658 2.666663 8.879988l23.983968 14.213314c0.885332 0.885332 1.775998 0.885332 3.551995 0.885332 3.551995 0.890665 6.213325-1.775998 6.213325-5.327992l0.890665-28.421295c0-0.890665-0.890665-1.775998-1.775997-3.551995z m13.322648 33.749287c0 10.661319-9.770653 17.765309-20.426639 15.989312-3.557329 0-5.333326-1.775998-8.885321-3.551995l-23.978634-14.213314c-9.770653-5.327993-12.437316-17.759976-7.999989-25.759965 1.781331-2.66133 3.557329-4.437327 5.333326-5.327993l24.869299-14.207981c8.885321-4.442661 20.426639-2.666663 27.535963 7.10399 2.666663 3.551995 4.442661 7.10399 3.551995 11.546651v28.426629z" fill="#DFE4EE" p-id="31695"></path><path d="M310.868912 313.472962c-24.8693 0-44.410607-19.541307-44.410606-44.410606 0-25.759965 19.541307-46.186604 44.410606-46.186604s44.410607 19.541307 44.410607 44.410606c1.775998 24.8693-18.650641 46.186604-44.410607 46.186604z m0-63.951913c-9.770653 0-17.759976 7.994656-17.759976 18.650641 0 9.770653 7.989323 18.655975 17.759976 18.655975s17.765309-7.999989 17.76531-18.655975c1.775998-10.655986-6.218658-18.650641-17.759976-18.650641z" fill="#F0F2F8" p-id="31696"></path><path d="M661.705771 398.736847c-33.749288 15.10398-68.389241 19.541307-81.706556 18.655974-5.333326 0-7.109324-6.218658-2.666663-9.770653 5.327993-4.442661 15.093313-13.322649 25.759965-25.759965-42.634609-19.541307-71.061237-51.51993-71.061237-88.821213 0-58.618587 71.946569-106.581189 159.877116-106.581189 87.930548 0 159.877117 47.962602 159.877117 106.581189 0 58.623921-71.946569 106.586522-159.877117 106.586522-9.770653 0.885332-20.426639 0-30.197292-0.890665z" fill="#DFE4EE" p-id="31697"></path><path d="M675.033753 293.931655c0-5.333326 3.551995-11.546651 8.879988-15.098646 5.333326-3.551995 12.437316-3.551995 17.765309 0 5.333326 3.551995 8.879988 8.879988 8.879988 15.093313 0 6.223992-3.551995 11.551984-8.879988 15.10398-5.333326 3.551995-12.431983 3.551995-17.759976 0-5.333326-3.551995-8.885321-8.879988-8.885321-15.098647z m71.055903 0c0-5.333326 3.551995-11.546651 8.879988-15.098646 5.333326-3.551995 12.437316-3.551995 17.76531 0 5.333326 3.551995 8.885321 8.879988 8.885321 15.093313 0 6.223992-3.557329 11.551984-8.885321 15.10398-5.333326 3.551995-12.431983 3.551995-17.759976 0-5.333326-3.551995-8.885321-8.879988-8.885322-15.098647z m-142.111807 0c0-5.333326 3.551995-11.546651 8.879988-15.098646 5.333326-3.551995 12.437316-3.551995 17.765309 0 5.333326 3.551995 8.879988 8.879988 8.879988 15.093313 0 6.223992-3.551995 11.551984-8.879988 15.10398-5.333326 3.551995-12.437316 3.551995-17.759976 0-5.333326-3.551995-8.885321-8.879988-8.885321-15.098647z" fill="#FFFFFF" p-id="31698"></path></svg>