<?xml version="1.0" standalone="no"?><!DOCTYPE svg PUBLIC "-//W3C//DTD SVG 1.1//EN" "http://www.w3.org/Graphics/SVG/1.1/DTD/svg11.dtd"><svg t="1584188294067" class="icon" viewBox="0 0 1024 1024" version="1.1" xmlns="http://www.w3.org/2000/svg" p-id="3727" xmlns:xlink="http://www.w3.org/1999/xlink" width="128" height="128"><defs><style type="text/css"></style></defs><path d="M775.695758 23.736346s17.802245-3.337921 18.358565 0-2.781601 43.392973-2.781601 43.392972-10.570083 3.337921-17.802245 0l2.225281-43.392972zM810.743928 22.623705s-5.563202 8.901123 0 13.908004l121.277796 3.894241v25.034408s12.239044 3.894241 17.245925 0l1.66896-39.498732-71.765301-2.22528v-22.252807s-13.908004-3.337921-18.358565 0v20.583846h-50.068815zM824.651932 52.664994s12.239044 1.66896 14.464324 5.563202c0 0-13.908004 35.04817-19.471205 36.16081 0 0-15.020644-5.563202-15.020645-6.675842s15.576965-33.93553 20.027526-35.04817z" fill="#BABABA" p-id="3728"></path><path d="M883.065549 54.333955l-8.901122 11.126403s28.372328 22.252807 31.710249 22.252806c2.781601 0 8.901123-11.126403 8.901123-11.126403s-27.259688-22.809127-31.71025-22.252806zM810.743928 105.51541s-3.337921 12.795364 0 14.464324c3.337921 1.66896 38.942411 1.11264 38.942411 1.11264v34.49185h-41.724012s-6.675842 12.795364 2.781601 14.464325l97.356029-1.668961s5.006881-10.013763 0-12.239043c-5.006881-2.225281-37.273451 0-37.273451 0v-35.048171l39.498731-1.66896s5.006881-11.682723 0-13.351684-99.581309-0.55632-99.581309-0.55632z" fill="#BABABA" p-id="3729"></path><path d="M251.085843 682.97574c0-13.351684 10.570083-23.921767 23.921767-23.921767H165.412538c13.351684 0 23.921767 10.570083 23.921767 23.921767s-10.570083 23.921767-23.921767 23.921767h109.038752c-12.795364 0-23.365447-10.570083-23.365447-23.921767zM305.605219 659.053973H129.808047c-8.344802 0-15.020644-6.675842-15.020644-15.020645v-17.802245c0-8.344802 6.675842-15.020644 15.020644-15.020645h175.240852c8.344802 0 15.020644 6.675842 15.020644 15.020645v17.802245c0 8.344802-6.675842 15.020644-14.464324 15.020645zM330.639627 754.741041H86.415075c-8.344802 0-15.020644-6.675842-15.020645-15.020645v-17.802245c0-8.344802 6.675842-15.020644 15.020645-15.020644h243.668231c8.344802 0 15.020644 6.675842 15.020645 15.020644v17.802245c0.55632 8.344802-6.119522 15.020644-14.464324 15.020645zM824.095612 805.922496c0-18.358565 15.020644-32.82289 33.37921-32.82289H706.712057c18.358565 0 33.37921 15.020644 33.37921 32.82289 0 18.358565-15.020644 32.82289-33.37921 32.822889h150.762765c-18.358565 0-33.37921-15.020644-33.37921-32.822889zM899.198834 772.543286H656.643243c-11.126403 0-20.583846-9.457443-20.583846-20.583846v-25.034407c0-11.126403 9.457443-20.583846 20.583846-20.583847h242.555591c11.126403 0 20.583846 9.457443 20.583846 20.583847v25.034407c0.55632 11.126403-8.901123 20.583846-20.583846 20.583846zM934.247004 904.947485h-337.130019c-11.126403 0-20.583846-9.457443-20.583846-20.583846v-25.034407c0-11.126403 9.457443-20.583846 20.583846-20.583847h337.130019c11.126403 0 20.583846 9.457443 20.583846 20.583847v25.034407c0 11.126403-8.901123 20.583846-20.583846 20.583846z" fill="#F5F5F5" p-id="3730"></path><path d="M643.847879 793.683452c17.245925 31.153929 36.160811 57.300977 48.399854 89.011226 2.781601 7.788482 6.675842 38.942411 2.225281 57.857297-0.55632 0.55632-0.55632 1.66896-1.112641 2.781601-8.901123 40.611372-41.167692 52.850416-75.659542 54.519376-60.638898 3.337921-121.277796 4.450561-181.360373 3.337921-23.365447 0-46.730894-2.781601-67.87106-11.682723-32.82289-13.908004-42.280332-29.484969-45.061934-66.2021-1.66896-38.386091 10.570083-66.75842 26.147048-99.581309 3.337921-6.675842 11.682723-19.471206 19.471206-26.147048-11.126403-2.781601-30.041289-7.788482-40.055052-9.457442-26.703368-5.006881-47.287214-21.696486-66.75842-37.273451-47.287214-36.717131-69.54002-86.785946-71.765301-146.312203-1.66896-51.737775-2.781601-103.47555 22.809127-152.431725-3.894241-2.781601-7.788482-5.006881-11.682723-7.788483-18.358565-13.908004-16.689605-40.055052 2.7816-52.294095 26.703368-16.689605 58.969937-34.49185 85.116985-52.294095 48.956174-33.37921 96.799708-52.850416 155.213326-61.751539 39.498732-6.119522 78.441143-7.788482 117.383555 0 28.372328 6.119522 67.31474 20.583846 94.018107 32.82289 31.153929 13.908004 50.625135 25.034407 80.666424 40.611372 7.788482 3.894241 17.245925 7.788482 26.147048 7.788482 40.611372 11.682723 58.413617 40.611372 60.082578 65.089459 0.55632 7.232162-5.006881 16.689605-10.570084 22.252807-5.563202 5.563202-6.119522 8.901123-2.7816 15.020644 26.147048 53.963056 32.82289 111.820353 23.921767 170.233971-7.232162 46.730894-27.816008 88.454906-67.87106 119.052515-33.37921 24.478087-84.004345 31.710249-121.834116 42.836652zM513.11264 286.319463c-25.034407 2.781601-50.068815 6.675842-75.103222 7.788482-42.280332 1.66896-77.884823 21.696486-114.045633 39.498732-32.82289 16.689605-63.420499 38.386091-94.018108 58.969937-7.232162 5.006881-16.689605 16.689605-15.576965 23.365447 2.225281 9.457443 11.682723 23.365447 20.027526 25.034407 20.583846 4.450561 42.280332 12.795364 64.533139 2.225281 3.337921-1.66896 8.901123 1.11264 12.795364 1.668961-3.337921 3.337921-6.119522 8.901123-10.013763 9.457442-14.464324 2.225281-29.484969 3.894241-44.505613 3.337921-28.372328-1.11264-27.259688-1.11264-37.273451 25.034408-18.914886 48.956174-18.914886 99.024989-11.126403 149.650124 6.675842 43.392973 25.590728 81.779064 61.195218 109.038752 30.041289 22.809127 63.420499 38.386091 101.25027 43.392973 12.239044 1.66896 25.034407 3.337921 37.273451 6.119521 3.337921 0.55632 6.119522 4.450561 8.901122 6.675842-3.337921 1.66896-6.119522 5.006881-9.457443 5.563202-7.788482 0.55632-16.133285-1.11264-23.921767 0-4.450561 0.55632-10.570083 2.225281-12.239043 5.563202-22.809127 38.386091-36.717131 79.553783-29.484969 125.172036 5.006881 30.597609 28.372328 51.181455 58.413617 52.294096 37.273451 1.66896 75.103222 5.006881 112.376673 4.450561 38.942411-0.55632 78.997463 6.675842 117.383555-7.788482 17.802245-6.675842 36.160811-15.576965 42.280332-33.37921 8.901123-28.372328 9.457443-57.857297-3.894241-85.673305-6.675842-14.464324-16.133285-27.259688-22.809127-41.167692-6.119522-12.795364-11.682723-24.478087-29.484968-19.471206-2.225281 0.55632-6.119522-2.781601-7.788483-5.006881-0.55632-0.55632 2.225281-6.119522 4.450562-6.675842 16.689605-4.450561 33.37921-8.901123 50.068815-11.682724 55.632016-10.013763 102.91923-33.37921 129.622598-85.673305 20.583846-40.611372 30.041289-84.560665 25.034407-130.735239-3.337921-31.710249-7.232162-62.864179-23.365447-91.236506-6.119522-10.570083-12.795364-12.239044-25.034407-10.570084-26.703368 3.337921-53.406736 2.781601-72.321621-21.140166-2.225281-2.781601-1.66896-7.232162-2.225281-10.570083 3.337921 1.11264 8.344802 1.11264 10.570083 3.337921 20.583846 22.252807 45.618253 25.034407 72.877941 16.689605 18.914886-5.563202 27.259688-22.252807 17.245926-36.717131-12.795364-18.914886-29.484969-34.49185-52.294096-41.724012-7.788482-2.781601-16.689605-3.894241-23.365447-8.344803-25.034407-15.576965-49.512495-31.710249-76.772182-43.949293-41.724012-20.027526-84.004345-31.710249-130.178919-32.822889z" fill="#BABABA" p-id="3731"></path><path d="M513.11264 286.319463c-25.034407 2.781601-50.068815 6.675842-75.103222 7.788482-42.280332 1.66896-77.884823 21.696486-114.045633 39.498732-32.82289 16.689605-63.420499 38.386091-94.018108 58.969937-7.232162 5.006881-16.689605 16.689605-15.576965 23.365447 2.225281 9.457443 11.682723 23.365447 20.027526 25.034407 20.583846 4.450561 42.280332 12.795364 64.533139 2.225281 3.337921-1.66896 8.901123 1.11264 12.795364 1.668961-3.337921 3.337921-6.119522 8.901123-10.013763 9.457442-14.464324 2.225281-29.484969 3.894241-44.505613 3.337921-28.372328-1.11264-27.259688-1.11264-37.273451 25.034408-18.914886 48.956174-18.914886 99.024989-11.126403 149.650124 6.675842 43.392973 25.590728 81.779064 61.195218 109.038752 30.041289 22.809127 63.420499 38.386091 101.25027 43.392973 12.239044 1.66896 25.034407 3.337921 37.273451 6.119521 3.337921 0.55632 6.119522 4.450561 8.901122 6.675842-3.337921 1.66896-6.119522 5.006881-9.457443 5.563202-7.788482 0.55632-16.133285-1.11264-23.921767 0-4.450561 0.55632-10.570083 2.225281-12.239043 5.563202-22.809127 38.386091-36.717131 79.553783-29.484969 125.172036 5.006881 30.597609 28.372328 51.181455 58.413617 52.294096 37.273451 1.66896 75.103222 5.006881 112.376673 4.450561 38.942411-0.55632 78.997463 6.675842 117.383555-7.788482 17.802245-6.675842 36.160811-15.576965 42.280332-33.37921 8.901123-28.372328 9.457443-57.857297-3.894241-85.673305-6.675842-14.464324-16.133285-27.259688-22.809127-41.167692-6.119522-12.795364-11.682723-24.478087-29.484968-19.471206-2.225281 0.55632-6.119522-2.781601-7.788483-5.006881-0.55632-0.55632 2.225281-6.119522 4.450562-6.675842 16.689605-4.450561 33.37921-8.901123 50.068815-11.682724 55.632016-10.013763 102.91923-33.37921 129.622598-85.673305 20.583846-40.611372 30.041289-84.560665 25.034407-130.735239-3.337921-31.710249-7.232162-62.864179-23.365447-91.236506-6.119522-10.570083-12.795364-12.239044-25.034407-10.570084-26.703368 3.337921-53.406736 2.781601-72.321621-21.140166-2.225281-2.781601-1.66896-7.232162-2.225281-10.570083 3.337921 1.11264 8.344802 1.11264 10.570083 3.337921 20.583846 22.252807 45.618253 25.034407 72.877941 16.689605 18.914886-5.563202 27.259688-22.252807 17.245926-36.717131-12.795364-18.914886-29.484969-34.49185-52.294096-41.724012-7.788482-2.781601-16.689605-3.894241-23.365447-8.344803-25.034407-15.576965-49.512495-31.710249-76.772182-43.949293-41.724012-20.027526-84.004345-31.710249-130.178919-32.822889z" fill="#FFFFFF" p-id="3732"></path><path d="M465.825426 561.141624c32.82289-13.351684 64.533139-11.682723 96.799709 2.22528 6.119522-23.365447 15.576965-43.392973 31.710249-60.082577 33.37921-34.49185 73.434262-47.843534 120.165156-37.273451 47.287214 10.570083 78.441143 40.055052 94.018107 86.229625 1.66896 5.563202 5.563202 11.126403 9.457443 16.133285 7.788482 8.901123 8.344802 23.921767 2.225281 33.37921-3.894241 6.119522-8.344802 12.795364-10.570083 20.027526-15.576965 50.068815-48.399854 81.222744-99.58131 91.236506-51.737775 10.013763-102.36291-13.351684-129.622598-56.188336-10.570083-16.689605-17.245925-34.49185-18.358565-53.963056-0.55632-8.344802-4.450561-12.795364-11.682724-15.576965-23.921767-9.457443-47.287214-10.570083-71.208981 0-7.232162 2.781601-10.013763 6.675842-11.126403 14.464325-6.675842 56.744657-44.505613 98.468669-99.581309 110.707712-63.420499 13.908004-130.178918-26.147048-147.424844-88.454906-1.66896-6.119522-3.337921-11.682723-10.570083-15.576964-13.351684-6.675842-10.570083-34.49185 2.781601-43.392973 3.337921-2.225281 6.119522-5.563202 7.232162-8.901123C236.065199 499.946406 283.908733 463.229275 341.20971 462.116635c56.188337-0.55632 104.588191 35.60449 122.390436 91.236506 0.55632 2.225281 1.11264 4.450561 2.22528 7.788483zM342.32235 488.263682c-55.075696 0-100.137629 43.949293-100.69395 98.468669 0 55.632016 43.392973 100.137629 98.468669 100.69395 55.632016 0.55632 100.69395-43.392973 100.69395-99.024989 0.55632-55.632016-43.392973-100.137629-98.468669-100.13763z m443.943491 99.58131c0.55632-55.632016-43.392973-99.581309-98.468669-100.13763-55.075696 0-100.137629 43.949293-100.13763 99.024989s43.392973 100.137629 98.468669 100.13763c55.632016 0.55632 99.581309-42.836653 100.13763-99.024989z" fill="#BABABA" p-id="3733"></path><path d="M342.87867 482.700481c-58.969937-0.55632-106.813471 46.730894-106.813471 105.144511 0 58.969937 46.174574 106.813471 104.588191 107.369791 59.526258 0.55632 107.369792-46.730894 107.369791-105.700831s-46.730894-106.257151-105.144511-106.813471z m450.063013 106.257151c0.55632-58.969937-46.174574-106.257151-105.144511-106.813472-58.969937-0.55632-106.813471 46.730894-106.813472 105.144511-0.55632 58.969937 46.730894 106.813471 105.144511 107.369792 59.526258 1.11264 106.257151-45.618253 106.813472-105.700831z" fill="#FFFFFF" p-id="3734"></path><path d="M430.777256 726.925033c7.788482 4.450561 17.245925 7.788482 24.478087 13.351683 11.126403 8.344802 20.027526 8.344802 30.597609-0.55632 18.358565-15.020644 33.37921-15.576965 51.181455-0.55632 11.126403 8.901123 20.583846 8.901123 31.71025 0.55632 16.133285-12.239044 33.93553-12.239044 46.174573-1.11264 3.337921 3.337921 3.337921 10.013763 5.006882 15.020644-4.450561-0.55632-10.570083 1.11264-13.908004-1.11264-11.126403-7.232162-19.471206-5.563202-29.484969 2.225281-17.245925 13.351684-31.710249 12.795364-48.956174-1.112641-11.126403-9.457443-20.583846-9.457443-32.26657-0.55632-18.914886 15.020644-32.82289 15.020644-51.181455 0-9.457443-7.232162-17.802245-8.344802-28.372328-3.337921-3.337921 1.66896-8.344802-0.55632-12.795364-1.11264 1.66896-4.450561 2.225281-10.570083 5.563202-12.795364 6.675842-3.894241 13.908004-5.563202 22.252806-8.901122zM696.698294 609.541478l-31.710249 6.675842c1.11264-10.013763 2.225281-19.471206 3.894241-34.49185-0.55632-5.006881-2.225281-15.576965-3.894241-26.147048 10.570083 2.225281 21.140166 5.006881 29.484969 6.675842 13.351684-1.66896 25.590728-3.337921 37.273451-5.006881-2.781601 9.457443-5.563202 19.471206-7.232162 26.147047 2.225281 12.239044 3.894241 22.252807 5.563201 32.26657-11.126403-1.11264-21.696486-3.337921-33.37921-6.119522zM327.301706 605.647237c-11.682723 1.66896-22.809127 3.894241-34.491851 5.563201 1.66896-9.457443 3.894241-19.471206 6.119522-31.153929-1.66896-7.232162-3.894241-17.245925-6.119522-27.816008 11.126403 2.225281 22.809127 3.894241 32.82289 6.119522 10.570083-1.66896 22.252807-3.894241 33.37921-5.563202-1.66896 9.457443-3.894241 19.471206-6.119522 31.153929 1.66896 6.675842 3.894241 17.245925 6.119522 27.816009-11.126403-2.781601-22.252807-4.450561-31.710249-6.119522z" fill="#BABABA" p-id="3735"></path><path d="M944.260767 1024h-31.153929c-7.232162 0-12.795364-5.563202-12.795364-12.239044s5.563202-12.239044 12.795364-12.239043h31.153929c7.232162 0 12.795364 5.563202 12.795364 12.239043s-5.563202 12.239044-12.795364 12.239044z m-825.022803 0h-39.498731c-7.232162 0-12.795364-5.563202-12.795364-12.239044s5.563202-12.239044 12.795364-12.239043h39.498731c7.232162 0 12.795364 5.563202 12.795364 12.239043 0 6.675842-5.563202 12.239044-12.795364 12.239044z m756.039103 0h-712.08981c-7.232162 0-12.795364-5.563202-12.795363-12.239044s5.563202-12.239044 12.795363-12.239043h712.08981c7.232162 0 12.795364 5.563202 12.795364 12.239043s-5.563202 12.239044-12.795364 12.239044z m0 0" fill="#BABABA" p-id="3736"></path><path d="M473.057589 990.62079c-5.563202-0.55632-11.682723 0-16.689605-2.781601-3.337921-2.225281-7.788482-10.013763-9.457443-13.908004-2.781601-6.675842-3.337921-14.464324-4.450561-21.696486-0.55632-2.225281 0-6.119522 2.7816-6.675842 2.225281-0.55632 3.894241 2.225281 5.006882 4.450561 5.006881 7.232162 6.675842 20.027526 12.795364 26.147048 3.337921 3.337921 13.351684 3.337921 17.802245 1.66896 3.894241-1.11264 5.563202-10.570083 7.232162-15.576964 2.225281-7.232162 1.66896-21.140166 5.563202-23.921767 5.006881-3.894241 8.901123 5.563202 9.457442 10.013763 1.11264 12.239044-2.225281 28.372328-6.119521 34.49185-6.675842 10.570083-17.245925 8.901123-23.921767 7.788482z" fill="#BABABA" p-id="3737"></path><path d="M545.37921 983.388628c-3.894241-6.675842-7.232162-22.252807-6.119522-34.49185 0.55632-4.450561 4.450561-13.908004 9.457443-10.013763 3.337921 2.225281 3.337921 16.689605 5.563201 23.921767 1.66896 5.006881 3.894241 14.464324 7.232163 15.576965 4.450561 1.66896 14.464324 1.66896 17.802245-1.668961 6.119522-6.119522 7.788482-18.914886 12.795364-26.147048 1.11264-1.66896 2.781601-5.006881 5.006881-4.450561 2.225281 0.55632 2.781601 4.450561 2.781601 6.675842-1.11264 7.232162-1.66896 14.464324-4.450561 21.696486-1.66896 3.894241-5.563202 11.682723-9.457443 13.908005-5.006881 2.781601-11.126403 2.225281-16.689605 2.7816-6.119522 0.55632-17.245925 2.225281-23.921767-7.788482z" fill="#BABABA" p-id="3738"></path><path d="M194.341186 385.900772c-0.55632 3.894241-1.66896 6.675842-2.22528 8.901123v115.714594l1.11264 1.11264c14.464324 1.66896 14.464324 1.66896 14.464324 15.576965v43.392973c0 8.344802-2.225281 10.570083-11.126403 11.126403h-33.37921c-7.788482 0-10.013763-2.781601-10.013763-10.013763v-46.174574c0-11.126403 1.11264-12.239044 12.795364-13.351684 1.11264 0 1.66896-0.55632 3.337921-0.55632v-7.232162-90.680187c0-11.126403-0.55632-22.809127-1.66896-33.93553 0-2.225281-2.781601-5.006881-5.006882-6.675842-9.457443-6.119522-20.583846-11.126403-28.928648-18.358565-17.245925-14.464324-17.245925-32.82289-1.112641-47.843534 4.450561-3.894241 8.901123-8.344802 14.464325-10.570083 12.239044-6.119522 25.034407-12.239044 38.386091-17.245925 63.976819-25.590728 128.509958-50.625135 192.486777-75.659543 27.816008-11.126403 56.188337-16.133285 86.229625-18.358565 38.386091-2.781601 76.772183-1.66896 113.489313 8.901123 26.147048 7.232162 51.737775 17.802245 77.328503 27.816008 56.188337 21.696486 112.376673 43.949293 168.56501 66.202099 11.126403 4.450561 21.696486 11.126403 30.597609 19.471206 17.245925 15.020644 15.576965 36.717131-3.337921 49.512495-10.570083 7.788482-22.252807 13.908004-35.048171 18.914885-70.652661 27.816008-141.305322 55.632016-212.514302 82.335384-43.949293 16.689605-89.567546 18.914886-136.29844 16.689605-44.505613-2.225281-85.116985-16.689605-125.728357-32.822889-42.836653-17.802245-86.785946-34.49185-129.622598-51.181455-5.563202-1.11264-10.570083-2.781601-17.245926-5.006882zM539.259688 680.194139c0 10.013763-14.464324 20.583846-27.259688 20.583846s-27.259688-10.570083-27.259688-20.583846 12.239044-15.020644 27.259688-15.020645 27.259688 5.006881 27.259688 15.020645z" fill="#BABABA" p-id="3739"></path></svg>