<?xml version="1.0" standalone="no"?><!DOCTYPE svg PUBLIC "-//W3C//DTD SVG 1.1//EN" "http://www.w3.org/Graphics/SVG/1.1/DTD/svg11.dtd"><svg t="1584188476227" class="icon" viewBox="0 0 1024 1024" version="1.1" xmlns="http://www.w3.org/2000/svg" p-id="11560" xmlns:xlink="http://www.w3.org/1999/xlink" width="128" height="128"><defs><style type="text/css"></style></defs><path d="M368.5 216.3l-46.8-46.8c-7-7-16.6-11-26.6-11H115c-27.7 0-50.1 22.4-50.1 50.1v544.7h766.8V277.4c0-27.7-22.4-50.1-50.1-50.1H395c-9.9 0-19.5-4-26.5-11z" fill="#E8BD1D" p-id="11561"></path><path d="M37.6 367.4h820.6c20.8 0 37.6 16.8 37.6 37.6 0 1.8-0.1 3.6-0.4 5.3l-59 413.3c-2.6 18.5-18.5 32.3-37.2 32.3H96.6c-18.7 0-34.6-13.8-37.2-32.3L0.4 410.3c-2.9-20.5 11.3-39.6 31.9-42.5 1.7-0.3 3.5-0.4 5.3-0.4z" fill="#FFD536" p-id="11562"></path><path d="M346.3 564c-16.3 0-29.5-13.2-29.5-29.5S330 505 346.3 505s29.5 13.2 29.5 29.5-13.2 29.5-29.5 29.5z m206.4 0c-16.3 0-29.5-13.2-29.5-29.5s13.2-29.5 29.5-29.5 29.5 13.2 29.5 29.5S569 564 552.7 564z" fill="#C19B0E" p-id="11563"></path><path d="M868.9 818.4l-50.5 25.3c-14.3 7.1-31.6 1.4-38.8-12.9-2.8-5.6-3.7-12-2.6-18.2l10.8-58.1c0.2-1-0.2-2.1-0.9-2.8l-42.5-40.4c-11.5-10.9-12-29.2-1-40.7 4.4-4.7 10.3-7.7 16.6-8.6l56.8-8.4c1-0.1 1.9-0.8 2.3-1.7l25.2-50.5c7.2-14.3 24.6-20.1 38.9-13 5.6 2.8 10.2 7.4 13 13l25.2 50.5c0.5 0.9 1.3 1.5 2.3 1.7l56.8 8.4c15.7 2.3 26.6 17 24.2 32.7-0.9 6.4-4 12.2-8.6 16.6l-42.5 40.4c-0.8 0.7-1.1 1.8-0.9 2.8l10.8 58.1c2.9 15.7-7.5 30.8-23.2 33.7-6.2 1.1-12.6 0.2-18.2-2.6l-50.5-25.3c-0.7-0.4-1.8-0.4-2.7 0z" fill="#46C7B1" p-id="11564"></path><path d="M880.1 801.6l50.5 25.3c2 1 4.2 1.3 6.4 0.9 5.5-1 9.1-6.3 8.1-11.8l-10.8-58.1c-1.4-7.3 1.1-14.8 6.5-19.9l42.5-40.4c1.6-1.5 2.7-3.6 3-5.8 0.8-5.4-3-10.5-8.4-11.3l-56.8-8.4c-7.1-1-13.2-5.5-16.4-11.9l-25.2-50.5c-1-2-2.6-3.6-4.6-4.6-5.1-2.5-11.2-0.5-13.7 4.6L836 660.3c-3.2 6.4-9.3 10.8-16.4 11.9l-56.8 8.4c-2.2 0.3-4.2 1.4-5.8 3-3.8 4-3.6 10.3 0.4 14.1l42.5 40.4c5.4 5.1 7.8 12.6 6.5 19.9l-10.8 58c-0.4 2.2-0.1 4.4 0.9 6.4 2.5 5 8.6 7 13.6 4.5l50.5-25.3c6.1-3.1 13.4-3.1 19.5 0z m-53.3 58.9c-23.6 11.8-52.2 2.2-64-21.3-4.6-9.3-6.1-19.8-4.2-30l9.2-49.7-36.3-34.5c-19-18.1-19.8-48.2-1.7-67.2 7.3-7.7 17-12.7 27.5-14.3l48.7-7.2 21.6-43.2c11.8-23.6 40.5-33.2 64.1-21.4 9.3 4.6 16.8 12.1 21.4 21.4l21.6 43.2 48.7 7.2c26 3.8 43.9 28 40.1 54-1.6 10.5-6.6 20.2-14.3 27.5l-36.3 34.5 9.2 49.7c4.8 25.9-12.3 50.8-38.2 55.6-10.2 1.9-20.7 0.4-30-4.2l-43.5-21.8-43.6 21.7z" fill="#F5F7F7" p-id="11565"></path><path d="M453.2 615.6c21.7 0 39.3 17.6 39.3 39.3v40.2c0 6.9-5.6 12.5-12.5 12.5-1.7 0-3.3-0.3-4.8-1l-11.7-4.9c-6.1-2.6-12.9-2.6-19.1-0.1l-13.3 5.4c-6.4 2.6-13.7-0.5-16.3-6.9-0.6-1.5-0.9-3.1-0.9-4.7V655c0-21.8 17.6-39.4 39.3-39.4z" fill="#D1A911" p-id="11566"></path></svg>