<?xml version="1.0" standalone="no"?><!DOCTYPE svg PUBLIC "-//W3C//DTD SVG 1.1//EN" "http://www.w3.org/Graphics/SVG/1.1/DTD/svg11.dtd"><svg t="1585208805974" class="icon" viewBox="0 0 1024 1024" version="1.1" xmlns="http://www.w3.org/2000/svg" p-id="71316" xmlns:xlink="http://www.w3.org/1999/xlink" width="128" height="128"><defs><style type="text/css"></style></defs><path d="M306.01728 252.3904h414.54592v518.17984H306.01728z" fill="#DEF1FF" p-id="71317"></path><path d="M675.73248 868.39296H333.66016A138.752 138.752 0 0 1 194.56 729.27232v-436.0192a138.752 138.752 0 0 1 139.10016-139.10016h298.90048a28.19584 28.19584 0 0 1 0 56.38656H333.66016a83.39456 83.39456 0 0 0-82.70848 82.70848v436.0192a83.39456 83.39456 0 0 0 82.70848 82.70848h342.07744a92.16 92.16 0 0 0 92.06784-92.06272V360.87296a28.19584 28.19584 0 1 1 56.38656 0v359.04a148.736 148.736 0 0 1-148.48 148.48z m0 0" fill="#5BABF2" p-id="71318"></path><path d="M681.35424 680.3712H369.34656a28.19584 28.19584 0 1 1 0-56.38656h312.00768a28.19584 28.19584 0 1 1 0 56.38656z m0 0" fill="#5BABF2" p-id="71319"></path><path d="M508.4416 516.93568a21.92384 21.92384 0 0 1-18.83136-7.49056 27.27936 27.27936 0 0 1 0-39.424l287.55968-298.88512a27.8784 27.8784 0 0 1 39.424 39.424l-287.5392 296.90368a30.208 30.208 0 0 1-20.59264 9.472z m0 0" fill="#FFCE00" p-id="71320"></path></svg>