<?xml version="1.0" standalone="no"?><!DOCTYPE svg PUBLIC "-//W3C//DTD SVG 1.1//EN" "http://www.w3.org/Graphics/SVG/1.1/DTD/svg11.dtd"><svg t="1585204809338" class="icon" viewBox="0 0 1024 1024" version="1.1" xmlns="http://www.w3.org/2000/svg" p-id="27115" xmlns:xlink="http://www.w3.org/1999/xlink" width="128" height="128"><defs><style type="text/css"></style></defs><path d="M563.2 783.8464v-87.9616l330.1376 1.3568s-22.4 60.2624-84.3776 123.9808c-62.0032 62.0032-120.576 87.808-120.576 87.808L563.2 783.872z m-1.2032 51.1488l86.784 87.808s-58.5216 27.5712-148.0704 27.5712c-89.5488 0-148.096-24.1152-148.096-24.1152V921.6H460.8c51.2 0 93.5936-37.5552 101.1968-86.6048zM268.2368 486.4H102.4c-11.776 0-23.0912 1.9968-33.6384 5.632 2.816-79.616 23.808-130.6112 23.808-130.6112h301.3632L268.2368 486.4zM650.496 92.7744v301.3632L354.3296 96.256s58.5472-27.5456 148.096-27.5456 148.096 24.0896 148.096 24.0896z m160.1536 105.0624c62.0032 62.0032 87.808 120.5504 87.808 120.5504l-213.504 213.504 1.7152-418.432s60.2624 22.3744 123.9808 84.3776z m99.8912 165.3248s27.5456 58.5472 27.5456 148.096-24.1152 148.096-24.1152 148.096H612.6336v-1.7408L910.592 363.1616zM316.416 110.0032l213.5296 213.5296-418.4576-1.7152s22.4-60.2624 84.3776-123.9808c62.0032-63.744 120.5504-87.808 120.5504-87.808z" fill="#D8DCE6" p-id="27116"></path><path d="M467.5328 512H95.6672C57.088 512 25.6 544.256 25.6 583.8336v230.144C25.6 853.5552 57.088 885.76 95.6672 885.76h21.4528V947.2l97.28-61.4144h253.1328c38.6048 0 70.0672-32.256 70.0672-71.808v-230.144C537.6 544.256 506.112 512 467.5328 512zM162.0992 733.8752A34.5856 34.5856 0 0 1 128 699.7248C128 681.2416 143.616 665.6 162.0992 665.6c18.432 0 34.0736 15.6416 34.0736 34.1248 1.4336 18.5088-14.208 34.1504-34.0736 34.1504z m119.5008 0a34.6112 34.6112 0 0 1-34.1248-34.1504c0-18.4832 15.616-34.1248 34.1248-34.1248 18.4832 0 34.1248 15.6416 34.1248 34.1248 0 18.5088-15.616 34.1504-34.1248 34.1504z m85.3248-34.1504c0-18.4832 15.616-34.1248 34.0992-34.1248 18.4576 0 34.0736 15.6416 34.0736 34.1248 1.4336 18.5088-14.1824 34.1504-34.0736 34.1504a34.5856 34.5856 0 0 1-34.0992-34.1504z" fill="#7B8796" p-id="27117"></path></svg>