<?xml version="1.0" standalone="no"?><!DOCTYPE svg PUBLIC "-//W3C//DTD SVG 1.1//EN" "http://www.w3.org/Graphics/SVG/1.1/DTD/svg11.dtd"><svg t="1585204731644" class="icon" viewBox="0 0 1024 1024" version="1.1" xmlns="http://www.w3.org/2000/svg" p-id="21767" xmlns:xlink="http://www.w3.org/1999/xlink" width="128" height="128"><defs><style type="text/css"></style></defs><path d="M49.434483 335.448276c-17.655172 0-31.77931-14.124138-31.779311-31.77931s14.124138-31.77931 31.779311-31.779311 31.77931 14.124138 31.77931 31.779311-14.124138 31.77931-31.77931 31.77931z m0-56.496552c-13.417931 0-24.717241 11.29931-24.717242 24.717242s11.29931 24.717241 24.717242 24.717241 24.717241-11.29931 24.717241-24.717241-11.29931-24.717241-24.717241-24.717242z" fill="#E7E2D3" p-id="21768"></path><path d="M155.365517 522.593103m-14.124138 0a14.124138 14.124138 0 1 0 28.248276 0 14.124138 14.124138 0 1 0-28.248276 0Z" fill="#E7E2D3" p-id="21769"></path><path d="M193.514814 882.991669l25.63531-734.017324 592.853628 20.705986-25.635311 734.010262z" fill="#FAF9F6" p-id="21770"></path><path d="M786.714483 903.944828l-593.213793-21.186207L218.924138 149.009655l593.213793 20.48-25.423448 734.455173z m-585.445517-27.542069l579.089655 20.48L805.075862 176.551724l-579.089655-20.48-24.717241 720.331035z" fill="#D9CDC0" p-id="21771"></path><path d="M219.185434 904.545103L257.624276 171.113931l592.380469 31.051917-38.438842 733.424111z" fill="#FAF9F6" p-id="21772"></path><path d="M812.137931 935.724138l-592.507586-31.073104v-3.531034l38.135172-730.217931 592.507586 31.073103-38.135172 733.748966z m-585.445517-38.135172l578.383448 30.366896 37.428966-719.624828-578.383449-30.366896-37.428965 719.624828z" fill="#D9CDC0" p-id="21773"></path><path d="M155.584441 173.458538l590.960993-51.694345 64.010594 731.658593-590.953931 51.701407z" fill="#FAF9F6" p-id="21774"></path><path d="M219.630345 904.651034l-63.558621-731.630344 591.095173-51.553104v3.531035l63.55862 728.09931h-3.531034l-587.564138 51.553103zM163.84 179.376552L225.986207 896.882759l576.971034-50.14069-62.852413-717.506207-576.264828 50.14069z" fill="#D9CDC0" p-id="21775"></path><path d="M220.555476 221.487669l590.953931-51.708469 64.017655 731.665655-590.953931 51.701407z" fill="#F7F5F0" p-id="21776"></path><path d="M284.601379 952.673103l-63.55862-731.630344L812.137931 169.489655v3.531035l63.558621 728.09931h-3.531035l-587.564138 51.553103zM228.811034 227.398621l62.852414 717.506207 576.971035-50.14069-63.558621-717.506207-576.264828 50.14069z" fill="#D9CDC0" p-id="21777"></path><path d="M218.924138 169.489655h593.213793v734.455173H218.924138z" fill="#FFFFFF" p-id="21778"></path><path d="M812.137931 903.944828H218.924138V169.489655h593.213793v734.455173z m-586.151724-7.062069h579.089655V176.551724H225.986207v720.331035z" fill="#D9CDC0" p-id="21779"></path><path d="M296.606897 579.089655h437.848275c7.768276 0 14.124138 6.355862 14.124138 14.124138s-6.355862 14.124138-14.124138 14.124138H296.606897c-7.768276 0-14.124138-6.355862-14.124138-14.124138s6.355862-14.124138 14.124138-14.124138zM296.606897 656.772414h437.848275c7.768276 0 14.124138 6.355862 14.124138 14.124138s-6.355862 14.124138-14.124138 14.124138H296.606897c-7.768276 0-14.124138-6.355862-14.124138-14.124138s6.355862-14.124138 14.124138-14.124138zM296.606897 741.517241h268.35862c7.768276 0 14.124138 6.355862 14.124138 14.124138s-6.355862 14.124138-14.124138 14.124138H296.606897c-7.768276 0-14.124138-6.355862-14.124138-14.124138s6.355862-14.124138 14.124138-14.124138zM303.668966 233.048276h423.724137c12.005517 0 21.186207 9.18069 21.186207 21.186207v247.172414c0 12.005517-9.18069 21.186207-21.186207 21.186206H303.668966c-12.005517 0-21.186207-9.18069-21.186207-21.186206V254.234483c0-12.005517 9.18069-21.186207 21.186207-21.186207z" fill="#E7E2D3" p-id="21780"></path><path d="M448.441379 342.510345m-17.655172 0a17.655172 17.655172 0 1 0 35.310345 0 17.655172 17.655172 0 1 0-35.310345 0Z" fill="#D5C8BB" p-id="21781"></path><path d="M582.62069 342.510345m-17.655173 0a17.655172 17.655172 0 1 0 35.310345 0 17.655172 17.655172 0 1 0-35.310345 0Z" fill="#D5C8BB" p-id="21782"></path><path d="M494.344828 381.351724h42.372413v70.62069h-42.372413z" fill="#D5C8BB" p-id="21783"></path><path d="M148.303448 1002.813793a370.758621 21.186207 0 1 0 741.517242 0 370.758621 21.186207 0 1 0-741.517242 0Z" fill="#E7E2D3" p-id="21784"></path><path d="M374.289655 28.248276c0.706207-16.242759 3.531034-28.248276 7.062069-28.248276s6.355862 12.005517 7.062069 28.248276c16.242759 0.706207 28.248276 3.531034 28.248276 7.062069s-12.005517 6.355862-28.248276 7.062069c-0.706207 16.242759-3.531034 28.248276-7.062069 28.248276s-6.355862-12.005517-7.062069-28.248276c-16.242759-0.706207-28.248276-3.531034-28.248276-7.062069s12.005517-6.355862 28.248276-7.062069zM925.131034 338.97931c0.706207-16.242759 3.531034-28.248276 7.062069-28.248276s6.355862 12.005517 7.062069 28.248276c16.242759 0.706207 28.248276 3.531034 28.248276 7.062069s-12.005517 6.355862-28.248276 7.062069c-0.706207 16.242759-3.531034 28.248276-7.062069 28.248276s-6.355862-12.005517-7.062069-28.248276c-16.242759-0.706207-28.248276-3.531034-28.248275-7.062069s12.005517-6.355862 28.248275-7.062069zM98.868966 741.517241c0.706207-16.242759 3.531034-28.248276 7.062068-28.248275s6.355862 12.005517 7.062069 28.248275c16.242759 0.706207 28.248276 3.531034 28.248276 7.062069s-12.005517 6.355862-28.248276 7.062069c-0.706207 16.242759-3.531034 28.248276-7.062069 28.248276s-6.355862-12.005517-7.062068-28.248276c-16.242759-0.706207-28.248276-3.531034-28.248276-7.062069s12.005517-6.355862 28.248276-7.062069zM974.565517 543.77931c0.706207-12.005517 3.531034-21.186207 7.062069-21.186207s6.355862 9.18069 7.062069 21.186207c12.005517 0.706207 21.186207 3.531034 21.186207 7.062069s-9.18069 6.355862-21.186207 7.062069c-0.706207 12.005517-3.531034 21.186207-7.062069 21.186207s-6.355862-9.18069-7.062069-21.186207c-12.005517-0.706207-21.186207-3.531034-21.186207-7.062069s9.18069-6.355862 21.186207-7.062069z" fill="#E7E2D3" p-id="21785"></path></svg>