<?xml version="1.0" standalone="no"?><!DOCTYPE svg PUBLIC "-//W3C//DTD SVG 1.1//EN" "http://www.w3.org/Graphics/SVG/1.1/DTD/svg11.dtd"><svg t="1585204662656" class="icon" viewBox="0 0 2242 1024" version="1.1" xmlns="http://www.w3.org/2000/svg" p-id="19976" xmlns:xlink="http://www.w3.org/1999/xlink" width="280.25" height="128"><defs><style type="text/css"></style></defs><path d="M1394.721851 853.80443a66.128397 66.128397 0 0 1-14.132892-1.523306 66.128397 66.128397 0 0 1-14.132893 1.523306H509.004165a65.950678 65.950678 0 0 1-65.95914-65.959141 65.950678 65.950678 0 0 1 65.95914-65.95914H141.532033a65.95914 65.95914 0 0 1-66.703868-65.163637 66.009917 66.009917 0 0 1 65.214414-66.703867H518.431736a65.950678 65.950678 0 0 0 65.95914-65.959141 65.950678 65.950678 0 0 0-65.95914-65.95914H282.911736a65.95914 65.95914 0 0 1-66.703868-65.205951 65.95914 65.95914 0 0 1 65.20595-66.703868h378.355306a65.95914 65.95914 0 0 1-65.942215-66.009917 65.95914 65.95914 0 0 1 65.942215-65.942215h537.126083a65.950678 65.950678 0 0 1 65.95914 65.959141 65.950678 65.950678 0 0 1-65.95914 65.95914h603.042909a65.95914 65.95914 0 0 1 66.703867 65.163637 65.95914 65.95914 0 0 1-65.163636 66.703867h-1.497917 207.245752a65.950678 65.950678 0 0 1 65.95914 65.959141 65.950678 65.950678 0 0 1-65.95914 65.95914h-179.064595a65.95914 65.95914 0 0 0-66.703868 65.205951 65.95914 65.95914 0 0 0 65.163636 66.703868h58.037951a65.950678 65.950678 0 0 1 65.916826 66.009917 65.950678 65.950678 0 0 1-65.916826 65.916826zM2105.860231 525.540496a66.009917 66.009917 0 0 1 65.950678-66.009917 65.95914 65.95914 0 0 1 65.967603 65.950677 65.950678 65.950678 0 0 1-65.950677 66.009918 66.009917 66.009917 0 0 1-65.950678-65.942215z" fill="#FFE97E" p-id="19977"></path><path d="M1522.679537 761.43286l15.800066-15.808529c-5.483901 4.409124-23.247339 23.484298-33.851239 31.921719a611.454942 611.454942 0 0 1-75.589819 51.513124l1.548695 132.696859a18.846678 18.846678 0 0 1-18.618182 19.066711 18.838215 18.838215 0 0 1-11.712529-3.909818l-119.32562-91.7961a627.195769 627.195769 0 0 1-140.643438 15.800067c-286.169917 0-518.194777-189.837752-518.194777-424.037554s232.02486-423.986777 518.237091-423.986777 518.237091 189.837752 518.237091 423.986777a359.787901 359.787901 0 0 1-49.549752 181.171835 522.747769 522.747769 0 0 1-73.685686 91.025983" fill="#FFFFFF" p-id="19978"></path><path d="M1411.749025 991.401256a29.535207 29.535207 0 0 1-17.94962-6.101686l-115.398876-88.774876a634.769983 634.769983 0 0 1-138.129984 14.970711c-291.560727 0-528.764826-194.966215-528.764826-434.616066S848.726744 42.31405 1140.321322 42.31405s528.815603 194.949289 528.815604 434.565289a370.738777 370.738777 0 0 1-51.013819 186.528793 534.434909 534.434909 0 0 1-75.395173 93.167075 10.72238 10.72238 0 0 1-1.574083 1.277884l-11.001653 11.001653a10.341554 10.341554 0 0 1-2.445752 1.83643c-5.780099 5.66162-11.670215 11.230149-16.502479 15.080727a623.709091 623.709091 0 0 1-71.519207 49.270479l1.489455 126.586711a29.264397 29.264397 0 0 1-8.369719 20.911603 29.255934 29.255934 0 0 1-20.708496 8.860562z m-128.33005-117.709223l123.277752 94.834248a8.46281 8.46281 0 0 0 5.136926 1.692562 8.208926 8.208926 0 0 0 5.822413-2.488066 8.225851 8.225851 0 0 0 2.352661-5.87319l-1.616396-138.891637 5.365421-3.097388a602.458975 602.458975 0 0 0 74.278083-50.616066c5.780099-4.603769 14.386777-13.125818 21.283967-19.980694 5.492364-5.45005 9.833785-9.749157 12.533421-11.915637l0.101554 0.11848a512.558545 512.558545 0 0 0 68.134083-85.144331 349.217851 349.217851 0 0 0 47.891041-175.501752c0-227.92886-227.734215-413.382876-507.658579-413.382876s-507.658579 185.454017-507.658578 413.408264 227.717289 413.459041 507.616264 413.459042a614.789289 614.789289 0 0 0 138.282314-15.529256z" fill="#FFD500" p-id="19979"></path><path d="M1253.392926 476.91319a56.540033 56.540033 0 0 1 56.53157-56.548496 56.540033 56.540033 0 0 1 56.548496 56.53157 56.540033 56.540033 0 0 1-56.531571 56.548496 56.548496 56.548496 0 0 1-56.548495-56.53157z m-179.030744 0a56.53157 56.53157 0 0 1 56.53157-56.53157 56.53157 56.53157 0 0 1 56.53157 56.53157 56.53157 56.53157 0 0 1-56.523107 56.53157 56.548496 56.548496 0 0 1-56.53157-56.53157z m-179.022281 0a56.53157 56.53157 0 0 1 56.53157-56.53157 56.53157 56.53157 0 0 1 56.53157 56.53157 56.53157 56.53157 0 0 1-56.523107 56.53157 56.548496 56.548496 0 0 1-56.556959-56.53157z" fill="#FFE97E" p-id="19980"></path><path d="M1309.941421 544.023273a67.194711 67.194711 0 0 1-67.127008-67.110083 66.644628 66.644628 0 0 1 19.650645-47.459438 66.678479 66.678479 0 0 1 47.459438-19.66757 66.695405 66.695405 0 0 1 47.450975 19.650644 66.678479 66.678479 0 0 1 19.66757 47.459438 66.644628 66.644628 0 0 1-19.650644 47.459438 66.678479 66.678479 0 0 1-47.450976 19.667571z m-45.969983-67.110083a46.012298 46.012298 0 0 0 45.961521 45.953058 45.699174 45.699174 0 0 0 32.505653-13.464331 45.699174 45.699174 0 0 0 13.455867-32.505653 46.012298 46.012298 0 0 0-45.96152-45.953057 46.003835 46.003835 0 0 0-45.961521 45.969983z m-133.069223 67.110083a67.194711 67.194711 0 0 1-67.110083-67.110083 67.186248 67.186248 0 0 1 67.110083-67.110083 67.177785 67.177785 0 0 1 67.110083 67.110083 67.186248 67.186248 0 0 1-67.110083 67.110083z m-45.961521-67.110083a46.02076 46.02076 0 0 0 45.961521 45.953058 46.003835 46.003835 0 0 0 45.944595-45.953058 46.003835 46.003835 0 0 0-45.953058-45.953058 46.012298 46.012298 0 0 0-45.953058 45.953058z m-133.06076 67.110083a67.203174 67.203174 0 0 1-67.118546-67.110083 67.177785 67.177785 0 0 1 67.110083-67.110083 67.186248 67.186248 0 0 1 67.110083 67.110083 67.186248 67.186248 0 0 1-67.10162 67.110083z m-45.961521-67.110083a46.02076 46.02076 0 0 0 45.961521 45.953058 45.995372 45.995372 0 0 0 45.944595-45.953058 46.003835 46.003835 0 0 0-45.953058-45.953058 46.003835 46.003835 0 0 0-45.953058 45.953058z" fill="#FFD500" p-id="19981"></path><path d="M738.09243 393.926876a10.595438 10.595438 0 0 1-3.935207-0.761653 10.57005 10.57005 0 0 1-5.881653-13.752066 335.321917 335.321917 0 0 1 22.849587-46.325421 10.603901 10.603901 0 0 1 14.505256-3.689786 10.595438 10.595438 0 0 1 3.689785 14.505257 312.853157 312.853157 0 0 0-21.427834 43.380363 10.57005 10.57005 0 0 1-9.799934 6.643306z" fill="#FFE97E" p-id="19982"></path><path d="M781.684364 317.093025a10.544661 10.544661 0 0 1-6.465587-2.208794 10.578512 10.578512 0 0 1-1.89567-14.835305 422.598876 422.598876 0 0 1 155.453356-124.140959 10.57005 10.57005 0 0 1 14.048264 5.128463 10.57005 10.57005 0 0 1-5.128463 14.048264 401.340298 401.340298 0 0 0-147.633719 117.903868 10.57005 10.57005 0 0 1-8.378181 4.104463z" fill="#FFE97E" p-id="19983"></path><path d="M138.45157 845.891702l-77.062347-0.600859 3.452827-43.752727 79.550413 5.433124z" fill="#D3907A" p-id="19984"></path><path d="M70.199008 801.504264l-20.429223-34.308231-5.077686-22.849587a24.203636 24.203636 0 0 0-22.003306-18.922843l-5.018446-0.346975 2.538843 127.145256 50.77686-4.502215z" fill="#07090C" p-id="19985"></path><path d="M19.422149 852.755041l-2.538843-128.143867 11.001653-0.220034 2.538843 128.143868-11.001653 0.220033" fill="#FFFFFF" p-id="19986"></path><path d="M455.316099 859.305256l-172.84443-6.499438-184.040727-6.914116 1.607934-62.015471 180.198612-6.245553 158.110677-5.483901a33.182678 33.182678 0 0 1 35.044496 31.193917 33.267306 33.267306 0 0 1-1.760264 12.744992c-4.57838 13.185058-2.37805 43.008-16.316298 43.21957z" fill="#FFE97E" p-id="19987"></path><path d="M448.630479 738.871008L330.252694 564.097058l-32.260231 78.204826 76.816925 170.204033a91.009058 91.009058 0 0 0 80.498248 46.807802c34.105124-0.626248 71.933884-9.867636 78.120199-46.418512z" fill="#FFD500" p-id="19988"></path><path d="M260.950744 738.566347l-38.412694 66.805422-36.390083-24.542149 38.21805-66.07762z" fill="#D3907A" p-id="19989"></path><path d="M189.753124 777.893025l-39.919074 0.913983-22.367207-6.829487a24.212099 24.212099 0 0 0-27.301025 9.85071l-2.767339 4.231405 111.962976 60.297521 21.038545-46.401587z" fill="#07090C" p-id="19990"></path><path d="M209.420694 847.279603l-112.843107-60.771438 5.221553-9.689917 112.843108 60.771438-5.221554 9.689917" fill="#FFFFFF" p-id="19991"></path><path d="M350.055669 622.795107l-94.783471 152.686017-56.700826-31.633984 77.121587-172.006611a33.174215 33.174215 0 0 1 44.294347-15.461554 33.123438 33.123438 0 0 1 10.282314 7.726546c9.292165 10.366942 26.336264 46.384661 19.786049 58.689586z" fill="#FFD500" p-id="19992"></path><path d="M587.530579 478.453421l32.666446 100.318149-58.985785-11.517884-21.072397-61.778512z" fill="#D3907A" p-id="19993"></path><path d="M549.143273 531.870678s22.95114-7.311868 27.681851-20.259967a63.369521 63.369521 0 0 1-21.77481 37.608727z" fill="#090D0F" p-id="19994"></path><path d="M519.261091 436.901025l-8.902876 51.259239c-6.025521 21.216264 11.001653 49.084298 32.674909 45.064463l3.198942-0.719339a35.399934 35.399934 0 0 0 27.419504-38.505785l-6.68562-59.095801c-1.946446-3.562843-37.921851-18.821289-47.704859 1.997223z" fill="#D3907A" p-id="19995"></path><path d="M516.916893 464.532099l-13.227372 15.495405a5.077686 5.077686 0 0 0 0.27081 6.998744l6.110148 3.774413z" fill="#D3907A" p-id="19996"></path><path d="M624.783868 449.629091a13.472793 13.472793 0 0 0-6.770248-17.771901 13.455868 13.455868 0 0 0-6.304794-1.159405c-14.217521-1.091702-3.605157 27.664926-3.605157 27.664926z" fill="#090D0F" p-id="19997"></path><path d="M616.769587 441.758678l1.074777-3.61362 0.296198 0.110016 0.516231-2.818115 0.981686-3.300496-0.346975-0.135405 0.48238-2.640397c0.956298-4.993058-2.538843-8.555901-6.617917-11.331702a257.345587 257.345587 0 0 0-70.072066-28.858182 9.740694 9.740694 0 0 0-10.265389 3.22433l-3.148165 4.950744-11.111669-4.299107a6.541752 6.541752 0 0 0-8.200463 4.282182l-0.093091 0.321586a84.306512 84.306512 0 0 0-2.64886 18.618182 20.471537 20.471537 0 0 0 13.946711 16.92562v0.067703l0.321587 0.059239a23.027306 23.027306 0 0 0 3.520529 0.888595l19.532165 5.314645a22.697256 22.697256 0 0 0 9.622215 19.413686l-1.210182 19.413686 17.035637 3.385124v-8.46281l5.179239 12.07643 23.052695 26.945586 26.23471-62.624793a10.857785 10.857785 0 0 0-8.081983-7.912727z" fill="#090D0F" p-id="19998"></path><path d="M563.834711 469.939835a16.316298 16.316298 0 0 0 8.208925 21.554777 16.316298 16.316298 0 0 0 21.554777-8.208926 16.307835 16.307835 0 0 0-8.208925-21.554777 16.316298 16.316298 0 0 0-6.228628-1.421752 16.32476 16.32476 0 0 0-15.326149 9.630678z" fill="#D3907A" p-id="19999"></path><path d="M540.104992 579.465521s18.736661-18.533554 29.281322-21.224728a143.69005 143.69005 0 0 1 44.218182-4.493752 10.823934 10.823934 0 0 1 7.430347 5.847802 155.478744 155.478744 0 0 1 9.190612 104.803438c-12.524959 50.074446-96.780694 176.026446-96.780695 176.026446-55.253686 0.54162-84.797355-101.553719-84.797355-101.553719 48.466512-72.111603 38.649653-96.636826 91.457587-159.405487z" fill="#FFFFFF" p-id="20000"></path><path d="M392.902876 553.146182l-13.117355-31.80324-28.240397 6.076298 16.290909 39.775206z" fill="#D3907A" p-id="20001"></path><path d="M354.058579 472.174017c-14.962248 5.593917-17.340298 31.507041-10.29924 45.631471a28.088066 28.088066 0 0 0 37.710281 12.508033l0.677025-0.346976a29.408264 29.408264 0 0 0 12.905785-38.928925c-7.041058-14.132893-19.481388-26.911736-40.993851-18.863603z" fill="#D3907A" p-id="20002"></path><path d="M359.398612 428.920595a6.254017 6.254017 0 0 0-3.867505 7.777322l23.196562 71.595372a5.923967 5.923967 0 0 0 7.455736 3.816728l0.160793-0.050777a6.262479 6.262479 0 0 0 3.867504-7.777323l-23.196562-71.595372a5.923967 5.923967 0 0 0-7.455735-3.816727z" fill="#0B090A" p-id="20003"></path><path d="M571.595107 567.211372l-124.310214 61.016859-50.02367-90.145851-45.369124 21.605554 58.748827 117.836165a35.721521 35.721521 0 0 0 13.320462 13.337389 29.958347 29.958347 0 0 0 24.626777 1.92952l128.913984-44.683636z" fill="#FFFFFF" p-id="20004"></path><path d="M479.815934 679.487471l96.729917-34.257454 2.005686 5.653157-96.729917 34.265917z" fill="#FFE97E" p-id="20005"></path><path d="M1831.555174 794.979438l31.312396-126.180496L1833.890909 600.013223l-97.720066 164.737058z" fill="#FFD500" p-id="20006"></path><path d="M1922.538843 753.790942l9.309091 39.538248-34.240529 12.084893-14.539107-50.861488z" fill="#E17C7C" p-id="20007"></path><path d="M1892.14043 797.086678l8.107372 47.916429 117.946181-28.34195-1.523305-4.57838a23.095008 23.095008 0 0 0-22.790347-15.732364l-22.282579 0.846281-38.438083-10.155372z" fill="#050006" p-id="20008"></path><path d="M1899.968529 845.857851l-2.454215-10.214611 116.185917-27.927273a2.775802 2.775802 0 0 1 3.334348 2.048l1.811041 7.523438-118.877091 28.587372" fill="#FFFFFF" p-id="20009"></path><path d="M1825.995107 637.62195c-6.516364-18.195041 11.390942-50.396033 30.288397-54.466644a31.95557 31.95557 0 0 1 37.371769 22.240264l41.890909 145.441851-68.548761 10.155372z" fill="#FFD500" p-id="20010"></path><path d="M2114.813884 814.393124l40.621488 0.499306 3.49514 36.136198-41.315438-0.727802z" fill="#E17C7C" p-id="20011"></path><path d="M2149.511405 854.320661l48.45805 3.664397 0.846281-121.297455-4.781488 0.38929a23.086545 23.086545 0 0 0-20.742347 18.305057l-4.527603 21.842513-19.066711 34.875239z" fill="#050006" p-id="20012"></path><path d="M2198.731107 858.433587l-10.502347-0.067703 0.846281-119.494876a2.775802 2.775802 0 0 1 2.784265-2.74195l7.735008 0.050777-0.846281 122.262215" fill="#FFFFFF" p-id="20013"></path><path d="M1669.475438 800.581818c-6.211702 76.783074 111.294413 62.379372 111.294413 62.379372l160.150215-9.478347 184.743141 6.719471-0.761653-60.830678-182.635901-21.639405-216.580232-23.086545z" fill="#FFE97E" p-id="20014"></path><path d="M1651.305785 483.454942c-39.597488-2.598083-34.697521 20.733884-16.92562 51.242314 14.099041 24.068231-5.45005 48.805025-20.649256 58.393389a3.512066 3.512066 0 0 1-4.832264-1.14248 3.512066 3.512066 0 0 1-0.169257-3.385124 40.756893 40.756893 0 0 0 2.7081-34.06281c-5.60238-11.450182-69.335802-48.872727-33.394248-87.006148 26.234711-27.85957 72.306248 3.207405 72.306248 3.207405z" p-id="20015"></path><path d="M1656.654281 490.199802s-18.313521 4.442975-24.102083-18.618182a19.142876 19.142876 0 0 1 11.915637-24.30519 19.117488 19.117488 0 0 1 5.373884-1.015537z" fill="#758CFF" p-id="20016"></path><path d="M1641.311207 462.069421a59.485091 59.485091 0 0 1 46.782413-69.911272c32.234843-6.397884 59.696661 15.309223 66.086082 47.544066s-10.713917 62.777124-42.940297 69.166545a59.476628 59.476628 0 0 1-69.919736-46.765487z" p-id="20017"></path><path d="M1676.948099 547.992331c1.904132 13.10043 22.722645 19.007471 35.95848 13.726677 10.324628-4.129851 9.309091-8.759008 9.30909-8.759008l5.170777-51.149223-41.747041-36.931703z" fill="#E17C7C" p-id="20018"></path><path d="M1727.369521 501.844628l-2.208794 21.935603c-43.854281-5.416198-39.699041-56.269223-39.699041-56.269223l9.148297 8.869025z" fill="#C45353" p-id="20019"></path><path d="M1684.344595 479.257388l-9.681455-48.771173a17.408 17.408 0 0 1 13.658976-20.403835l44.18433-8.759008a17.408 17.408 0 0 1 20.403835 13.650512l10.866248 54.81362c4.231405 21.520926-10.764694 37.989554-32.277157 42.25481a43.828893 43.828893 0 0 1-47.154777-32.784926z" fill="#E17C7C" p-id="20020"></path><path d="M1762.329388 472.867967l9.148298-8.623603a4.053686 4.053686 0 0 0-0.609322-5.340033l-14.699901-9.148298z" fill="#E17C7C" p-id="20021"></path><path d="M1687.543537 458.159603l0.372364-0.110016v8.979041a19.227504 19.227504 0 0 0 21.639405-16.451702c0.067702-0.507769 0.118479-1.015537 0.143868-1.523306a50.65838 50.65838 0 0 0 25.024528-45.132165s12.694215 4.358347 20.996232 25.126082c0 0 14.107504-14.556033-6.177851-31.160066a18.897455 18.897455 0 0 0-0.778579-0.660099 19.676033 19.676033 0 0 0-27.664925 2.953521c-8.818248-0.406215-20.14995-0.75319-28.215009-0.448529-15.080727 0.567008-27.191008 16.92562-31.151603 34.883702s25.81157 23.543537 25.81157 23.543537z" p-id="20022"></path><path d="M1677.159669 448.283504a16.079339 16.079339 0 0 1 18.905918 12.634975 16.079339 16.079339 0 0 1-12.634975 18.905918 16.079339 16.079339 0 0 1-18.905918-12.634976 16.079339 16.079339 0 0 1 12.634975-18.905917z" fill="#E17C7C" p-id="20023"></path><path d="M1725.236893 624.555372l127.915371 36.491636a25.557686 25.557686 0 0 0 30.948496-15.622347c0.21157-0.567008 0.406215-1.134017 0.575471-1.692562a25.566149 25.566149 0 0 0-17.255669-31.760925l-145.839603-43.101091z" fill="#E17C7C" p-id="20024"></path><path d="M1874.61395 503.934942l-38.226512 123.810909a25.566149 25.566149 0 0 0 13.726678 31.854017c0.550083 0.245421 1.108628 0.473917 1.692562 0.668562a25.549223 25.549223 0 0 0 32.759537-15.233058l14.158281-139.289389z" fill="#E17C7C" p-id="20025"></path><path d="M1853.871603 480.543736a28.316562 28.316562 0 0 0 8.73362 38.505785l0.609322 0.397752a27.080992 27.080992 0 0 0 37.295604-8.46281c8.056595-12.863471 8.183537-37.913388-5.627769-44.658248-19.862215-9.75762-32.937256 1.320198-41.010777 14.217521z" fill="#E17C7C" p-id="20026"></path><path d="M1893.697587 424.299901a5.703934 5.703934 0 0 0-7.506513 2.945058l-28.866644 66.407669a6.017058 6.017058 0 0 0 2.970446 7.811174l0.118479 0.050777a5.695471 5.695471 0 0 0 7.49805-2.936596l28.866645-66.416132a6.017058 6.017058 0 0 0-2.970447-7.802711z" p-id="20027"></path><path d="M1785.898314 651.941025l-29.069752-9.393719 6.770248 80.29514a184.599273 184.599273 0 0 1-100.902083 122.143736c-68.701091-133.382347-13.616661-265.072132-13.616661-265.072132 14.386777-53.933488 76.596893-29.916033 76.596893-29.916033l81.192198 32.522578z" fill="#FFFFFF" p-id="20028"></path><path d="M1716.570975 633.37362l1.878744-6.059372 39.335141 12.203372-1.887207 6.059372z" fill="#FFE97E" p-id="20029"></path></svg>