<?xml version="1.0" standalone="no"?><!DOCTYPE svg PUBLIC "-//W3C//DTD SVG 1.1//EN" "http://www.w3.org/Graphics/SVG/1.1/DTD/svg11.dtd"><svg t="1585204692848" class="icon" viewBox="0 0 1238 1024" version="1.1" xmlns="http://www.w3.org/2000/svg" p-id="20978" xmlns:xlink="http://www.w3.org/1999/xlink" width="154.75" height="128"><defs><style type="text/css"></style></defs><path d="M717.638806 447.967933c0-144.518102-135.676629-261.688491-303.068013-261.688491s-303.068014 117.158458-303.068014 261.688491c0 81.613591 43.264749 154.505028 111.061302 202.482842 20.725557 14.676128 6.311928 76.184617-1.491476 97.518696-1.348295 3.698862 2.732385 9.903404 12.576129 3.496021 13.005675-8.471586 44.207362-28.38578 94.917561-41.451113 20.045443-5.166474 69.896552-0.369886 85.968702-0.369886 167.367521 0 303.068014-117.158458 303.068014-261.688492zM283.02257 475.900304a29.24487 29.24487 0 1 1 29.24487-29.24487 29.256802 29.256802 0 0 1-29.24487 29.24487z m131.560155 0a29.24487 29.24487 0 1 1 29.24487-29.24487 29.24487 29.24487 0 0 1-29.24487 29.24487z m131.560154 0a29.24487 29.24487 0 1 1 29.24487-29.24487 29.256802 29.256802 0 0 1-29.24487 29.24487z m0 0" fill="#68DDD7" p-id="20979"></path><path d="M823.891588 727.100733l1.694318-2.290908c28.922711-30.354529 44.040316-65.040305 44.040316-104.439146 0-61.639739-41.355659-116.418685-105.429487-151.152189q0.441477 6.992042 0.441477 13.996015c0 144.518102-135.676629 261.688491-303.068014 261.688491-8.853404 0-27.944303-1.455681-46.653383-1.897158 59.050535 43.694294 138.18231 67.128372 222.850445 59.754512 12.743175-1.109658 46.534065-7.159087 70.087461-7.791473a84.357908 84.357908 0 0 1 15.582946 0.692045c51.664744 8.614768 86.422111 21.14317 100.119831 28.433507 5.965906 3.138066 8.113632-1.193181 6.514769-6.32386-5.500565-17.58749-25.581804-74.2278-6.204542-90.681768z m0 0" fill="#68DDD7" opacity=".4" p-id="20980"></path><path d="M944.032999 479.980984a5.846588 5.846588 0 0 1-5.846588-5.846588v-34.602254l-24.806236 24.758509a5.551872 5.551872 0 0 1-7.851132-7.851132l24.794304-24.794304h-34.602253a5.858519 5.858519 0 0 1 0-11.705107h34.602253l-24.782372-24.746577a5.551872 5.551872 0 0 1 7.851132-7.851132l24.806236 24.746577v-34.602254a5.858519 5.858519 0 0 1 11.705107 0v34.602254l24.782373-24.794305a5.551872 5.551872 0 1 1 7.851132 7.851132l-24.794305 24.782373h34.602254a5.858519 5.858519 0 0 1 0 11.705107h-34.602254l24.794305 24.794305a5.551872 5.551872 0 1 1-7.851132 7.851132l-24.782373-24.794305v34.602254a5.846588 5.846588 0 0 1-5.858519 5.846587m-427.803172-346.261171a25.546009 25.546009 0 0 1-25.414759-25.534077c0-13.69772 11.705107-25.546009 25.414759-25.546008a25.540043 25.540043 0 0 1 0 51.080085m0-39.983501a14.389765 14.389765 0 1 0 14.318174 14.318174 14.568742 14.568742 0 0 0-14.318174-14.318174M25.414759 362.882185A25.546009 25.546009 0 0 1 0 337.348108c0-13.709651 11.705107-25.546009 25.414759-25.546008a25.880099 25.880099 0 0 1 25.414758 25.546008 25.462486 25.462486 0 0 1-25.414758 25.534077m0-39.864182a14.389765 14.389765 0 1 0 14.318173 14.318173 14.413628 14.413628 0 0 0-14.318173-14.318173m873.647242-224.318058c-29.280666 0-52.69088 27.777257-52.69088 61.91417 0-34.136913-23.422146-61.91417-52.69088-61.91417 29.280666 0 52.69088-27.777257 52.69088-61.91417-0.119318 34.005663 23.302828 61.91417 52.69088 61.91417zM256.378835 0c0 27.276121-18.184081 48.920427-40.735205 48.920427 22.551124 0 40.735205 21.66817 40.735205 48.920428 0-27.276121 18.184081-48.920427 40.735205-48.920428-22.670442 0-40.735205-21.548852-40.735205-48.920427" fill="#68DDD7" p-id="20981"></path><path d="M282.62882 445.068503m-33.934072 0a33.934072 33.934072 0 1 0 67.868145 0 33.934072 33.934072 0 1 0-67.868145 0Z" fill="#F2FCFB" p-id="20982"></path><path d="M413.986134 445.068503m-33.934072 0a33.934072 33.934072 0 1 0 67.868144 0 33.934072 33.934072 0 1 0-67.868144 0Z" fill="#F2FCFB" p-id="20983"></path><path d="M545.343447 445.068503m-33.934072 0a33.934072 33.934072 0 1 0 67.868144 0 33.934072 33.934072 0 1 0-67.868144 0Z" fill="#F2FCFB" p-id="20984"></path></svg>