<?xml version="1.0" standalone="no"?><!DOCTYPE svg PUBLIC "-//W3C//DTD SVG 1.1//EN" "http://www.w3.org/Graphics/SVG/1.1/DTD/svg11.dtd"><svg t="1586013219028" class="icon" viewBox="0 0 1365 1024" version="1.1" xmlns="http://www.w3.org/2000/svg" p-id="147553" xmlns:xlink="http://www.w3.org/1999/xlink" width="170.625" height="128"><defs><style type="text/css"></style></defs><path d="M408.8048 19.36C262.415467 109.898667 320.2288 254.634667 256.5488 379.861333c-4.832 9.493333-71.754667 54.570667-200.768 135.221334-78.282667 82.517333-78.346667 244.533333 26.570667 319.168C152.314133 884.010667 235.087467 947.253333 330.682133 1024c193.269333-32.554667 324.821333-39.36 394.666667-20.405333 203.68 55.264 537.354667-59.2 580.48-292.085334C1340.591467 523.946667 1209.1888 500.053333 1194.682133 373.333333c-10.464-91.434667 40.672-174.485333-64-293.333333S908.975467 67.989333 763.930133 63.808C618.895467 59.616 506.895467-41.312 408.8048 19.36z" fill="#F5FAFF" p-id="147554"></path><path d="M101.3488 506.666667V490.666667a10.666667 10.666667 0 0 1 21.333333 0v16H138.682133a10.666667 10.666667 0 0 1 0 21.333333h-16V544a10.666667 10.666667 0 0 1-21.333333 0v-16H85.3488a10.666667 10.666667 0 0 1 0-21.333333h16z m1194.666667 298.666666V789.333333a10.666667 10.666667 0 1 1 21.333333 0v16h16a10.666667 10.666667 0 1 1 0 21.333334h-16V842.666667a10.666667 10.666667 0 1 1-21.333333 0v-16H1280.015467a10.666667 10.666667 0 1 1 0-21.333334h16z m-650.666667-778.666666V10.666667a10.666667 10.666667 0 0 1 21.333333 0v16H682.682133a10.666667 10.666667 0 0 1 0 21.333333h-16V64a10.666667 10.666667 0 0 1-21.333333 0V48H629.3488a10.666667 10.666667 0 0 1 0-21.333333h16z" fill="#94CDFF" p-id="147555"></path><path d="M1226.682133 384a42.666667 42.666667 0 1 1 0-85.333333 42.666667 42.666667 0 0 1 0 85.333333z m0-21.333333a21.333333 21.333333 0 1 0 0-42.666667 21.333333 21.333333 0 0 0 0 42.666667zM128.015467 810.666667a42.666667 42.666667 0 1 1 0-85.333334 42.666667 42.666667 0 0 1 0 85.333334z m0-21.333334a21.333333 21.333333 0 1 0 0-42.666666 21.333333 21.333333 0 0 0 0 42.666666z m1205.333333-128a32 32 0 1 1 0-64 32 32 0 0 1 0 64z m0-21.333333a10.666667 10.666667 0 1 0 0-21.333333 10.666667 10.666667 0 0 0 0 21.333333zM298.682133 277.333333a42.666667 42.666667 0 1 1 0-85.333333 42.666667 42.666667 0 0 1 0 85.333333z m0-21.333333a21.333333 21.333333 0 1 0 0-42.666667 21.333333 21.333333 0 0 0 0 42.666667z" fill="#BDE2FF" p-id="147556"></path><path d="M576.015467 277.333333h266.666666a85.333333 85.333333 0 0 1 85.333334 85.333334v394.666666h32a64 64 0 0 0 64-64V245.333333a64 64 0 0 0-64-64H640.015467a64 64 0 0 0-64 64v32z m-21.333334 0v-32a85.333333 85.333333 0 0 1 85.333334-85.333333h320a85.333333 85.333333 0 0 1 85.333333 85.333333v448a85.12 85.12 0 0 1-28.885333 64H1120.015467a10.666667 10.666667 0 1 1 0 21.333334H928.015467v32a85.12 85.12 0 0 1-28.885334 64H928.015467a10.666667 10.666667 0 0 1 0 21.333333H437.3488a10.666667 10.666667 0 0 1 0-21.333333h28.885333A85.12 85.12 0 0 1 437.3488 810.666667V362.666667a85.333333 85.333333 0 0 1 85.333333-85.333334h32z m-32 597.333334h320a64 64 0 0 0 64-64V362.666667a64 64 0 0 0-64-64H522.682133a64 64 0 0 0-64 64v448a64 64 0 0 0 64 64z m-202.666666 0h74.666666a10.666667 10.666667 0 0 1 0 21.333333h-74.666666a10.666667 10.666667 0 0 1 0-21.333333z m213.333333-501.333334h128a10.666667 10.666667 0 0 1 0 21.333334H533.3488a10.666667 10.666667 0 0 1 0-21.333334z m0 128h53.333333a10.666667 10.666667 0 0 1 0 21.333334h-53.333333a10.666667 10.666667 0 0 1 0-21.333334z m0-64h213.333333a10.666667 10.666667 0 0 1 0 21.333334H533.3488a10.666667 10.666667 0 0 1 0-21.333334z m226.218667 305.301334l-20.138667-20.138667a85.333333 85.333333 0 1 1 16.426667-13.738667l18.794666 18.794667a26.666667 26.666667 0 0 1 28.597334 5.973333l52.8 52.8a26.666667 26.666667 0 1 1-37.706667 37.706667l-52.8-52.8a26.666667 26.666667 0 0 1-5.973333-28.597333z m-24.48-43.445334A64 64 0 1 0 693.3488 714.666667a63.722667 63.722667 0 0 0 39.125333-13.344 10.837333 10.837333 0 0 1 2.613334-2.133334z" fill="#197AFA" opacity=".5" p-id="147557"></path></svg>