<?xml version="1.0" standalone="no"?><!DOCTYPE svg PUBLIC "-//W3C//DTD SVG 1.1//EN" "http://www.w3.org/Graphics/SVG/1.1/DTD/svg11.dtd"><svg t="1586013233717" class="icon" viewBox="0 0 1428 1024" version="1.1" xmlns="http://www.w3.org/2000/svg" p-id="147842" xmlns:xlink="http://www.w3.org/1999/xlink" width="178.5" height="128"><defs><style type="text/css"></style></defs><path d="M1282.133333 486.378667c-7.68 0-12.8-5.12-12.8-12.8v-23.061334c0-7.68 5.12-12.8 12.8-12.8s12.8 5.12 12.8 12.8v23.061334a12.8 12.8 0 0 1-12.8 12.8z m57.642667-56.362667h-23.061333c-7.68 0-12.8-5.12-12.8-12.8s5.12-12.8 12.8-12.8h23.061333c7.68 0 12.8 5.12 12.8 12.8s-5.12 12.8-12.8 12.8z m-56.362667-35.861333c-7.68 0-12.8-5.12-12.8-12.8v-23.061334c0-7.68 5.12-12.8 12.8-12.8s12.8 5.12 12.8 12.8v23.061334c0.021333 7.68-5.12 12.8-12.8 12.8z m-34.581333 34.581333h-23.061333c-7.68 0-12.8-5.12-12.8-12.8s5.12-12.8 12.8-12.8h23.061333c7.68 0 12.8 5.12 12.8 12.8s-6.4 12.8-12.8 12.8zM279.210667 809.152c-3.84 0-6.4-1.28-8.96-3.84a12.394667 12.394667 0 0 1 0-17.941333l16.661333-16.661334c5.12-5.12 12.8-5.12 17.941333 0 5.12 5.12 5.12 12.8 0 17.941334l-16.64 16.64a11.733333 11.733333 0 0 1-9.002666 3.861333z m80.704 0c-3.84 0-6.4-1.28-8.96-3.84l-16.64-16.64a12.394667 12.394667 0 0 1 0-17.941333c5.12-5.12 12.8-5.12 17.941333 0l16.661333 16.661333c5.12 5.12 5.12 12.8 0 17.941333-1.322667 2.538667-5.162667 3.818667-9.002666 3.818667z m-15.381334-64.042667c-3.84 0-6.4-1.28-8.96-3.84a12.394667 12.394667 0 0 1 0-17.941333l16.661334-16.661333c5.12-5.12 12.8-5.12 17.941333 0 5.12 5.12 5.12 12.8 0 17.941333l-15.36 16.661333a14.72 14.72 0 0 1-10.282667 3.84z m-48.661333-1.28c-3.84 0-6.4-1.28-8.96-3.84l-16.661333-16.64a12.394667 12.394667 0 0 1 0-17.941333c5.12-5.12 12.8-5.12 17.941333 0l16.64 16.661333c5.12 5.12 5.12 12.8 0 17.941334-1.28 2.538667-5.12 3.818667-8.96 3.818666zM1133.546667 158.485333a51.413333 51.413333 0 0 1-51.242667-51.242666 51.413333 51.413333 0 0 1 51.242667-51.242667 51.413333 51.413333 0 0 1 51.242666 51.242667 51.413333 51.413333 0 0 1-51.242666 51.242666z m0-76.864c-14.101333 0-25.621333 11.52-25.621334 25.621334 0 14.08 11.52 25.621333 25.621334 25.621333 14.08 0 25.621333-11.52 25.621333-25.621333 0-14.08-11.52-25.621333-25.621333-25.621334z m51.242666 723.690667c-14.08 0-25.621333-11.52-25.621333-25.621333 0-14.08 11.52-25.621333 25.621333-25.621334s25.621333 11.52 25.621334 25.621334-11.541333 25.621333-25.621334 25.621333z m0-38.421333c-7.68 0-12.8 5.12-12.8 12.8s5.12 12.8 12.8 12.8 12.8-5.12 12.8-12.8-6.4-12.8-12.8-12.8zM256.149333 474.858667h-76.842666c-7.68 0-12.8-5.12-12.8-12.8s5.12-12.8 12.8-12.8h76.842666c7.68 0 12.8 5.12 12.8 12.8a12.8 12.8 0 0 1-12.8 12.8z" fill="#5EACFF" p-id="147843"></path><path d="M217.728 513.28c-7.68 0-12.8-5.12-12.8-12.8v-76.842667c0-7.68 5.12-12.8 12.8-12.8s12.8 5.12 12.8 12.8v76.842667a12.8 12.8 0 0 1-12.8 12.8z" fill="#5EACFF" p-id="147844"></path><path d="M12.8 993.6H268.970667c7.68 0 12.8-5.12 12.8-12.8s-5.12-12.8-12.8-12.8H12.8c-7.68 0-12.8 5.12-12.8 12.8-0.021333 7.68 5.098667 12.8 12.8 12.8zM307.392 993.6h19.221333c7.68 0 12.8-5.12 12.8-12.8s-5.12-12.8-12.8-12.8h-19.221333c-7.68 0-12.8 5.12-12.8 12.8s5.12 12.8 12.8 12.8zM380.394667 993.6h80.704c7.68 0 12.8-5.12 12.8-12.8s-5.12-12.8-12.8-12.8H380.394667c-7.68 0-12.8 5.12-12.8 12.8s5.12 12.8 12.8 12.8zM544.362667 993.6h553.344c7.68 0 12.8-5.12 12.8-12.8s-5.12-12.8-12.8-12.8H544.362667c-7.68 0-12.8 5.12-12.8 12.8-0.021333 7.68 5.098667 12.8 12.8 12.8zM1165.568 993.6h249.770667c7.68 0 12.8-5.12 12.8-12.8s-5.12-12.8-12.8-12.8H1165.568c-7.68 0-12.8 5.12-12.8 12.8s5.12 12.8 12.8 12.8z" fill="#4E8DEF" p-id="147845"></path><path d="M444.437333 348.053333c0 169.770667 137.642667 307.413333 307.413334 307.413334s307.413333-137.621333 307.413333-307.413334c0-169.770667-137.642667-307.413333-307.413333-307.413333s-307.413333 137.621333-307.413334 307.413333" fill="#E2F9FF" p-id="147846"></path><path d="M751.850667 40.64c-10.24 0-21.781333 0-32.021334 1.28 154.986667 16.661333 275.392 147.306667 275.392 306.133333 0 158.826667-120.405333 289.472-275.392 306.133334 10.24 1.28 20.501333 1.28 32.021334 1.28 170.346667 0 307.413333-137.045333 307.413333-307.413334s-138.325333-307.413333-307.413333-307.413333z" fill="#C8E5FC" p-id="147847"></path><path d="M821.013333 647.765333l128.085334 220.309334c14.08 24.341333 47.381333 32.021333 73.002666 16.661333 26.901333-15.36 37.141333-47.402667 23.061334-71.722667l-126.805334-220.309333-97.344 55.061333z" fill="#C8E5FC" p-id="147848"></path><path d="M954.24 930.837333c-6.4 0-11.52 0-17.941333-2.56-20.501333-5.12-38.421333-16.64-48.682667-35.861333l-126.805333-220.309333c-7.68-12.8-2.56-28.181333 8.96-34.581334 12.8-7.68 28.181333-2.56 34.581333 8.96l128.085333 221.589334c2.56 5.12 8.96 8.96 15.36 10.24 7.68 1.28 15.36 0 23.061334-3.84 14.08-7.68 20.501333-24.341333 12.8-37.141334l-126.805334-220.309333c-7.68-12.8-2.56-28.181333 8.96-34.581333 12.8-7.68 28.181333-2.56 34.581334 8.96L1027.242667 811.733333c20.501333 37.141333 6.4 84.544-32.021334 106.304-11.52 8.96-26.901333 12.8-40.981333 12.8z" fill="#5EACFF" p-id="147849"></path><path d="M682.688 696.448c-183.168 0-333.034667-149.866667-333.034667-333.034667S499.52 30.378667 682.688 30.378667 1015.722667 180.245333 1015.722667 363.413333s-148.586667 333.034667-333.034667 333.034667z m0-614.826667C527.701333 81.621333 400.896 208.426667 400.896 363.413333s126.805333 281.792 281.792 281.792S964.48 518.4 964.48 363.413333 838.954667 81.621333 682.688 81.621333z" fill="#5EACFF" p-id="147850"></path><path d="M682.688 626.005333c-144.746667 0-262.570667-117.845333-262.570667-262.570666 0-144.746667 117.845333-262.570667 262.570667-262.570667s262.570667 117.845333 262.570667 262.570667-117.824 262.570667-262.570667 262.570666z m0-512.362666c-138.325333 0-249.770667 111.445333-249.770667 249.770666s111.445333 249.770667 249.770667 249.770667 249.770667-111.445333 249.770667-249.770667S821.013333 113.642667 682.688 113.642667z" fill="#5EACFF" p-id="147851"></path><path d="M521.301333 267.349333c-3.84 0-7.68-1.28-11.52-3.84-8.96-6.4-10.24-17.941333-5.12-26.901333 37.141333-52.522667 94.784-88.384 158.826667-97.344 10.24-1.28 20.501333 6.4 21.781333 16.64 1.28 10.24-6.4 20.501333-16.64 21.781333-53.802667 7.68-101.184 37.141333-133.205333 80.704-1.322667 6.4-7.722667 8.96-14.122667 8.96z m-33.301333 74.304h-3.84a19.114667 19.114667 0 0 1-14.101333-23.061333c2.56-11.52 6.4-21.781333 10.24-32.021333s15.36-14.08 24.341333-10.24c10.24 3.84 14.101333 15.36 10.24 24.341333-3.84 8.96-6.4 17.941333-8.96 26.901333-1.28 8.938667-8.96 14.08-17.92 14.08z" fill="#FFFFFF" p-id="147852"></path></svg>