<?xml version="1.0" standalone="no"?><!DOCTYPE svg PUBLIC "-//W3C//DTD SVG 1.1//EN" "http://www.w3.org/Graphics/SVG/1.1/DTD/svg11.dtd"><svg t="1586013226255" class="icon" viewBox="0 0 1544 1024" version="1.1" xmlns="http://www.w3.org/2000/svg" p-id="147691" xmlns:xlink="http://www.w3.org/1999/xlink" width="193" height="128"><defs><style type="text/css"></style></defs><path d="M256.473602 346.676533c0-24.481571-19.818415-44.299986-44.299986-44.299985h-1.748684c-9.326313-16.903942-27.396044-28.561833-48.380247-28.561833-30.893411 0-55.374982 25.064466-55.374982 55.374982v2.331578H104.921019c-16.321047 0-29.727622 13.406575-29.727622 29.727622 0 7.577629 2.914473 13.989469 6.994734 19.23552 3.497367 6.41184 9.909207 10.492102 17.486837 10.492102h115.413121c1.748684 0 3.497367-0.582895 5.246051-0.582894 19.818415-3.497367 36.139462-22.149993 36.139462-43.717092z" fill="#FDF2F0" p-id="147692"></path><path d="M158.547317 391.559414h-128.2368c-9.326313 0-17.486836-5.246051-22.149993-12.82368-5.246051-5.828945-8.160524-14.572364-8.160524-23.315782 0-19.23552 15.738153-35.556568 34.973673-36.139462 0-35.556568 29.144727-64.701295 64.701295-64.701295 22.732887 0 43.717091 12.240786 55.374982 31.476305h0.582895c29.144727 0 52.460509 23.315782 52.460509 52.46051 0 25.64736-18.069731 47.214459-43.134196 51.877615-2.331578 1.165789-4.080262 1.165789-6.411841 1.165789z m-122.407855-65.867084C19.23552 325.69233 5.828945 339.098904 5.828945 356.002846c0 6.994735 2.331578 13.989469 7.57763 19.818415 4.080262 6.41184 10.492102 10.492102 17.486836 10.492102h128.236801c1.748684 0 2.914473 0 5.246051-0.582895 22.732887-4.080262 38.47104-23.315782 38.47104-46.048669 0-25.64736-20.984204-46.631564-46.631564-46.631564h-4.080262l-0.582894-1.748684c-10.492102-18.652626-30.310517-30.310517-51.29472-30.310516C67.032873 260.991035 40.802618 287.804184 40.802618 319.863384v5.828946h-4.663156z" fill="#E27142" p-id="147693"></path><path d="M1544.087662 648.033016c0-20.401309-16.321047-36.139462-36.139462-36.139463h-1.748684c-7.577629-13.989469-22.732887-23.315782-39.636829-23.315782-25.064466 0-45.465775 20.401309-45.465775 45.465775v1.748684h-1.165789c-13.406575 0-24.481571 11.074996-24.481571 24.481571 0 5.828945 2.331578 11.657891 5.828945 15.738153 2.914473 5.246051 8.160524 8.160524 14.572364 8.160524H1509.696883c1.165789 0 2.914473 0 4.080262-0.582895 16.903942-2.914473 30.310517-17.486836 30.310517-35.556567z" fill="#FDF2F0" p-id="147694"></path><path d="M1466.562687 685.338267h-109.001281c-7.577629 0-15.155258-4.080262-19.23552-11.074997-4.663156-5.246051-6.994735-12.240786-6.994735-19.818414 0-16.321047 13.406575-30.310517 29.727622-30.893412 0.582895-30.310517 25.064466-54.792088 55.374983-54.792087 19.23552 0 37.305251 10.492102 47.214458 26.813149 25.064466 0 44.88288 20.401309 44.88288 44.88288 0 21.567098-15.738153 40.219724-37.305251 44.299986-1.165789 0-2.914473 0.582895-4.663156 0.582895z m-104.338125-56.540772c-13.989469 0-25.064466 11.074996-25.064465 25.064466 0 5.828945 2.331578 11.657891 5.828945 16.321047 3.497367 5.828945 8.743418 8.743418 14.572364 8.743419h109.001281c1.165789 0 2.331578 0 4.080262-0.582895 18.652626-3.497367 32.642095-19.818415 32.642094-38.47104 0-21.567098-17.486836-39.053935-39.053934-39.053935H1460.733741l-1.165789-1.748684c-8.743418-15.738153-25.64736-25.64736-43.134196-25.64736-27.396044 0-49.546037 22.149993-49.546037 49.546037V628.214601h-3.497367c-0.582895 0.582895-0.582895 0.582895-1.16579 0.582894zM1073.108866 83.791092c-14.572364 0-26.230255-11.657891-26.230255-26.230255s11.657891-26.230255 26.230255-26.230255 26.230255 11.657891 26.230255 26.230255-11.657891 26.230255-26.230255 26.230255z m0-47.214459c-11.657891 0-20.401309 9.326313-20.401309 20.401309s9.326313 20.401309 20.401309 20.401309c11.657891 0 20.401309-9.326313 20.401309-20.401309s-8.743418-20.401309-20.401309-20.401309zM1334.245624 368.826526c-13.406575 0-24.481571-11.074996-24.481571-24.481571s11.074996-24.481571 24.481571-24.481571 24.481571 11.074996 24.481571 24.481571-11.074996 24.481571-24.481571 24.481571z m0-43.134196c-10.492102 0-18.652626 8.160524-18.652626 18.652625 0 10.492102 8.160524 18.652626 18.652626 18.652626s18.652626-8.160524 18.652626-18.652626c0-10.492102-8.160524-18.652626-18.652626-18.652625zM247.147289 880.607941c-10.492102 0-19.23552-8.743418-19.23552-19.23552 0-10.492102 8.743418-19.23552 19.23552-19.23552s19.23552 8.743418 19.23552 19.23552c0 10.492102-8.743418 19.23552-19.23552 19.23552z m0-33.22499c-7.577629 0-13.406575 5.828945-13.406575 13.406575s5.828945 13.406575 13.406575 13.406575c7.577629 0 13.406575-5.828945 13.406575-13.406575s-5.828945-13.406575-13.406575-13.406575zM1423.42849 864.869788c-10.492102 0-19.23552-8.743418-19.23552-19.23552 0-10.492102 8.743418-19.23552 19.23552-19.23552s19.23552 8.743418 19.23552 19.23552c0.582895 10.492102-8.160524 19.23552-19.23552 19.23552z m0-32.642095c-7.577629 0-13.406575 5.828945-13.406575 13.406575s5.828945 13.406575 13.406575 13.406574 13.406575-5.828945 13.406575-13.406574-5.828945-13.406575-13.406575-13.406575z" fill="#E27142" p-id="147695"></path><path d="M554.915611 143.246336c-4.080262 4.080262-11.074996 4.080262-15.155258 0l-29.727622-29.727622c-4.080262-4.080262-4.080262-11.074996 0-15.155259 4.080262-4.080262 11.074996-4.080262 15.155258 0l29.727622 29.727622c4.080262 4.080262 4.080262 11.074996 0 15.155259z" fill="#FDF2F0" p-id="147696"></path><path d="M554.915611 98.363455c4.080262 4.080262 4.080262 11.074996 0 15.155259l-29.727622 29.727622c-4.080262 4.080262-11.074996 4.080262-15.155258 0-4.080262-4.080262-4.080262-11.074996 0-15.155259l29.727622-29.727622c4.663156-4.080262 11.074996-4.080262 15.155258 0zM859.769461 31.330582c-2.914473 2.914473-6.994735 2.914473-9.909208 0L831.207628 12.095062c-2.914473-2.914473-2.914473-6.994735 0-9.909207s6.994735-2.914473 9.909207 0l19.23552 19.23552c2.331578 2.914473 2.331578 7.577629-0.582894 9.909207z" fill="#FDF2F0" p-id="147697"></path><path d="M859.769461 2.185855c2.914473 2.914473 2.914473 6.994735 0 9.909207l-19.23552 19.23552c-2.914473 2.914473-6.994735 2.914473-9.909208 0s-2.914473-6.994735 0-9.909207l19.23552-19.23552c2.914473-2.331578 7.577629-2.331578 9.909208 0zM1214.752241 380.484417c-2.914473 2.914473-6.994735 2.914473-9.909207 0l-19.23552-19.23552c-2.914473-2.914473-2.914473-6.994735 0-9.909207s6.994735-2.914473 9.909207 0l19.23552 19.23552c2.914473 2.331578 2.914473 6.994735 0 9.909207z" fill="#FDF2F0" p-id="147698"></path><path d="M1214.752241 351.33969c2.914473 2.914473 2.914473 6.994735 0 9.909207l-19.23552 19.23552c-2.914473 2.914473-6.994735 2.914473-9.909207 0s-2.914473-6.994735 0-9.909207l19.23552-19.23552c2.914473-2.914473 7.577629-2.914473 9.909207 0zM239.56966 476.079123c-2.331578 2.331578-5.828945 2.331578-7.577629 0L216.836772 460.923865c-2.331578-2.331578-2.331578-5.828945 0-7.577629 2.331578-2.331578 5.828945-2.331578 7.57763 0l15.155258 15.155258c1.748684 1.748684 1.748684 5.246051 0 7.577629z" fill="#FDF2F0" p-id="147699"></path><path d="M239.56966 452.763341c2.331578 2.331578 2.331578 5.828945 0 7.57763l-15.155258 15.155258c-2.331578 2.331578-5.828945 2.331578-7.57763 0-2.331578-2.331578-2.331578-5.828945 0-7.577629l15.155259-15.155259c1.748684-2.331578 5.246051-2.331578 7.577629 0zM361.977515 685.921161c-3.497367 3.497367-9.326313 3.497367-12.82368 0l-25.064465-25.064465c-3.497367-3.497367-3.497367-9.326313 0-12.82368 3.497367-3.497367 9.326313-3.497367 12.82368 0l25.064465 25.064465c3.497367 3.497367 3.497367 8.743418 0 12.82368z" fill="#FDF2F0" p-id="147700"></path><path d="M361.977515 648.033016c3.497367 3.497367 3.497367 9.326313 0 12.82368l-25.064465 25.064465c-3.497367 3.497367-9.326313 3.497367-12.82368 0-3.497367-3.497367-3.497367-9.326313 0-12.82368l25.064465-25.064465c4.080262-3.497367 9.326313-3.497367 12.82368 0z" fill="#FDF2F0" p-id="147701"></path><path d="M838.644212 894.74592a293.778853 293.778853 0 1 0 101.998028-578.636726 293.778853 293.778853 0 1 0-101.998028 578.636726Z" fill="#FDF2F0" p-id="147702"></path><path d="M1183.85883 1012.925004c-10.492102 7.577629-25.064466 4.663156-32.0592-5.828946l-62.369717-88.599971c-7.577629-10.492102-4.663156-25.064466 5.828946-32.059201 10.492102-7.577629 25.064466-4.663156 32.0592 5.828946l62.369717 88.599971c6.994735 10.492102 4.663156 25.064466-5.828946 32.059201z" fill="#FDF2F0" p-id="147703"></path><path d="M803.228689 956.967127c-174.868365 0-317.094635-142.22627-317.094635-317.094635s142.22627-317.094635 317.094635-317.094635 317.094635 142.22627 317.094635 317.094635c-0.582895 174.868365-142.809165 317.094635-317.094635 317.094635z m0-628.360325c-171.370998 0-311.265689 139.311797-311.265689 311.26569s139.311797 311.265689 311.265689 311.265689 311.265689-139.311797 311.26569-311.265689-139.894692-311.265689-311.26569-311.26569zM1169.869361 1024c-6.994735 0-13.989469-2.914473-19.818415-8.160524l-81.605237-81.605237c-11.074996-11.074996-11.074996-28.561833 0-39.053934 11.074996-11.074996 28.561833-11.074996 39.053935 0l81.605237 81.605236c11.074996 11.074996 11.074996 28.561833 0 39.053935-4.663156 5.246051-12.240786 8.160524-19.23552 8.160524z m-81.605237-131.151274c-5.828945 0-11.074996 2.331578-15.738153 6.41184-8.743418 8.743418-8.743418 22.149993 0 30.893412l81.605237 81.605236c8.743418 8.743418 22.149993 8.743418 30.893411 0s8.743418-22.149993 0-30.893411l-81.605237-81.605237c-4.080262-4.663156-9.326313-6.41184-15.155258-6.41184z" fill="#ED7441" p-id="147704"></path><path d="M591.055073 516.881742l-5.246051-2.914473c11.074996-18.652626 23.898677-36.139462 39.63683-51.29472 15.155258-15.155258 32.642095-28.561833 51.29472-39.63683l2.914473 5.246051c-18.069731 10.492102-34.973673 23.898677-50.128931 38.471041-14.572364 15.155258-27.978938 32.0592-38.471041 50.128931zM890.662872 874.778995l-1.748684-5.246051c33.224989-12.240786 62.952611-31.476306 88.017077-56.540771 25.064466-25.064466 44.299986-54.792088 56.540771-87.434182l5.246051 1.748683c-12.82368 33.807884-32.0592 64.1184-57.70656 89.765761-26.230255 25.64736-56.540771 45.465775-90.348655 57.70656z" fill="#ED7441" p-id="147705"></path></svg>