<?xml version="1.0" standalone="no"?><!DOCTYPE svg PUBLIC "-//W3C//DTD SVG 1.1//EN" "http://www.w3.org/Graphics/SVG/1.1/DTD/svg11.dtd"><svg t="1586013315554" class="icon" viewBox="0 0 1024 1024" version="1.1" xmlns="http://www.w3.org/2000/svg" p-id="160841" xmlns:xlink="http://www.w3.org/1999/xlink" width="128" height="128"><defs><style type="text/css"></style></defs><path d="M0.0522 511.9478c-0.078299 282.713157 229.091094 511.9739 511.830351 512.0522 282.739257 0.0522 511.9739-229.091094 512.052199-511.817301v-0.247949c0-282.739257-229.195494-511.93475-511.93475-511.93475-282.739257 0.01305-511.9478 229.208544-511.9478 511.9478z" fill="#EEEEEE" p-id="160842"></path><path d="M844.276699 691.592802a38.288423 38.288423 0 0 1-38.562472 38.027425h-0.026099l-590.090636-0.939593a38.327573 38.327573 0 0 1-38.027425-38.588571l2.857929-375.889484a38.314523 38.314523 0 0 1 38.562471-38.040475h0.0261l482.024367 0.182699c39.019218 35.052047 90.174848 84.498139 145.454249 131.543049l-2.218484 283.70495z" fill="#FDFDFD" p-id="160843"></path><path d="M848.348269 397.917724a13.323954 13.323954 0 0 1-13.637151 13.023806l-126.192588-2.962328a13.310904 13.310904 0 0 1-12.997706-13.598002v-0.03915l2.505582-107.374624a13.337004 13.337004 0 0 1 13.637151-13.023806l136.684712 123.974104z" fill="#D8D8D8" p-id="160844"></path><path d="M534.419738 668.089922c-0.03915 66.698068 54.02661 120.842127 120.724678 120.868227 66.724168 0.0522 120.842127-54.039659 120.894326-120.737728v-0.130499a120.802977 120.802977 0 0 0-122.068818-119.563236 120.816027 120.816027 0 0 0-119.550186 119.563236z" fill="#EEEEEE" p-id="160845"></path><path d="M568.819289 623.407045c-5.428761-3.562624 1.148392-13.79375 6.799001-19.40521 5.611459-5.650609 10.061477-7.869093 14.459296-6.720701 3.092828 0.822144 7.320997 7.738594-0.104399 13.728501-8.31279 6.785951-11.927614 18.543916-21.153898 12.39741z m-7.112198 12.815007c0 3.497375 2.83183 6.342254 6.342254 6.368354a6.342254 6.342254 0 1 0-6.342254-6.368354z" fill="#D8D8D8" p-id="160846"></path><path d="M621.788857 381.252995A12.658409 12.658409 0 0 1 609.117398 393.911403H270.328796a12.684508 12.684508 0 0 1-12.671458-12.645358c0-6.994749 5.676709-12.671458 12.671458-12.671459H609.117398a12.658409 12.658409 0 0 1 12.671459 12.658409c0-0.01305 0 0 0 0 0-0.01305 0 0 0 0z m-192.303411 90.122649c0 6.994749-5.676709 12.658409-12.658408 12.671458H270.328796a12.697558 12.697558 0 0 1-12.671458-12.658409c0-6.9817 5.689759-12.658409 12.671458-12.671458h146.524342a12.658409 12.658409 0 0 1 12.632308 12.658409z m0 90.161798a12.658409 12.658409 0 0 1-12.658408 12.658409H270.328796a12.658409 12.658409 0 0 1 0-25.316818h146.524342c6.9817 0 12.632309 5.663659 12.632308 12.658409z m385.650813 240.444512a12.527909 12.527909 0 0 0-17.604322-1.552938l-0.01305 0.026099-19.757558-23.581179c59.768568-68.003059 53.060917-171.59321-14.955191-231.348728-68.029158-59.781618-171.58016-53.060917-231.361779 14.955192-59.729418 68.029158-53.034817 171.56711 14.955192 231.361778a163.985115 163.985115 0 0 0 200.6423 12.240811l19.039813 22.680736-0.01305 0.0261a12.48876 12.48876 0 0 0-1.526839 17.591273l60.603762 72.283428a514.857929 514.857929 0 0 0 49.472193-43.782434l-59.481471-70.900138z m-160.905337-12.488759a120.816027 120.816027 0 1 1 0-241.605954 120.816027 120.816027 0 0 1 0 241.605954z" fill="#E0E0E0" p-id="160847"></path></svg>